<?xml version="1.0" encoding="UTF-8" standalone="no"?><!DOCTYPE svg PUBLIC "-//W3C//DTD SVG 1.1//EN" "http://www.w3.org/Graphics/SVG/1.1/DTD/svg11.dtd"><!-- Generated by graphviz version 2.40.1 (20161225.0304)
 --><!-- Title: state_machine Pages: 1 --><svg xmlns="http://www.w3.org/2000/svg" xmlns:xlink="http://www.w3.org/1999/xlink" width="452pt" height="209pt" viewBox="0.00 0.00 451.53 209.39">
<g id="graph0" class="graph" transform="scale(1 1) rotate(0) translate(4 205.3869)">
<title>state_machine</title>
<polygon fill="#ffffff" stroke="transparent" points="-4,4 -4,-205.3869 447.5345,-205.3869 447.5345,4 -4,4"/>
<!-- q0 -->
<g id="node1" class="node">
<title>q0</title>
<ellipse fill="none" stroke="#000000" cx="61.2935" cy="-103.6935" rx="20.8887" ry="20.8887"/>
<text text-anchor="middle" x="61.2935" y="-99.4935" font-family="Times,serif" font-size="14.00" fill="#000000">q0</text>
</g>
<!-- q1 -->
<g id="node2" class="node">
<title>q1</title>
<ellipse fill="none" stroke="#000000" cx="145.6804" cy="-133.6935" rx="20.8887" ry="20.8887"/>
<text text-anchor="middle" x="145.6804" y="-129.4935" font-family="Times,serif" font-size="14.00" fill="#000000">q1</text>
</g>
<!-- q0&#45;&gt;q1 -->
<g id="edge1" class="edge">
<title>q0-&gt;q1</title>
<path fill="none" stroke="#000000" d="M80.8656,-110.6515C91.4402,-114.4108 104.7063,-119.127 116.4776,-123.3117"/>
<polygon fill="#000000" stroke="#000000" points="115.3273,-126.6173 125.922,-126.6693 117.6721,-120.0217 115.3273,-126.6173"/>
<text text-anchor="middle" x="103.4869" y="-123.8935" font-family="Times,serif" font-size="14.00" fill="#000000">a</text>
</g>
<!-- q2 -->
<g id="node3" class="node">
<title>q2</title>
<ellipse fill="none" stroke="#000000" cx="145.6804" cy="-74.6935" rx="20.8887" ry="20.8887"/>
<text text-anchor="middle" x="145.6804" y="-70.4935" font-family="Times,serif" font-size="14.00" fill="#000000">q2</text>
</g>
<!-- q0&#45;&gt;q2 -->
<g id="edge2" class="edge">
<title>q0-&gt;q2</title>
<path fill="none" stroke="#000000" d="M80.9491,-96.5913C87.0414,-94.4147 93.7834,-92.0312 99.9869,-89.8935 105.0925,-88.134 110.5307,-86.2948 115.8086,-84.528"/>
<polygon fill="#000000" stroke="#000000" points="117.2474,-87.738 125.6309,-81.2598 115.0374,-81.096 117.2474,-87.738"/>
<text text-anchor="middle" x="103.4869" y="-94.8935" font-family="Times,serif" font-size="14.00" fill="#000000">b</text>
</g>
<!-- q3 -->
<g id="node4" class="node">
<title>q3</title>
<ellipse fill="none" stroke="#000000" cx="234.0673" cy="-180.6935" rx="20.8887" ry="20.8887"/>
<text text-anchor="middle" x="234.0673" y="-176.4935" font-family="Times,serif" font-size="14.00" fill="#000000">q3</text>
</g>
<!-- q1&#45;&gt;q3 -->
<g id="edge3" class="edge">
<title>q1-&gt;q3</title>
<path fill="none" stroke="#000000" d="M163.9942,-143.4319C176.3193,-149.9858 192.7909,-158.7446 206.6675,-166.1235"/>
<polygon fill="#000000" stroke="#000000" points="205.3043,-169.3627 215.7769,-170.9675 208.5908,-163.1822 205.3043,-169.3627"/>
<text text-anchor="middle" x="187.8738" y="-160.8935" font-family="Times,serif" font-size="14.00" fill="#000000">a</text>
</g>
<!-- q4 -->
<g id="node5" class="node">
<title>q4</title>
<ellipse fill="none" stroke="#000000" cx="234.0673" cy="-121.6935" rx="20.8887" ry="20.8887"/>
<text text-anchor="middle" x="234.0673" y="-117.4935" font-family="Times,serif" font-size="14.00" fill="#000000">q4</text>
</g>
<!-- q1&#45;&gt;q4 -->
<g id="edge4" class="edge">
<title>q1-&gt;q4</title>
<path fill="none" stroke="#000000" d="M166.6268,-130.8496C177.5242,-129.3701 191.058,-127.5327 203.1354,-125.893"/>
<polygon fill="#000000" stroke="#000000" points="203.833,-129.3305 213.2712,-124.5169 202.8912,-122.3941 203.833,-129.3305"/>
<text text-anchor="middle" x="187.8738" y="-132.8935" font-family="Times,serif" font-size="14.00" fill="#000000">b</text>
</g>
<!-- q2&#45;&gt;q4 -->
<g id="edge5" class="edge">
<title>q2-&gt;q4</title>
<path fill="none" stroke="#000000" d="M163.9942,-84.4319C176.3193,-90.9858 192.7909,-99.7446 206.6675,-107.1235"/>
<polygon fill="#000000" stroke="#000000" points="205.3043,-110.3627 215.7769,-111.9675 208.5908,-104.1822 205.3043,-110.3627"/>
<text text-anchor="middle" x="187.8738" y="-102.8935" font-family="Times,serif" font-size="14.00" fill="#000000">a</text>
</g>
<!-- q5 -->
<g id="node7" class="node">
<title>q5</title>
<ellipse fill="none" stroke="#000000" cx="234.0673" cy="-24.6935" rx="20.8568" ry="20.8568"/>
<ellipse fill="none" stroke="#000000" cx="234.0673" cy="-24.6935" rx="24.8884" ry="24.8884"/>
<text text-anchor="middle" x="234.0673" y="-20.4935" font-family="Times,serif" font-size="14.00" fill="#000000">q5</text>
</g>
<!-- q2&#45;&gt;q5 -->
<g id="edge6" class="edge">
<title>q2-&gt;q5</title>
<path fill="none" stroke="#000000" d="M163.9942,-64.3334C175.4155,-57.8725 190.3974,-49.3973 203.5754,-41.9425"/>
<polygon fill="#000000" stroke="#000000" points="205.364,-44.952 212.3446,-36.9819 201.9174,-38.8593 205.364,-44.952"/>
<text text-anchor="middle" x="187.8738" y="-56.8935" font-family="Times,serif" font-size="14.00" fill="#000000">b</text>
</g>
<!-- q6 -->
<g id="node6" class="node">
<title>q6</title>
<ellipse fill="none" stroke="#000000" cx="326.4542" cy="-142.6935" rx="20.8887" ry="20.8887"/>
<text text-anchor="middle" x="326.4542" y="-138.4935" font-family="Times,serif" font-size="14.00" fill="#000000">q6</text>
</g>
<!-- q3&#45;&gt;q6 -->
<g id="edge7" class="edge">
<title>q3-&gt;q6</title>
<path fill="none" stroke="#000000" d="M253.2099,-172.8198C266.0069,-167.5562 283.0805,-160.5337 297.5239,-154.5929"/>
<polygon fill="#000000" stroke="#000000" points="299.1014,-157.7286 307.0182,-150.6877 296.4386,-151.2548 299.1014,-157.7286"/>
<text text-anchor="middle" x="280.2607" y="-166.8935" font-family="Times,serif" font-size="14.00" fill="#000000">b</text>
</g>
<!-- q4&#45;&gt;q6 -->
<g id="edge8" class="edge">
<title>q4-&gt;q6</title>
<path fill="none" stroke="#000000" d="M254.5709,-126.354C266.7711,-129.1272 282.4769,-132.6972 296.0943,-135.7925"/>
<polygon fill="#000000" stroke="#000000" points="295.4808,-139.2423 306.0078,-138.0459 297.0324,-132.4164 295.4808,-139.2423"/>
<text text-anchor="middle" x="280.2607" y="-137.8935" font-family="Times,serif" font-size="14.00" fill="#000000">a</text>
</g>
<!-- q7 -->
<g id="node8" class="node">
<title>q7</title>
<ellipse fill="none" stroke="#000000" cx="326.4542" cy="-45.6935" rx="20.8568" ry="20.8568"/>
<ellipse fill="none" stroke="#000000" cx="326.4542" cy="-45.6935" rx="24.8884" ry="24.8884"/>
<text text-anchor="middle" x="326.4542" y="-41.4935" font-family="Times,serif" font-size="14.00" fill="#000000">q7</text>
</g>
<!-- q4&#45;&gt;q7 -->
<g id="edge9" class="edge">
<title>q4-&gt;q7</title>
<path fill="none" stroke="#000000" d="M250.1598,-108.4553C263.7193,-97.3009 283.4076,-81.1047 299.3874,-67.9593"/>
<polygon fill="#000000" stroke="#000000" points="301.8544,-70.462 307.3536,-61.4061 297.4073,-65.0561 301.8544,-70.462"/>
<text text-anchor="middle" x="280.2607" y="-90.8935" font-family="Times,serif" font-size="14.00" fill="#000000">b</text>
</g>
<!-- q8 -->
<g id="node9" class="node">
<title>q8</title>
<ellipse fill="none" stroke="#000000" cx="418.8411" cy="-93.6935" rx="20.8568" ry="20.8568"/>
<ellipse fill="none" stroke="#000000" cx="418.8411" cy="-93.6935" rx="24.8884" ry="24.8884"/>
<text text-anchor="middle" x="418.8411" y="-89.4935" font-family="Times,serif" font-size="14.00" fill="#000000">q8</text>
</g>
<!-- q6&#45;&gt;q8 -->
<g id="edge12" class="edge">
<title>q6-&gt;q8</title>
<path fill="none" stroke="#000000" d="M345.15,-132.7776C357.4336,-126.2627 373.7957,-117.5845 387.9816,-110.0607"/>
<polygon fill="#000000" stroke="#000000" points="389.7303,-113.095 396.9247,-105.3174 386.4504,-106.911 389.7303,-113.095"/>
<text text-anchor="middle" x="372.6476" y="-123.8935" font-family="Times,serif" font-size="14.00" fill="#000000">b</text>
</g>
<!-- q5&#45;&gt;q5 -->
<g id="edge11" class="edge">
<title>q5-&gt;q5</title>
<path fill="none" stroke="#000000" d="M225.577,-47.9685C224.7684,-58.3813 227.5985,-67.3869 234.0673,-67.3869 238.2113,-67.3869 240.862,-63.691 242.0195,-58.2969"/>
<polygon fill="#000000" stroke="#000000" points="245.5324,-58.137 242.5575,-47.9685 238.5419,-57.7728 245.5324,-58.137"/>
<text text-anchor="middle" x="234.0673" y="-71.5869" font-family="Times,serif" font-size="14.00" fill="#000000">b</text>
</g>
<!-- q5&#45;&gt;q7 -->
<g id="edge10" class="edge">
<title>q5-&gt;q7</title>
<path fill="none" stroke="#000000" d="M258.3408,-30.211C268.7376,-32.5742 281.0628,-35.3758 292.3517,-37.9418"/>
<polygon fill="#000000" stroke="#000000" points="291.8156,-41.4092 302.3427,-40.2128 293.3673,-34.5833 291.8156,-41.4092"/>
<text text-anchor="middle" x="280.2607" y="-40.8935" font-family="Times,serif" font-size="14.00" fill="#000000">a</text>
</g>
<!-- q7&#45;&gt;q7 -->
<g id="edge13" class="edge">
<title>q7-&gt;q7</title>
<path fill="none" stroke="#000000" d="M317.9639,-68.9685C317.1553,-79.3813 319.9854,-88.3869 326.4542,-88.3869 330.5982,-88.3869 333.2489,-84.691 334.4064,-79.2969"/>
<polygon fill="#000000" stroke="#000000" points="337.9193,-79.137 334.9444,-68.9685 330.9288,-78.7728 337.9193,-79.137"/>
<text text-anchor="middle" x="326.4542" y="-92.5869" font-family="Times,serif" font-size="14.00" fill="#000000">b</text>
</g>
<!-- q7&#45;&gt;q8 -->
<g id="edge14" class="edge">
<title>q7-&gt;q8</title>
<path fill="none" stroke="#000000" d="M348.8185,-57.3129C360.507,-63.3857 374.9985,-70.9149 387.7605,-77.5454"/>
<polygon fill="#000000" stroke="#000000" points="386.1953,-80.6764 396.6827,-82.181 389.4226,-74.4647 386.1953,-80.6764"/>
<text text-anchor="middle" x="372.6476" y="-75.8935" font-family="Times,serif" font-size="14.00" fill="#000000">a</text>
</g>
<!-- q8&#45;&gt;q8 -->
<g id="edge15" class="edge">
<title>q8-&gt;q8</title>
<path fill="none" stroke="#000000" d="M410.3508,-116.9685C409.5422,-127.3813 412.3723,-136.3869 418.8411,-136.3869 422.9851,-136.3869 425.6358,-132.691 426.7933,-127.2969"/>
<polygon fill="#000000" stroke="#000000" points="430.3062,-127.137 427.3313,-116.9685 423.3157,-126.7728 430.3062,-127.137"/>
<text text-anchor="middle" x="418.8411" y="-140.5869" font-family="Times,serif" font-size="14.00" fill="#000000">b</text>
</g>
<!-- q -->
<g id="node10" class="node">
<title>q</title>
<ellipse fill="#000000" stroke="#000000" cx="1.8" cy="-103.6935" rx="1.8" ry="1.8"/>
</g>
<!-- q&#45;&gt;q0 -->
<g id="edge16" class="edge">
<title>q-&gt;q0</title>
<path fill="none" stroke="#000000" d="M3.7795,-103.6935C8.1326,-103.6935 19.0417,-103.6935 30.2036,-103.6935"/>
<polygon fill="#000000" stroke="#000000" points="30.3445,-107.1936 40.3444,-103.6935 30.3444,-100.1936 30.3445,-107.1936"/>
</g>
</g>
</svg>