<?xml version="1.0" encoding="UTF-8" standalone="no"?><!DOCTYPE svg PUBLIC "-//W3C//DTD SVG 1.1//EN" "http://www.w3.org/Graphics/SVG/1.1/DTD/svg11.dtd"><!-- Generated by graphviz version 2.40.1 (20161225.0304)
 --><!-- Title: state_machine Pages: 1 --><svg xmlns="http://www.w3.org/2000/svg" xmlns:xlink="http://www.w3.org/1999/xlink" width="651pt" height="177pt" viewBox="0.00 0.00 651.11 176.69">
<g id="graph0" class="graph" transform="scale(1 1) rotate(0) translate(4 172.6935)">
<title>state_machine</title>
<polygon fill="#ffffff" stroke="transparent" points="-4,4 -4,-172.6935 647.1062,-172.6935 647.1062,4 -4,4"/>
<!-- q0 -->
<g id="node1" class="node">
<title>q0</title>
<ellipse fill="none" stroke="#000000" cx="61.2935" cy="-56" rx="20.8887" ry="20.8887"/>
<text text-anchor="middle" x="61.2935" y="-51.8" font-family="Times,serif" font-size="14.00" fill="#000000">q0</text>
</g>
<!-- q1 -->
<g id="node2" class="node">
<title>q1</title>
<ellipse fill="none" stroke="#000000" cx="150.341" cy="-148" rx="20.8887" ry="20.8887"/>
<text text-anchor="middle" x="150.341" y="-143.8" font-family="Times,serif" font-size="14.00" fill="#000000">q1</text>
</g>
<!-- q0&#45;&gt;q1 -->
<g id="edge1" class="edge">
<title>q0-&gt;q1</title>
<path fill="none" stroke="#000000" d="M75.9978,-71.1919C90.3913,-86.0626 112.4795,-108.8832 128.8429,-125.7892"/>
<polygon fill="#000000" stroke="#000000" points="126.4404,-128.3395 135.9102,-133.0908 131.4702,-123.4711 126.4404,-128.3395"/>
<text text-anchor="middle" x="105.8172" y="-112.2" font-family="Times,serif" font-size="14.00" fill="#000000">λ</text>
</g>
<!-- q4 -->
<g id="node5" class="node">
<title>q4</title>
<ellipse fill="none" stroke="#000000" cx="150.341" cy="-89" rx="20.8887" ry="20.8887"/>
<text text-anchor="middle" x="150.341" y="-84.8" font-family="Times,serif" font-size="14.00" fill="#000000">q4</text>
</g>
<!-- q0&#45;&gt;q4 -->
<g id="edge3" class="edge">
<title>q0-&gt;q4</title>
<path fill="none" stroke="#000000" d="M81.056,-63.3238C92.8152,-67.6816 107.9533,-73.2916 121.0785,-78.1556"/>
<polygon fill="#000000" stroke="#000000" points="120.0406,-81.5036 130.6337,-81.6967 122.4731,-74.9398 120.0406,-81.5036"/>
<text text-anchor="middle" x="105.8172" y="-79.2" font-family="Times,serif" font-size="14.00" fill="#000000">λ</text>
</g>
<!-- q8 -->
<g id="node9" class="node">
<title>q8</title>
<ellipse fill="none" stroke="#000000" cx="530.8113" cy="-64" rx="20.8887" ry="20.8887"/>
<text text-anchor="middle" x="530.8113" y="-59.8" font-family="Times,serif" font-size="14.00" fill="#000000">q8</text>
</g>
<!-- q0&#45;&gt;q8 -->
<g id="edge2" class="edge">
<title>q0-&gt;q8</title>
<path fill="none" stroke="#000000" d="M81.2681,-50.3139C99.1955,-45.7151 126.3089,-40 150.341,-40 150.341,-40 150.341,-40 441.7638,-40 462.5097,-40 485.0666,-46.1481 502.2868,-52.2208"/>
<polygon fill="#000000" stroke="#000000" points="501.1622,-55.5367 511.7551,-55.7406 503.6014,-48.9754 501.1622,-55.5367"/>
<text text-anchor="middle" x="278.4662" y="-44.2" font-family="Times,serif" font-size="14.00" fill="#000000">λ</text>
</g>
<!-- q2 -->
<g id="node3" class="node">
<title>q2</title>
<ellipse fill="none" stroke="#000000" cx="233.9425" cy="-148" rx="20.8887" ry="20.8887"/>
<text text-anchor="middle" x="233.9425" y="-143.8" font-family="Times,serif" font-size="14.00" fill="#000000">q2</text>
</g>
<!-- q1&#45;&gt;q2 -->
<g id="edge4" class="edge">
<title>q1-&gt;q2</title>
<path fill="none" stroke="#000000" d="M171.4371,-148C181.0147,-148 192.5324,-148 203.0573,-148"/>
<polygon fill="#000000" stroke="#000000" points="203.1427,-151.5001 213.1426,-148 203.1426,-144.5001 203.1427,-151.5001"/>
<text text-anchor="middle" x="192.1417" y="-152.2" font-family="Times,serif" font-size="14.00" fill="#000000">a</text>
</g>
<!-- q3 -->
<g id="node4" class="node">
<title>q3</title>
<ellipse fill="none" stroke="#000000" cx="382.3769" cy="-147" rx="20.8887" ry="20.8887"/>
<text text-anchor="middle" x="382.3769" y="-142.8" font-family="Times,serif" font-size="14.00" fill="#000000">q3</text>
</g>
<!-- q2&#45;&gt;q3 -->
<g id="edge5" class="edge">
<title>q2-&gt;q3</title>
<path fill="none" stroke="#000000" d="M254.8947,-147.8588C279.9796,-147.6898 322.2231,-147.4053 351.1572,-147.2103"/>
<polygon fill="#000000" stroke="#000000" points="351.5551,-150.7078 361.5313,-147.1404 351.5079,-143.708 351.5551,-150.7078"/>
<text text-anchor="middle" x="278.4662" y="-151.2" font-family="Times,serif" font-size="14.00" fill="#000000">b</text>
</g>
<!-- q3&#45;&gt;q8 -->
<g id="edge6" class="edge">
<title>q3-&gt;q8</title>
<path fill="none" stroke="#000000" d="M402.3708,-141.5699C418.9308,-136.7084 442.8405,-128.837 462.4572,-119 476.6698,-111.873 479.5994,-108.802 492.1178,-99 497.4534,-94.8222 502.975,-90.0972 508.1182,-85.5015"/>
<polygon fill="#000000" stroke="#000000" points="510.7809,-87.8099 515.8078,-78.4835 506.0621,-82.6395 510.7809,-87.8099"/>
<text text-anchor="middle" x="441.7638" y="-139.2" font-family="Times,serif" font-size="14.00" fill="#000000">λ</text>
</g>
<!-- q5 -->
<g id="node6" class="node">
<title>q5</title>
<ellipse fill="none" stroke="#000000" cx="233.9425" cy="-89" rx="20.8887" ry="20.8887"/>
<text text-anchor="middle" x="233.9425" y="-84.8" font-family="Times,serif" font-size="14.00" fill="#000000">q5</text>
</g>
<!-- q4&#45;&gt;q5 -->
<g id="edge7" class="edge">
<title>q4-&gt;q5</title>
<path fill="none" stroke="#000000" d="M171.4371,-89C181.0147,-89 192.5324,-89 203.0573,-89"/>
<polygon fill="#000000" stroke="#000000" points="203.1427,-92.5001 213.1426,-89 203.1426,-85.5001 203.1427,-92.5001"/>
<text text-anchor="middle" x="192.1417" y="-93.2" font-family="Times,serif" font-size="14.00" fill="#000000">a</text>
</g>
<!-- q6 -->
<g id="node7" class="node">
<title>q6</title>
<ellipse fill="none" stroke="#000000" cx="322.99" cy="-89" rx="20.8887" ry="20.8887"/>
<text text-anchor="middle" x="322.99" y="-84.8" font-family="Times,serif" font-size="14.00" fill="#000000">q6</text>
</g>
<!-- q5&#45;&gt;q6 -->
<g id="edge8" class="edge">
<title>q5-&gt;q6</title>
<path fill="none" stroke="#000000" d="M255.0455,-89C266.0243,-89 279.6592,-89 291.8269,-89"/>
<polygon fill="#000000" stroke="#000000" points="292.0385,-92.5001 302.0384,-89 292.0384,-85.5001 292.0385,-92.5001"/>
<text text-anchor="middle" x="278.4662" y="-93.2" font-family="Times,serif" font-size="14.00" fill="#000000">b</text>
</g>
<!-- q7 -->
<g id="node8" class="node">
<title>q7</title>
<ellipse fill="none" stroke="#000000" cx="441.7638" cy="-89" rx="20.8887" ry="20.8887"/>
<text text-anchor="middle" x="441.7638" y="-84.8" font-family="Times,serif" font-size="14.00" fill="#000000">q7</text>
</g>
<!-- q6&#45;&gt;q7 -->
<g id="edge9" class="edge">
<title>q6-&gt;q7</title>
<path fill="none" stroke="#000000" d="M343.9509,-89C362.5237,-89 389.8837,-89 410.9478,-89"/>
<polygon fill="#000000" stroke="#000000" points="411.0124,-92.5001 421.0124,-89 411.0123,-85.5001 411.0124,-92.5001"/>
<text text-anchor="middle" x="382.3769" y="-93.2" font-family="Times,serif" font-size="14.00" fill="#000000">a</text>
</g>
<!-- q7&#45;&gt;q8 -->
<g id="edge10" class="edge">
<title>q7-&gt;q8</title>
<path fill="none" stroke="#000000" d="M461.97,-83.3271C473.4692,-80.0987 488.09,-75.9939 500.8971,-72.3984"/>
<polygon fill="#000000" stroke="#000000" points="502.0033,-75.7232 510.685,-69.6504 500.1112,-68.9838 502.0033,-75.7232"/>
<text text-anchor="middle" x="486.2875" y="-82.2" font-family="Times,serif" font-size="14.00" fill="#000000">λ</text>
</g>
<!-- q8&#45;&gt;q0 -->
<g id="edge11" class="edge">
<title>q8-&gt;q0</title>
<path fill="none" stroke="#000000" d="M518.3727,-47.1848C502.7772,-28.2227 474.1289,0 441.7638,0 150.341,0 150.341,0 150.341,0 124.1313,0 99.3224,-17.5997 82.5808,-33.0661"/>
<polygon fill="#000000" stroke="#000000" points="79.7678,-30.9196 75.0396,-40.4009 84.6484,-35.9376 79.7678,-30.9196"/>
<text text-anchor="middle" x="278.4662" y="-4.2" font-family="Times,serif" font-size="14.00" fill="#000000">λ</text>
</g>
<!-- q9 -->
<g id="node10" class="node">
<title>q9</title>
<ellipse fill="none" stroke="#000000" cx="618.4128" cy="-64" rx="20.8568" ry="20.8568"/>
<ellipse fill="none" stroke="#000000" cx="618.4128" cy="-64" rx="24.8884" ry="24.8884"/>
<text text-anchor="middle" x="618.4128" y="-59.8" font-family="Times,serif" font-size="14.00" fill="#000000">q9</text>
</g>
<!-- q8&#45;&gt;q9 -->
<g id="edge12" class="edge">
<title>q8-&gt;q9</title>
<path fill="none" stroke="#000000" d="M551.5716,-64C561.0804,-64 572.6145,-64 583.4059,-64"/>
<polygon fill="#000000" stroke="#000000" points="583.4343,-67.5001 593.4343,-64 583.4342,-60.5001 583.4343,-67.5001"/>
<text text-anchor="middle" x="572.612" y="-68.2" font-family="Times,serif" font-size="14.00" fill="#000000">a</text>
</g>
<!-- q -->
<g id="node11" class="node">
<title>q</title>
<ellipse fill="#000000" stroke="#000000" cx="1.8" cy="-56" rx="1.8" ry="1.8"/>
</g>
<!-- q&#45;&gt;q0 -->
<g id="edge13" class="edge">
<title>q-&gt;q0</title>
<path fill="none" stroke="#000000" d="M3.7795,-56C8.1326,-56 19.0417,-56 30.2036,-56"/>
<polygon fill="#000000" stroke="#000000" points="30.3445,-59.5001 40.3444,-56 30.3444,-52.5001 30.3445,-59.5001"/>
</g>
</g>
</svg>