<?xml version="1.0" encoding="UTF-8" standalone="no"?><!DOCTYPE svg PUBLIC "-//W3C//DTD SVG 1.1//EN" "http://www.w3.org/Graphics/SVG/1.1/DTD/svg11.dtd"><!-- Generated by graphviz version 2.40.1 (20161225.0304)
 --><!-- Title: state_machine Pages: 1 --><svg xmlns="http://www.w3.org/2000/svg" xmlns:xlink="http://www.w3.org/1999/xlink" width="572pt" height="318pt" viewBox="0.00 0.00 572.49 318.00">
<g id="graph0" class="graph" transform="scale(1 1) rotate(0) translate(4 314)">
<title>state_machine</title>
<polygon fill="#ffffff" stroke="transparent" points="-4,4 -4,-314 568.4898,-314 568.4898,4 -4,4"/>
<!-- A -->
<g id="node1" class="node">
<title>A</title>
<ellipse fill="none" stroke="#000000" cx="58.6079" cy="-76" rx="18.0157" ry="18.0157"/>
<text text-anchor="middle" x="58.6079" y="-71.8" font-family="Times,serif" font-size="14.00" fill="#000000">A</text>
</g>
<!-- B -->
<g id="node6" class="node">
<title>B</title>
<ellipse fill="none" stroke="#000000" cx="154.8303" cy="-160" rx="18" ry="18"/>
<ellipse fill="none" stroke="#000000" cx="154.8303" cy="-160" rx="22" ry="22"/>
<text text-anchor="middle" x="154.8303" y="-155.8" font-family="Times,serif" font-size="14.00" fill="#000000">B</text>
</g>
<!-- A&#45;&gt;B -->
<g id="edge2" class="edge">
<title>A-&gt;B</title>
<path fill="none" stroke="#000000" d="M70.8546,-89.4493C77.6331,-96.668 86.3399,-105.5808 94.6157,-113 105.3679,-122.6393 117.8676,-132.5819 128.6827,-140.8258"/>
<polygon fill="#000000" stroke="#000000" points="126.8354,-143.816 136.9295,-147.0348 131.0458,-138.2238 126.8354,-143.816"/>
<text text-anchor="middle" x="104.723" y="-134.2" font-family="Times,serif" font-size="14.00" fill="#000000">b</text>
</g>
<!-- D -->
<g id="node8" class="node">
<title>D</title>
<ellipse fill="none" stroke="#000000" cx="455.482" cy="-57" rx="18.0143" ry="18.0143"/>
<ellipse fill="none" stroke="#000000" cx="455.482" cy="-57" rx="22.0157" ry="22.0157"/>
<text text-anchor="middle" x="455.482" y="-52.8" font-family="Times,serif" font-size="14.00" fill="#000000">D</text>
</g>
<!-- A&#45;&gt;D -->
<g id="edge1" class="edge">
<title>A-&gt;D</title>
<path fill="none" stroke="#000000" d="M68.3681,-60.6203C83.7979,-38.4128 116.087,0 154.8303,0 154.8303,0 154.8303,0 355.2595,0 384.5093,0 413.0213,-18.5714 432.1078,-34.513"/>
<polygon fill="#000000" stroke="#000000" points="429.8486,-37.1867 439.6853,-41.1223 434.4498,-31.9114 429.8486,-37.1867"/>
<text text-anchor="middle" x="255.0449" y="-4.2" font-family="Times,serif" font-size="14.00" fill="#000000">a</text>
</g>
<!-- G -->
<g id="node2" class="node">
<title>G</title>
<ellipse fill="none" stroke="#000000" cx="58.6079" cy="-288" rx="18.0157" ry="18.0157"/>
<text text-anchor="middle" x="58.6079" y="-283.8" font-family="Times,serif" font-size="14.00" fill="#000000">G</text>
</g>
<!-- H -->
<g id="node3" class="node">
<title>H</title>
<ellipse fill="none" stroke="#000000" cx="154.8303" cy="-288" rx="18.0157" ry="18.0157"/>
<text text-anchor="middle" x="154.8303" y="-283.8" font-family="Times,serif" font-size="14.00" fill="#000000">H</text>
</g>
<!-- G&#45;&gt;H -->
<g id="edge13" class="edge">
<title>G-&gt;H</title>
<path fill="none" stroke="#000000" d="M76.7066,-288C90.684,-288 110.2886,-288 126.3619,-288"/>
<polygon fill="#000000" stroke="#000000" points="126.8128,-291.5001 136.8128,-288 126.8127,-284.5001 126.8128,-291.5001"/>
<text text-anchor="middle" x="104.723" y="-292.2" font-family="Times,serif" font-size="14.00" fill="#000000">a, b</text>
</g>
<!-- I -->
<g id="node4" class="node">
<title>I</title>
<ellipse fill="none" stroke="#000000" cx="255.0449" cy="-288" rx="18" ry="18"/>
<text text-anchor="middle" x="255.0449" y="-283.8" font-family="Times,serif" font-size="14.00" fill="#000000">I</text>
</g>
<!-- H&#45;&gt;I -->
<g id="edge14" class="edge">
<title>H-&gt;I</title>
<path fill="none" stroke="#000000" d="M173.2112,-288C188.1853,-288 209.5811,-288 226.7397,-288"/>
<polygon fill="#000000" stroke="#000000" points="226.7806,-291.5001 236.7805,-288 226.7805,-284.5001 226.7806,-291.5001"/>
<text text-anchor="middle" x="204.9376" y="-292.2" font-family="Times,serif" font-size="14.00" fill="#000000">a, b</text>
</g>
<!-- J -->
<g id="node11" class="node">
<title>J</title>
<ellipse fill="none" stroke="#000000" cx="355.2595" cy="-288" rx="18" ry="18"/>
<ellipse fill="none" stroke="#000000" cx="355.2595" cy="-288" rx="22" ry="22"/>
<text text-anchor="middle" x="355.2595" y="-283.8" font-family="Times,serif" font-size="14.00" fill="#000000">J</text>
</g>
<!-- I&#45;&gt;J -->
<g id="edge15" class="edge">
<title>I-&gt;J</title>
<path fill="none" stroke="#000000" d="M273.4258,-288C287.2389,-288 306.5164,-288 322.8917,-288"/>
<polygon fill="#000000" stroke="#000000" points="323.1468,-291.5001 333.1468,-288 323.1468,-284.5001 323.1468,-291.5001"/>
<text text-anchor="middle" x="305.1522" y="-292.2" font-family="Times,serif" font-size="14.00" fill="#000000">a, b</text>
</g>
<!-- K -->
<g id="node5" class="node">
<title>K</title>
<ellipse fill="none" stroke="#000000" cx="455.482" cy="-276" rx="18.0157" ry="18.0157"/>
<text text-anchor="middle" x="455.482" y="-271.8" font-family="Times,serif" font-size="14.00" fill="#000000">K</text>
</g>
<!-- K&#45;&gt;J -->
<g id="edge17" class="edge">
<title>K-&gt;J</title>
<path fill="none" stroke="#000000" d="M439.516,-266.9008C427.3106,-261.1265 410.1124,-255.5455 395.2595,-260.2 390.1452,-261.8027 385.1116,-264.3156 380.4323,-267.1898"/>
<polygon fill="#000000" stroke="#000000" points="378.2058,-264.4729 371.9423,-273.018 382.1675,-270.244 378.2058,-264.4729"/>
<text text-anchor="middle" x="405.3668" y="-265.2" font-family="Times,serif" font-size="14.00" fill="#000000">a, b</text>
</g>
<!-- C -->
<g id="node7" class="node">
<title>C</title>
<ellipse fill="none" stroke="#000000" cx="255.0449" cy="-112" rx="18" ry="18"/>
<ellipse fill="none" stroke="#000000" cx="255.0449" cy="-112" rx="22" ry="22"/>
<text text-anchor="middle" x="255.0449" y="-107.8" font-family="Times,serif" font-size="14.00" fill="#000000">C</text>
</g>
<!-- B&#45;&gt;C -->
<g id="edge4" class="edge">
<title>B-&gt;C</title>
<path fill="none" stroke="#000000" d="M172.5643,-146.7192C179.3086,-142.0492 187.2071,-137.0189 194.8303,-133.2 204.0233,-128.5947 214.4613,-124.5431 224.0347,-121.2486"/>
<polygon fill="#000000" stroke="#000000" points="225.2046,-124.5484 233.6096,-118.0981 223.0167,-117.899 225.2046,-124.5484"/>
<text text-anchor="middle" x="204.9376" y="-138.2" font-family="Times,serif" font-size="14.00" fill="#000000">b</text>
</g>
<!-- E -->
<g id="node9" class="node">
<title>E</title>
<ellipse fill="none" stroke="#000000" cx="542.4898" cy="-141" rx="18" ry="18"/>
<ellipse fill="none" stroke="#000000" cx="542.4898" cy="-141" rx="22" ry="22"/>
<text text-anchor="middle" x="542.4898" y="-136.8" font-family="Times,serif" font-size="14.00" fill="#000000">E</text>
</g>
<!-- B&#45;&gt;E -->
<g id="edge3" class="edge">
<title>B-&gt;E</title>
<path fill="none" stroke="#000000" d="M170.6255,-175.8777C189.1566,-192.7435 221.6186,-217 255.0449,-217 255.0449,-217 255.0449,-217 455.482,-217 485.9368,-217 510.8743,-190.2621 526.1252,-168.5049"/>
<polygon fill="#000000" stroke="#000000" points="529.0416,-170.4399 531.6767,-160.178 523.2173,-166.5569 529.0416,-170.4399"/>
<text text-anchor="middle" x="355.2595" y="-221.2" font-family="Times,serif" font-size="14.00" fill="#000000">a</text>
</g>
<!-- C&#45;&gt;A -->
<g id="edge6" class="edge">
<title>C-&gt;A</title>
<path fill="none" stroke="#000000" d="M233.3179,-108.0182C197.4471,-101.4444 125.8861,-88.3297 86.3896,-81.0914"/>
<polygon fill="#000000" stroke="#000000" points="86.8539,-77.6183 76.3868,-79.2583 85.592,-84.5036 86.8539,-77.6183"/>
<text text-anchor="middle" x="154.8303" y="-102.2" font-family="Times,serif" font-size="14.00" fill="#000000">b</text>
</g>
<!-- F -->
<g id="node10" class="node">
<title>F</title>
<ellipse fill="none" stroke="#000000" cx="355.2595" cy="-104" rx="18" ry="18"/>
<ellipse fill="none" stroke="#000000" cx="355.2595" cy="-104" rx="22" ry="22"/>
<text text-anchor="middle" x="355.2595" y="-99.8" font-family="Times,serif" font-size="14.00" fill="#000000">F</text>
</g>
<!-- C&#45;&gt;F -->
<g id="edge5" class="edge">
<title>C-&gt;F</title>
<path fill="none" stroke="#000000" d="M277.2858,-110.2245C290.6494,-109.1577 307.8906,-107.7814 322.7611,-106.5943"/>
<polygon fill="#000000" stroke="#000000" points="323.3911,-110.0552 333.0808,-105.7705 322.834,-103.0774 323.3911,-110.0552"/>
<text text-anchor="middle" x="305.1522" y="-113.2" font-family="Times,serif" font-size="14.00" fill="#000000">a</text>
</g>
<!-- D&#45;&gt;A -->
<g id="edge7" class="edge">
<title>D-&gt;A</title>
<path fill="none" stroke="#000000" d="M433.2008,-55.601C412.8975,-54.4475 382.0764,-53 355.2595,-53 154.8303,-53 154.8303,-53 154.8303,-53 130.8076,-53 104.3127,-59.8652 85.2176,-66.0942"/>
<polygon fill="#000000" stroke="#000000" points="84.0275,-62.8021 75.6963,-69.3474 86.2909,-69.4261 84.0275,-62.8021"/>
<text text-anchor="middle" x="255.0449" y="-57.2" font-family="Times,serif" font-size="14.00" fill="#000000">a</text>
</g>
<!-- D&#45;&gt;E -->
<g id="edge8" class="edge">
<title>D-&gt;E</title>
<path fill="none" stroke="#000000" d="M475.367,-67.6005C484.2024,-72.8378 494.4082,-79.6521 502.4898,-87.2 510.8697,-95.0264 518.7236,-104.7965 525.2154,-113.8553"/>
<polygon fill="#000000" stroke="#000000" points="522.4364,-115.9907 530.9949,-122.236 528.199,-112.0167 522.4364,-115.9907"/>
<text text-anchor="middle" x="498.9898" y="-92.2" font-family="Times,serif" font-size="14.00" fill="#000000">b</text>
</g>
<!-- E&#45;&gt;B -->
<g id="edge9" class="edge">
<title>E-&gt;B</title>
<path fill="none" stroke="#000000" d="M522.1458,-149.5644C504.7622,-156.1036 478.9186,-164 455.482,-164 255.0449,-164 255.0449,-164 255.0449,-164 232.4199,-164 206.9445,-162.9695 187.3411,-161.9546"/>
<polygon fill="#000000" stroke="#000000" points="187.2849,-158.4465 177.1098,-161.399 186.9052,-165.4362 187.2849,-158.4465"/>
<text text-anchor="middle" x="355.2595" y="-168.2" font-family="Times,serif" font-size="14.00" fill="#000000">a</text>
</g>
<!-- E&#45;&gt;F -->
<g id="edge10" class="edge">
<title>E-&gt;F</title>
<path fill="none" stroke="#000000" d="M520.7848,-136.7107C487.8916,-130.2104 425.2272,-117.8268 387.1471,-110.3015"/>
<polygon fill="#000000" stroke="#000000" points="387.5925,-106.8219 377.1036,-108.3168 386.2354,-113.6891 387.5925,-106.8219"/>
<text text-anchor="middle" x="455.482" y="-132.2" font-family="Times,serif" font-size="14.00" fill="#000000">b</text>
</g>
<!-- F&#45;&gt;C -->
<g id="edge11" class="edge">
<title>F-&gt;C</title>
<path fill="none" stroke="#000000" d="M335.9907,-93.1094C324.1657,-87.7955 308.7187,-83.3051 295.0449,-87.2 290.2857,-88.5556 285.5397,-90.6578 281.0669,-93.0775"/>
<polygon fill="#000000" stroke="#000000" points="279.0951,-90.1797 272.353,-98.3525 282.7202,-96.168 279.0951,-90.1797"/>
<text text-anchor="middle" x="305.1522" y="-92.2" font-family="Times,serif" font-size="14.00" fill="#000000">a</text>
</g>
<!-- F&#45;&gt;D -->
<g id="edge12" class="edge">
<title>F-&gt;D</title>
<path fill="none" stroke="#000000" d="M375.541,-94.4888C390.0764,-87.6724 409.8764,-78.387 426.1342,-70.7628"/>
<polygon fill="#000000" stroke="#000000" points="427.6628,-73.9118 435.2306,-66.497 424.6907,-67.5741 427.6628,-73.9118"/>
<text text-anchor="middle" x="405.3668" y="-89.2" font-family="Times,serif" font-size="14.00" fill="#000000">b</text>
</g>
<!-- J&#45;&gt;K -->
<g id="edge16" class="edge">
<title>J-&gt;K</title>
<path fill="none" stroke="#000000" d="M377.5021,-285.3368C392.1211,-283.5864 411.38,-281.2805 427.1004,-279.3982"/>
<polygon fill="#000000" stroke="#000000" points="427.805,-282.839 437.3179,-278.1748 426.9727,-275.8886 427.805,-282.839"/>
<text text-anchor="middle" x="405.3668" y="-288.2" font-family="Times,serif" font-size="14.00" fill="#000000">a, b</text>
</g>
<!-- q -->
<g id="node12" class="node">
<title>q</title>
<ellipse fill="#000000" stroke="#000000" cx="1.8" cy="-76" rx="1.8" ry="1.8"/>
</g>
<!-- q&#45;&gt;A -->
<g id="edge18" class="edge">
<title>q-&gt;A</title>
<path fill="none" stroke="#000000" d="M3.6901,-76C8.0531,-76 19.3131,-76 30.5098,-76"/>
<polygon fill="#000000" stroke="#000000" points="30.575,-79.5001 40.575,-76 30.5749,-72.5001 30.575,-79.5001"/>
</g>
<!-- k -->
<g id="node13" class="node">
<title>k</title>
<ellipse fill="#000000" stroke="#000000" cx="1.8" cy="-288" rx="1.8" ry="1.8"/>
</g>
<!-- k&#45;&gt;G -->
<g id="edge19" class="edge">
<title>k-&gt;G</title>
<path fill="none" stroke="#000000" d="M3.6901,-288C8.0531,-288 19.3131,-288 30.5098,-288"/>
<polygon fill="#000000" stroke="#000000" points="30.575,-291.5001 40.575,-288 30.5749,-284.5001 30.575,-291.5001"/>
</g>
</g>
</svg>