<?xml version="1.0" encoding="UTF-8" standalone="no"?><!DOCTYPE svg PUBLIC "-//W3C//DTD SVG 1.1//EN" "http://www.w3.org/Graphics/SVG/1.1/DTD/svg11.dtd"><!-- Generated by graphviz version 2.40.1 (20161225.0304)
 --><!-- Title: state_machine Pages: 1 --><svg xmlns="http://www.w3.org/2000/svg" xmlns:xlink="http://www.w3.org/1999/xlink" width="593pt" height="250pt" viewBox="0.00 0.00 592.97 249.80">
<g id="graph0" class="graph" transform="scale(1 1) rotate(0) translate(4 245.8)">
<title>state_machine</title>
<polygon fill="#ffffff" stroke="transparent" points="-4,4 -4,-245.8 588.9661,-245.8 588.9661,4 -4,4"/>
<!-- AC -->
<g id="node1" class="node">
<title>AC</title>
<ellipse fill="none" stroke="#000000" cx="65.0481" cy="-77" rx="24.3963" ry="24.3963"/>
<text text-anchor="middle" x="65.0481" y="-72.8" font-family="Times,serif" font-size="14.00" fill="#000000">AC</text>
</g>
<!-- AD -->
<g id="node2" class="node">
<title>AD</title>
<ellipse fill="none" stroke="#000000" cx="161.4754" cy="-169" rx="24.9613" ry="24.9613"/>
<ellipse fill="none" stroke="#000000" cx="161.4754" cy="-169" rx="28.9584" ry="28.9584"/>
<text text-anchor="middle" x="161.4754" y="-164.8" font-family="Times,serif" font-size="14.00" fill="#000000">AD</text>
</g>
<!-- AC&#45;&gt;AD -->
<g id="edge2" class="edge">
<title>AC-&gt;AD</title>
<path fill="none" stroke="#000000" d="M83.1853,-94.3045C97.1567,-107.6345 116.7385,-126.3171 132.8227,-141.6629"/>
<polygon fill="#000000" stroke="#000000" points="130.7465,-144.5194 140.3978,-148.8902 135.5786,-139.4548 130.7465,-144.5194"/>
<text text-anchor="middle" x="110.9961" y="-127.2" font-family="Times,serif" font-size="14.00" fill="#000000">b</text>
</g>
<!-- BC -->
<g id="node4" class="node">
<title>BC</title>
<ellipse fill="none" stroke="#000000" cx="457.153" cy="-60" rx="23.846" ry="23.846"/>
<ellipse fill="none" stroke="#000000" cx="457.153" cy="-60" rx="27.8341" ry="27.8341"/>
<text text-anchor="middle" x="457.153" y="-55.8" font-family="Times,serif" font-size="14.00" fill="#000000">BC</text>
</g>
<!-- AC&#45;&gt;BC -->
<g id="edge1" class="edge">
<title>AC-&gt;BC</title>
<path fill="none" stroke="#000000" d="M78.3443,-56.3654C94.8433,-33.5571 125.2699,0 161.4754,0 161.4754,0 161.4754,0 358.8599,0 385.7331,0 411.4841,-16.541 429.883,-32.2531"/>
<polygon fill="#000000" stroke="#000000" points="428.0156,-35.2797 437.7968,-39.3514 432.6896,-30.0688 428.0156,-35.2797"/>
<text text-anchor="middle" x="261.3618" y="-4.2" font-family="Times,serif" font-size="14.00" fill="#000000">a</text>
</g>
<!-- AE -->
<g id="node3" class="node">
<title>AE</title>
<ellipse fill="none" stroke="#000000" cx="261.3618" cy="-116" rx="23.8281" ry="23.8281"/>
<ellipse fill="none" stroke="#000000" cx="261.3618" cy="-116" rx="27.8149" ry="27.8149"/>
<text text-anchor="middle" x="261.3618" y="-111.8" font-family="Times,serif" font-size="14.00" fill="#000000">AE</text>
</g>
<!-- AD&#45;&gt;AE -->
<g id="edge4" class="edge">
<title>AD-&gt;AE</title>
<path fill="none" stroke="#000000" d="M186.5947,-153.5731C193.5989,-149.4262 201.261,-145.0316 208.4546,-141.2 214.2296,-138.124 220.4421,-135.003 226.5077,-132.0539"/>
<polygon fill="#000000" stroke="#000000" points="228.3242,-135.0649 235.8347,-127.5921 225.3033,-128.7502 228.3242,-135.0649"/>
<text text-anchor="middle" x="211.9546" y="-145.2" font-family="Times,serif" font-size="14.00" fill="#000000">b</text>
</g>
<!-- BD -->
<g id="node5" class="node">
<title>BD</title>
<ellipse fill="none" stroke="#000000" cx="556.518" cy="-151" rx="24.4035" ry="24.4035"/>
<ellipse fill="none" stroke="#000000" cx="556.518" cy="-151" rx="28.3962" ry="28.3962"/>
<text text-anchor="middle" x="556.518" y="-146.8" font-family="Times,serif" font-size="14.00" fill="#000000">BD</text>
</g>
<!-- AD&#45;&gt;BD -->
<g id="edge3" class="edge">
<title>AD-&gt;BD</title>
<path fill="none" stroke="#000000" d="M182.5748,-189.2173C201.5952,-205.2578 231.143,-225 261.3618,-225 261.3618,-225 261.3618,-225 457.153,-225 487.6691,-225 514.8798,-202.2719 533.0763,-182.0075"/>
<polygon fill="#000000" stroke="#000000" points="535.7374,-184.2809 539.5969,-174.4141 530.4267,-179.7205 535.7374,-184.2809"/>
<text text-anchor="middle" x="358.8599" y="-229.2" font-family="Times,serif" font-size="14.00" fill="#000000">a</text>
</g>
<!-- AE&#45;&gt;AC -->
<g id="edge6" class="edge">
<title>AE-&gt;AC</title>
<path fill="none" stroke="#000000" d="M233.9361,-110.5516C198.6933,-103.5502 137.5082,-91.3951 99.2593,-83.7965"/>
<polygon fill="#000000" stroke="#000000" points="99.6103,-80.2979 89.12,-81.7822 98.2463,-87.1637 99.6103,-80.2979"/>
<text text-anchor="middle" x="161.4754" y="-106.2" font-family="Times,serif" font-size="14.00" fill="#000000">b</text>
</g>
<!-- BE -->
<g id="node6" class="node">
<title>BE</title>
<ellipse fill="none" stroke="#000000" cx="358.8599" cy="-109" rx="23.2709" ry="23.2709"/>
<ellipse fill="none" stroke="#000000" cx="358.8599" cy="-109" rx="27.2529" ry="27.2529"/>
<text text-anchor="middle" x="358.8599" y="-104.8" font-family="Times,serif" font-size="14.00" fill="#000000">BE</text>
</g>
<!-- AE&#45;&gt;BE -->
<g id="edge5" class="edge">
<title>AE-&gt;BE</title>
<path fill="none" stroke="#000000" d="M289.3009,-113.9941C299.1763,-113.2851 310.4544,-112.4753 321.0133,-111.7172"/>
<polygon fill="#000000" stroke="#000000" points="321.5302,-115.1892 331.2539,-110.982 321.0289,-108.2072 321.5302,-115.1892"/>
<text text-anchor="middle" x="310.3764" y="-117.2" font-family="Times,serif" font-size="14.00" fill="#000000">a</text>
</g>
<!-- BC&#45;&gt;AC -->
<g id="edge7" class="edge">
<title>BC-&gt;AC</title>
<path fill="none" stroke="#000000" d="M429.2275,-56.9501C409.5747,-55.0637 382.64,-53 358.8599,-53 161.4754,-53 161.4754,-53 161.4754,-53 139.7869,-53 116.1451,-58.788 97.6992,-64.6792"/>
<polygon fill="#000000" stroke="#000000" points="96.3964,-61.4246 88.0313,-67.9266 98.6253,-68.0603 96.3964,-61.4246"/>
<text text-anchor="middle" x="261.3618" y="-57.2" font-family="Times,serif" font-size="14.00" fill="#000000">a</text>
</g>
<!-- BC&#45;&gt;BD -->
<g id="edge8" class="edge">
<title>BC-&gt;BD</title>
<path fill="none" stroke="#000000" d="M482.0533,-73.2848C491.3297,-78.8177 501.6431,-85.7027 510.0699,-93.2 518.6853,-100.8651 526.9585,-110.243 534.0742,-119.1965"/>
<polygon fill="#000000" stroke="#000000" points="531.3888,-121.4461 540.2601,-127.2385 536.9373,-117.1781 531.3888,-121.4461"/>
<text text-anchor="middle" x="506.5699" y="-98.2" font-family="Times,serif" font-size="14.00" fill="#000000">b</text>
</g>
<!-- BD&#45;&gt;AD -->
<g id="edge9" class="edge">
<title>BD-&gt;AD</title>
<path fill="none" stroke="#000000" d="M529.4289,-159.9059C509.6324,-165.6294 482.014,-172 457.153,-172 261.3618,-172 261.3618,-172 261.3618,-172 241.4001,-172 219.2044,-171.394 200.8153,-170.7267"/>
<polygon fill="#000000" stroke="#000000" points="200.8786,-167.2267 190.7522,-170.3421 200.6112,-174.2216 200.8786,-167.2267"/>
<text text-anchor="middle" x="358.8599" y="-176.2" font-family="Times,serif" font-size="14.00" fill="#000000">a</text>
</g>
<!-- BD&#45;&gt;BE -->
<g id="edge10" class="edge">
<title>BD-&gt;BE</title>
<path fill="none" stroke="#000000" d="M528.5016,-145.0468C493.8371,-137.6811 434.6945,-125.1139 396.201,-116.9345"/>
<polygon fill="#000000" stroke="#000000" points="396.4381,-113.4068 385.9289,-114.7519 394.9831,-120.254 396.4381,-113.4068"/>
<text text-anchor="middle" x="457.153" y="-139.2" font-family="Times,serif" font-size="14.00" fill="#000000">b</text>
</g>
<!-- BE&#45;&gt;AE -->
<g id="edge11" class="edge">
<title>BE-&gt;AE</title>
<path fill="none" stroke="#000000" d="M334.9304,-95.4021C326.2947,-92.0442 316.4207,-89.9688 307.2691,-92.2 303.0499,-93.2287 298.786,-94.7185 294.6449,-96.4583"/>
<polygon fill="#000000" stroke="#000000" points="292.8362,-93.4415 285.2844,-100.8725 295.822,-99.7729 292.8362,-93.4415"/>
<text text-anchor="middle" x="310.3764" y="-97.2" font-family="Times,serif" font-size="14.00" fill="#000000">a</text>
</g>
<!-- BE&#45;&gt;BC -->
<g id="edge12" class="edge">
<title>BE-&gt;BC</title>
<path fill="none" stroke="#000000" d="M383.4098,-96.7616C395.3066,-90.831 409.7941,-83.6088 422.7686,-77.1409"/>
<polygon fill="#000000" stroke="#000000" points="424.5019,-80.1877 431.8899,-72.5939 421.3788,-73.923 424.5019,-80.1877"/>
<text text-anchor="middle" x="407.736" y="-90.2" font-family="Times,serif" font-size="14.00" fill="#000000">b</text>
</g>
<!-- q -->
<g id="node7" class="node">
<title>q</title>
<ellipse fill="#000000" stroke="#000000" cx="1.8" cy="-77" rx="1.8" ry="1.8"/>
</g>
<!-- q&#45;&gt;AC -->
<g id="edge13" class="edge">
<title>q-&gt;AC</title>
<path fill="none" stroke="#000000" d="M3.6247,-77C7.8543,-77 18.8519,-77 30.3928,-77"/>
<polygon fill="#000000" stroke="#000000" points="30.5184,-80.5001 40.5183,-77 30.5183,-73.5001 30.5184,-80.5001"/>
</g>
</g>
</svg>