<?xml version="1.0" encoding="UTF-8" standalone="no"?><!DOCTYPE svg PUBLIC "-//W3C//DTD SVG 1.1//EN" "http://www.w3.org/Graphics/SVG/1.1/DTD/svg11.dtd"><!-- Generated by graphviz version 2.40.1 (20161225.0304)
 --><!-- Title: state_machine Pages: 1 --><svg xmlns="http://www.w3.org/2000/svg" xmlns:xlink="http://www.w3.org/1999/xlink" width="377pt" height="121pt" viewBox="0.00 0.00 377.28 121.01">
<g id="graph0" class="graph" transform="scale(1 1) rotate(0) translate(4 117.0079)">
<title>state_machine</title>
<polygon fill="#ffffff" stroke="transparent" points="-4,4 -4,-117.0079 373.2752,-117.0079 373.2752,4 -4,4"/>
<!-- A -->
<g id="node1" class="node">
<title>A</title>
<ellipse fill="none" stroke="#000000" cx="58.6079" cy="-22.0079" rx="18.0157" ry="18.0157"/>
<text text-anchor="middle" x="58.6079" y="-17.8079" font-family="Times,serif" font-size="14.00" fill="#000000">A</text>
</g>
<!-- B -->
<g id="node2" class="node">
<title>B</title>
<ellipse fill="none" stroke="#000000" cx="154.8303" cy="-22.0079" rx="18" ry="18"/>
<text text-anchor="middle" x="154.8303" y="-17.8079" font-family="Times,serif" font-size="14.00" fill="#000000">B</text>
</g>
<!-- A&#45;&gt;B -->
<g id="edge1" class="edge">
<title>A-&gt;B</title>
<path fill="none" stroke="#000000" d="M76.7066,-22.0079C90.684,-22.0079 110.2886,-22.0079 126.3619,-22.0079"/>
<polygon fill="#000000" stroke="#000000" points="126.8128,-25.508 136.8128,-22.0079 126.8127,-18.508 126.8128,-25.508"/>
<text text-anchor="middle" x="104.723" y="-26.2079" font-family="Times,serif" font-size="14.00" fill="#000000">a, b</text>
</g>
<!-- C -->
<g id="node3" class="node">
<title>C</title>
<ellipse fill="none" stroke="#000000" cx="251.0449" cy="-22.0079" rx="18" ry="18"/>
<text text-anchor="middle" x="251.0449" y="-17.8079" font-family="Times,serif" font-size="14.00" fill="#000000">C</text>
</g>
<!-- B&#45;&gt;C -->
<g id="edge2" class="edge">
<title>B-&gt;C</title>
<path fill="none" stroke="#000000" d="M172.9275,-22.0079C186.9039,-22.0079 206.5069,-22.0079 222.5788,-22.0079"/>
<polygon fill="#000000" stroke="#000000" points="223.0289,-25.508 233.0288,-22.0079 223.0288,-18.508 223.0289,-25.508"/>
<text text-anchor="middle" x="204.9376" y="-26.2079" font-family="Times,serif" font-size="14.00" fill="#000000">a, b</text>
</g>
<!-- D -->
<g id="node5" class="node">
<title>D</title>
<ellipse fill="none" stroke="#000000" cx="347.2674" cy="-22.0079" rx="18.0143" ry="18.0143"/>
<ellipse fill="none" stroke="#000000" cx="347.2674" cy="-22.0079" rx="22.0157" ry="22.0157"/>
<text text-anchor="middle" x="347.2674" y="-17.8079" font-family="Times,serif" font-size="14.00" fill="#000000">D</text>
</g>
<!-- C&#45;&gt;D -->
<g id="edge3" class="edge">
<title>C-&gt;D</title>
<path fill="none" stroke="#000000" d="M269.1436,-22.0079C282.0595,-22.0079 299.7802,-22.0079 315.0796,-22.0079"/>
<polygon fill="#000000" stroke="#000000" points="315.1958,-25.508 325.1958,-22.0079 315.1957,-18.508 315.1958,-25.508"/>
<text text-anchor="middle" x="297.1522" y="-26.2079" font-family="Times,serif" font-size="14.00" fill="#000000">a, b</text>
</g>
<!-- E -->
<g id="node4" class="node">
<title>E</title>
<ellipse fill="none" stroke="#000000" cx="58.6079" cy="-92.0079" rx="18" ry="18"/>
<text text-anchor="middle" x="58.6079" y="-87.8079" font-family="Times,serif" font-size="14.00" fill="#000000">E</text>
</g>
<!-- F -->
<g id="node6" class="node">
<title>F</title>
<ellipse fill="none" stroke="#000000" cx="154.8303" cy="-91.0079" rx="18" ry="18"/>
<ellipse fill="none" stroke="#000000" cx="154.8303" cy="-91.0079" rx="22" ry="22"/>
<text text-anchor="middle" x="154.8303" y="-86.8079" font-family="Times,serif" font-size="14.00" fill="#000000">F</text>
</g>
<!-- E&#45;&gt;F -->
<g id="edge6" class="edge">
<title>E-&gt;F</title>
<path fill="none" stroke="#000000" d="M76.7066,-91.8198C89.6225,-91.6855 107.3432,-91.5014 122.6425,-91.3424"/>
<polygon fill="#000000" stroke="#000000" points="122.7957,-94.8411 132.7587,-91.2372 122.7228,-87.8414 122.7957,-94.8411"/>
<text text-anchor="middle" x="104.723" y="-96.2079" font-family="Times,serif" font-size="14.00" fill="#000000">a, b</text>
</g>
<!-- D&#45;&gt;D -->
<g id="edge4" class="edge">
<title>D-&gt;D</title>
<path fill="none" stroke="#000000" d="M338.222,-42.1815C336.8304,-52.6128 339.8455,-62.0157 347.2674,-62.0157 352.138,-62.0157 355.1108,-57.9662 356.1857,-52.2341"/>
<polygon fill="#000000" stroke="#000000" points="359.686,-52.225 356.3128,-42.1815 352.6866,-52.1364 359.686,-52.225"/>
<text text-anchor="middle" x="347.2674" y="-66.2157" font-family="Times,serif" font-size="14.00" fill="#000000">a, b</text>
</g>
<!-- F&#45;&gt;E -->
<g id="edge5" class="edge">
<title>F-&gt;E</title>
<path fill="none" stroke="#000000" d="M136.5643,-78.6238C124.7194,-72.1091 108.8905,-66.2234 94.6157,-70.2079 90.1395,-71.4573 85.6652,-73.4312 81.4681,-75.6926"/>
<polygon fill="#000000" stroke="#000000" points="79.5643,-72.7538 72.8295,-80.9326 83.1947,-78.7388 79.5643,-72.7538"/>
<text text-anchor="middle" x="104.723" y="-75.2079" font-family="Times,serif" font-size="14.00" fill="#000000">a, b</text>
</g>
<!-- q -->
<g id="node7" class="node">
<title>q</title>
<ellipse fill="#000000" stroke="#000000" cx="1.8" cy="-22.0079" rx="1.8" ry="1.8"/>
</g>
<!-- q&#45;&gt;A -->
<g id="edge7" class="edge">
<title>q-&gt;A</title>
<path fill="none" stroke="#000000" d="M3.6901,-22.0079C8.0531,-22.0079 19.3131,-22.0079 30.5098,-22.0079"/>
<polygon fill="#000000" stroke="#000000" points="30.575,-25.508 40.575,-22.0079 30.5749,-18.508 30.575,-25.508"/>
</g>
<!-- R -->
<g id="node8" class="node">
<title>R</title>
<ellipse fill="#000000" stroke="#000000" cx="1.8" cy="-92.0079" rx="1.8" ry="1.8"/>
</g>
<!-- R&#45;&gt;E -->
<g id="edge8" class="edge">
<title>R-&gt;E</title>
<path fill="none" stroke="#000000" d="M3.6901,-92.0079C8.0531,-92.0079 19.3131,-92.0079 30.5098,-92.0079"/>
<polygon fill="#000000" stroke="#000000" points="30.575,-95.508 40.575,-92.0079 30.5749,-88.508 30.575,-95.508"/>
</g>
</g>
</svg>