<?xml version="1.0" encoding="UTF-8" standalone="no"?><!DOCTYPE svg PUBLIC "-//W3C//DTD SVG 1.1//EN" "http://www.w3.org/Graphics/SVG/1.1/DTD/svg11.dtd"><!-- Generated by graphviz version 2.40.1 (20161225.0304)
 --><!-- Title: state_machine Pages: 1 --><svg xmlns="http://www.w3.org/2000/svg" xmlns:xlink="http://www.w3.org/1999/xlink" width="563pt" height="199pt" viewBox="0.00 0.00 562.76 198.99">
<g id="graph0" class="graph" transform="scale(1 1) rotate(0) translate(4 194.9886)">
<title>state_machine</title>
<polygon fill="#ffffff" stroke="transparent" points="-4,4 -4,-194.9886 558.7648,-194.9886 558.7648,4 -4,4"/>
<!-- q0 -->
<g id="node1" class="node">
<title>q0</title>
<ellipse fill="none" stroke="#000000" cx="61.2935" cy="-95.4943" rx="20.8887" ry="20.8887"/>
<text text-anchor="middle" x="61.2935" y="-91.2943" font-family="Times,serif" font-size="14.00" fill="#000000">q0</text>
</g>
<!-- (q5, q7), (q1, q7), q5 -->
<g id="node4" class="node">
<title>(q5, q7), (q1, q7), q5</title>
<ellipse fill="none" stroke="#000000" cx="219.6958" cy="-95.4943" rx="91.4889" ry="91.4889"/>
<ellipse fill="none" stroke="#000000" cx="219.6958" cy="-95.4943" rx="95.4886" ry="95.4886"/>
<text text-anchor="middle" x="219.6958" y="-91.2943" font-family="Times,serif" font-size="14.00" fill="#000000">(q5, q7), (q1, q7), q5</text>
</g>
<!-- q0&#45;&gt;(q5, q7), (q1, q7), q5 -->
<g id="edge1" class="edge">
<title>q0-&gt;(q5, q7), (q1, q7), q5</title>
<path fill="none" stroke="#000000" d="M82.0018,-95.4943C90.8465,-95.4943 101.8901,-95.4943 113.8514,-95.4943"/>
<polygon fill="#000000" stroke="#000000" points="114.0867,-98.9944 124.0867,-95.4943 114.0866,-91.9944 114.0867,-98.9944"/>
<text text-anchor="middle" x="103.0942" y="-99.6943" font-family="Times,serif" font-size="14.00" fill="#000000">a</text>
</g>
<!-- q3 -->
<g id="node2" class="node">
<title>q3</title>
<ellipse fill="none" stroke="#000000" cx="534.0713" cy="-95.4943" rx="20.8887" ry="20.8887"/>
<text text-anchor="middle" x="534.0713" y="-91.2943" font-family="Times,serif" font-size="14.00" fill="#000000">q3</text>
</g>
<!-- (q2, q6), q4 -->
<g id="node3" class="node">
<title>(q2, q6), q4</title>
<ellipse fill="none" stroke="#000000" cx="414.284" cy="-95.4943" rx="56.1879" ry="56.1879"/>
<text text-anchor="middle" x="414.284" y="-91.2943" font-family="Times,serif" font-size="14.00" fill="#000000">(q2, q6), q4</text>
</g>
<!-- q3&#45;&gt;(q2, q6), q4 -->
<g id="edge5" class="edge">
<title>q3-&gt;(q2, q6), q4</title>
<path fill="none" stroke="#000000" d="M516.7169,-83.8104C510.2958,-80.1373 502.7738,-76.5562 495.3779,-74.6943 489.2731,-73.1575 482.9127,-72.736 476.558,-73.0966"/>
<polygon fill="#000000" stroke="#000000" points="476.1401,-69.6215 466.6142,-74.259 476.9529,-76.5742 476.1401,-69.6215"/>
<text text-anchor="middle" x="491.8779" y="-79.6943" font-family="Times,serif" font-size="14.00" fill="#000000">b</text>
</g>
<!-- (q2, q6), q4&#45;&gt;q3 -->
<g id="edge4" class="edge">
<title>(q2, q6), q4-&gt;q3</title>
<path fill="none" stroke="#000000" d="M470.6701,-95.4943C481.8109,-95.4943 493.1141,-95.4943 503.0308,-95.4943"/>
<polygon fill="#000000" stroke="#000000" points="503.1739,-98.9944 513.1739,-95.4943 503.1738,-91.9944 503.1739,-98.9944"/>
<text text-anchor="middle" x="491.8779" y="-99.6943" font-family="Times,serif" font-size="14.00" fill="#000000">a</text>
</g>
<!-- (q5, q7), (q1, q7), q5&#45;&gt;(q2, q6), q4 -->
<g id="edge2" class="edge">
<title>(q5, q7), (q1, q7), q5-&gt;(q2, q6), q4</title>
<path fill="none" stroke="#000000" d="M315.2797,-95.4943C326.2367,-95.4943 337.2227,-95.4943 347.6814,-95.4943"/>
<polygon fill="#000000" stroke="#000000" points="347.9439,-98.9944 357.9439,-95.4943 347.9439,-91.9944 347.9439,-98.9944"/>
<text text-anchor="middle" x="336.6901" y="-99.6943" font-family="Times,serif" font-size="14.00" fill="#000000">a</text>
</g>
<!-- (q5, q7), (q1, q7), q5&#45;&gt;(q2, q6), q4 -->
<g id="edge3" class="edge">
<title>(q5, q7), (q1, q7), q5-&gt;(q2, q6), q4</title>
<path fill="none" stroke="#000000" d="M323.1065,-73.466C328.8799,-73.5394 334.604,-73.9251 340.1901,-74.6943 346.8081,-75.6056 353.6673,-76.9544 360.4212,-78.535"/>
<polygon fill="#000000" stroke="#000000" points="322.615,-69.9743 312.6804,-73.6557 322.7424,-76.9731 322.615,-69.9743"/>
<text text-anchor="middle" x="336.6901" y="-79.6943" font-family="Times,serif" font-size="14.00" fill="#000000">b</text>
</g>
<!-- q -->
<g id="node5" class="node">
<title>q</title>
<ellipse fill="#000000" stroke="#000000" cx="1.8" cy="-95.4943" rx="1.8" ry="1.8"/>
</g>
<!-- q&#45;&gt;q0 -->
<g id="edge6" class="edge">
<title>q-&gt;q0</title>
<path fill="none" stroke="#000000" d="M3.7795,-95.4943C8.1326,-95.4943 19.0417,-95.4943 30.2036,-95.4943"/>
<polygon fill="#000000" stroke="#000000" points="30.3445,-98.9944 40.3444,-95.4943 30.3444,-91.9944 30.3445,-98.9944"/>
</g>
</g>
</svg>