<?xml version="1.0" encoding="UTF-8" standalone="no"?><!DOCTYPE svg PUBLIC "-//W3C//DTD SVG 1.1//EN" "http://www.w3.org/Graphics/SVG/1.1/DTD/svg11.dtd"><!-- Generated by graphviz version 2.40.1 (20161225.0304)
 --><!-- Title: state_machine Pages: 1 --><svg xmlns="http://www.w3.org/2000/svg" xmlns:xlink="http://www.w3.org/1999/xlink" width="498pt" height="260pt" viewBox="0.00 0.00 497.83 260.16">
<g id="graph0" class="graph" transform="scale(1 1) rotate(0) translate(4 256.1577)">
<title>state_machine</title>
<polygon fill="#ffffff" stroke="transparent" points="-4,4 -4,-256.1577 493.831,-256.1577 493.831,4 -4,4"/>
<!-- q1 -->
<g id="node1" class="node">
<title>q1</title>
<ellipse fill="none" stroke="#000000" cx="287.1089" cy="-20.6935" rx="20.8887" ry="20.8887"/>
<text text-anchor="middle" x="287.1089" y="-16.4935" font-family="Times,serif" font-size="14.00" fill="#000000">q1</text>
</g>
<!-- q2 -->
<g id="node2" class="node">
<title>q2</title>
<ellipse fill="none" stroke="#000000" cx="436.1667" cy="-60.6935" rx="20.8887" ry="20.8887"/>
<text text-anchor="middle" x="436.1667" y="-56.4935" font-family="Times,serif" font-size="14.00" fill="#000000">q2</text>
</g>
<!-- q1&#45;&gt;q2 -->
<g id="edge3" class="edge">
<title>q1-&gt;q2</title>
<path fill="none" stroke="#000000" d="M306.8541,-27.284C317.8238,-30.8507 331.7502,-35.2236 344.2878,-38.6935 364.638,-44.3255 387.7553,-49.8565 405.7106,-53.9638"/>
<polygon fill="#000000" stroke="#000000" points="405.1001,-57.4141 415.626,-56.2077 406.6451,-50.5868 405.1001,-57.4141"/>
<text text-anchor="middle" x="354.3951" y="-48.8935" font-family="Times,serif" font-size="14.00" fill="#000000">a, b</text>
</g>
<!-- q2&#45;&gt;q1 -->
<g id="edge4" class="edge">
<title>q2-&gt;q1</title>
<path fill="none" stroke="#000000" d="M419.9825,-47.5223C406.1795,-37.1928 385.3174,-23.636 364.5024,-17.8935 349.3796,-13.7213 331.9648,-13.934 317.4888,-15.4011"/>
<polygon fill="#000000" stroke="#000000" points="317.0299,-11.9312 307.5422,-16.6464 317.8996,-18.8769 317.0299,-11.9312"/>
<text text-anchor="middle" x="354.3951" y="-22.8935" font-family="Times,serif" font-size="14.00" fill="#000000">b</text>
</g>
<!-- q1, q2 -->
<g id="node3" class="node">
<title>q1, q2</title>
<ellipse fill="none" stroke="#000000" cx="35.1789" cy="-163.6935" rx="35.3587" ry="35.3587"/>
<text text-anchor="middle" x="35.1789" y="-159.4935" font-family="Times,serif" font-size="14.00" fill="#000000">q1, q2</text>
</g>
<!-- q1, q2&#45;&gt;q2 -->
<g id="edge8" class="edge">
<title>q1, q2-&gt;q2</title>
<path fill="none" stroke="#000000" d="M63.5046,-142.6535C77.7824,-133.0237 95.7668,-122.3086 113.3577,-115.6935 166.8824,-95.5652 335.6289,-73.1076 405.4542,-64.4114"/>
<polygon fill="#000000" stroke="#000000" points="405.9012,-67.8829 415.3966,-63.1831 405.0429,-60.9357 405.9012,-67.8829"/>
<text text-anchor="middle" x="219.8228" y="-97.8935" font-family="Times,serif" font-size="14.00" fill="#000000">a</text>
</g>
<!-- q0, q2 -->
<g id="node7" class="node">
<title>q0, q2</title>
<ellipse fill="none" stroke="#000000" cx="152.5366" cy="-163.6935" rx="35.3402" ry="35.3402"/>
<ellipse fill="none" stroke="#000000" cx="152.5366" cy="-163.6935" rx="39.3586" ry="39.3586"/>
<text text-anchor="middle" x="152.5366" y="-159.4935" font-family="Times,serif" font-size="14.00" fill="#000000">q0, q2</text>
</g>
<!-- q1, q2&#45;&gt;q0, q2 -->
<g id="edge7" class="edge">
<title>q1, q2-&gt;q0, q2</title>
<path fill="none" stroke="#000000" d="M70.3901,-163.6935C80.623,-163.6935 91.996,-163.6935 102.9374,-163.6935"/>
<polygon fill="#000000" stroke="#000000" points="103.244,-167.1935 113.244,-163.6935 103.244,-160.1935 103.244,-167.1935"/>
<text text-anchor="middle" x="91.8577" y="-167.8935" font-family="Times,serif" font-size="14.00" fill="#000000">b</text>
</g>
<!-- q0 -->
<g id="node4" class="node">
<title>q0</title>
<ellipse fill="none" stroke="#000000" cx="152.5366" cy="-30.6935" rx="20.8568" ry="20.8568"/>
<ellipse fill="none" stroke="#000000" cx="152.5366" cy="-30.6935" rx="24.8884" ry="24.8884"/>
<text text-anchor="middle" x="152.5366" y="-26.4935" font-family="Times,serif" font-size="14.00" fill="#000000">q0</text>
</g>
<!-- q0&#45;&gt;q1 -->
<g id="edge1" class="edge">
<title>q0-&gt;q1</title>
<path fill="none" stroke="#000000" d="M176.5432,-24.0842C186.6927,-21.6133 198.6945,-19.1119 209.7155,-17.8935 224.9439,-16.2098 241.9498,-16.5798 256.1335,-17.5088"/>
<polygon fill="#000000" stroke="#000000" points="256.1122,-21.0176 266.3535,-18.3034 256.6549,-14.0387 256.1122,-21.0176"/>
<text text-anchor="middle" x="219.8228" y="-22.8935" font-family="Times,serif" font-size="14.00" fill="#000000">b</text>
</g>
<!-- q0, q1 -->
<g id="node5" class="node">
<title>q0, q1</title>
<ellipse fill="none" stroke="#000000" cx="287.1089" cy="-163.6935" rx="35.3402" ry="35.3402"/>
<ellipse fill="none" stroke="#000000" cx="287.1089" cy="-163.6935" rx="39.3586" ry="39.3586"/>
<text text-anchor="middle" x="287.1089" y="-159.4935" font-family="Times,serif" font-size="14.00" fill="#000000">q0, q1</text>
</g>
<!-- q0&#45;&gt;q0, q1 -->
<g id="edge2" class="edge">
<title>q0-&gt;q0, q1</title>
<path fill="none" stroke="#000000" d="M177.1802,-34.5692C193.6605,-38.2254 214.9823,-45.1324 229.9301,-57.8935 248.2447,-73.5288 261.6628,-96.5508 270.8789,-117.13"/>
<polygon fill="#000000" stroke="#000000" points="267.6798,-118.5509 274.8202,-126.3781 274.1194,-115.8065 267.6798,-118.5509"/>
<text text-anchor="middle" x="219.8228" y="-62.8935" font-family="Times,serif" font-size="14.00" fill="#000000">a</text>
</g>
<!-- q0, q1&#45;&gt;q1, q2 -->
<g id="edge6" class="edge">
<title>q0, q1-&gt;q1, q2</title>
<path fill="none" stroke="#000000" d="M254.1497,-185.0853C236.4189,-195.3226 213.7223,-206.4688 191.7155,-211.6935 157.8316,-219.7378 146.8718,-221.1609 113.3577,-211.6935 98.5385,-207.5071 83.7613,-199.636 71.1084,-191.4607"/>
<polygon fill="#000000" stroke="#000000" points="72.9602,-188.4879 62.7136,-185.7937 69.0436,-194.2897 72.9602,-188.4879"/>
<text text-anchor="middle" x="152.5366" y="-222.8935" font-family="Times,serif" font-size="14.00" fill="#000000">b</text>
</g>
<!-- q0, q1, q2 -->
<g id="node6" class="node">
<title>q0, q1, q2</title>
<ellipse fill="none" stroke="#000000" cx="436.1667" cy="-163.6935" rx="49.8168" ry="49.8168"/>
<ellipse fill="none" stroke="#000000" cx="436.1667" cy="-163.6935" rx="53.8291" ry="53.8291"/>
<text text-anchor="middle" x="436.1667" y="-159.4935" font-family="Times,serif" font-size="14.00" fill="#000000">q0, q1, q2</text>
</g>
<!-- q0, q1&#45;&gt;q0, q1, q2 -->
<g id="edge5" class="edge">
<title>q0, q1-&gt;q0, q1, q2</title>
<path fill="none" stroke="#000000" d="M326.6624,-163.6935C340.671,-163.6935 356.8116,-163.6935 372.3219,-163.6935"/>
<polygon fill="#000000" stroke="#000000" points="372.3946,-167.1936 382.3946,-163.6935 372.3945,-160.1936 372.3946,-167.1936"/>
<text text-anchor="middle" x="354.3951" y="-167.8935" font-family="Times,serif" font-size="14.00" fill="#000000">a</text>
</g>
<!-- q0, q1, q2&#45;&gt;q0, q1, q2 -->
<g id="edge10" class="edge">
<title>q0, q1, q2-&gt;q0, q1, q2</title>
<path fill="none" stroke="#000000" d="M421.5705,-215.5513C422.9419,-227.0113 427.8073,-235.3577 436.1667,-235.3577 441.7832,-235.3577 445.8224,-231.59 448.2844,-225.6417"/>
<polygon fill="#000000" stroke="#000000" points="451.7764,-226.0976 450.763,-215.5513 444.9785,-224.4277 451.7764,-226.0976"/>
<text text-anchor="middle" x="436.1667" y="-239.5577" font-family="Times,serif" font-size="14.00" fill="#000000">a, b</text>
</g>
<!-- q0, q2&#45;&gt;q0, q1 -->
<g id="edge9" class="edge">
<title>q0, q2-&gt;q0, q1</title>
<path fill="none" stroke="#000000" d="M191.8223,-163.6935C206.0679,-163.6935 222.3515,-163.6935 237.379,-163.6935"/>
<polygon fill="#000000" stroke="#000000" points="237.5415,-167.1936 247.5415,-163.6935 237.5414,-160.1936 237.5415,-167.1936"/>
<text text-anchor="middle" x="219.8228" y="-167.8935" font-family="Times,serif" font-size="14.00" fill="#000000">a, b</text>
</g>
<!-- q -->
<g id="node8" class="node">
<title>q</title>
<ellipse fill="#000000" stroke="#000000" cx="35.1789" cy="-30.6935" rx="1.8" ry="1.8"/>
</g>
<!-- q&#45;&gt;q0 -->
<g id="edge11" class="edge">
<title>q-&gt;q0</title>
<path fill="none" stroke="#000000" d="M37.2158,-30.6935C46.6636,-30.6935 87.0414,-30.6935 117.3738,-30.6935"/>
<polygon fill="#000000" stroke="#000000" points="117.6167,-34.1936 127.6166,-30.6935 117.6166,-27.1936 117.6167,-34.1936"/>
</g>
</g>
</svg>