<?xml version="1.0" encoding="UTF-8" standalone="no"?><!DOCTYPE svg PUBLIC "-//W3C//DTD SVG 1.1//EN" "http://www.w3.org/Graphics/SVG/1.1/DTD/svg11.dtd"><!-- Generated by graphviz version 2.40.1 (20161225.0304)
 --><!-- Title: state_machine Pages: 1 --><svg xmlns="http://www.w3.org/2000/svg" xmlns:xlink="http://www.w3.org/1999/xlink" width="532pt" height="151pt" viewBox="0.00 0.00 532.19 150.84">
<g id="graph0" class="graph" transform="scale(1 1) rotate(0) translate(4 146.8432)">
<title>state_machine</title>
<polygon fill="#ffffff" stroke="transparent" points="-4,4 -4,-146.8432 528.1872,-146.8432 528.1872,4 -4,4"/>
<!-- q0 -->
<g id="node1" class="node">
<title>q0</title>
<ellipse fill="none" stroke="#000000" cx="61.2935" cy="-53.6643" rx="20.8887" ry="20.8887"/>
<text text-anchor="middle" x="61.2935" y="-49.4643" font-family="Times,serif" font-size="14.00" fill="#000000">q0</text>
</g>
<!-- q2, q5, q9 -->
<g id="node3" class="node">
<title>q2, q5, q9</title>
<ellipse fill="none" stroke="#000000" cx="177.8658" cy="-53.6643" rx="49.8168" ry="49.8168"/>
<ellipse fill="none" stroke="#000000" cx="177.8658" cy="-53.6643" rx="53.8291" ry="53.8291"/>
<text text-anchor="middle" x="177.8658" y="-49.4643" font-family="Times,serif" font-size="14.00" fill="#000000">q2, q5, q9</text>
</g>
<!-- q0&#45;&gt;q2, q5, q9 -->
<g id="edge1" class="edge">
<title>q0-&gt;q2, q5, q9</title>
<path fill="none" stroke="#000000" d="M82.1343,-53.6643C91.2515,-53.6643 102.4886,-53.6643 114.0186,-53.6643"/>
<polygon fill="#000000" stroke="#000000" points="114.1806,-57.1644 124.1806,-53.6643 114.1805,-50.1644 114.1806,-57.1644"/>
<text text-anchor="middle" x="103.0942" y="-57.8643" font-family="Times,serif" font-size="14.00" fill="#000000">a</text>
</g>
<!-- q3, q6 -->
<g id="node2" class="node">
<title>q3, q6</title>
<ellipse fill="none" stroke="#000000" cx="309.7089" cy="-107.6643" rx="35.3587" ry="35.3587"/>
<text text-anchor="middle" x="309.7089" y="-103.4643" font-family="Times,serif" font-size="14.00" fill="#000000">q3, q6</text>
</g>
<!-- q7, q2, q5, q9 -->
<g id="node4" class="node">
<title>q7, q2, q5, q9</title>
<ellipse fill="none" stroke="#000000" cx="456.0375" cy="-70.6643" rx="64.2909" ry="64.2909"/>
<ellipse fill="none" stroke="#000000" cx="456.0375" cy="-70.6643" rx="68.2997" ry="68.2997"/>
<text text-anchor="middle" x="456.0375" y="-66.4643" font-family="Times,serif" font-size="14.00" fill="#000000">q7, q2, q5, q9</text>
</g>
<!-- q3, q6&#45;&gt;q7, q2, q5, q9 -->
<g id="edge2" class="edge">
<title>q3, q6-&gt;q7, q2, q5, q9</title>
<path fill="none" stroke="#000000" d="M344.0165,-98.9894C354.8146,-96.2591 367.2034,-93.1265 379.7155,-89.9627"/>
<polygon fill="#000000" stroke="#000000" points="380.9116,-93.2705 389.7485,-87.4258 379.1956,-86.4841 380.9116,-93.2705"/>
<text text-anchor="middle" x="366.3878" y="-96.8643" font-family="Times,serif" font-size="14.00" fill="#000000">a</text>
</g>
<!-- q3, q6&#45;&gt;q7, q2, q5, q9 -->
<g id="edge3" class="edge">
<title>q3, q6-&gt;q7, q2, q5, q9</title>
<path fill="none" stroke="#000000" d="M345.0545,-79.0113C350.7376,-75.674 356.7711,-72.7815 362.8878,-70.8643 370.7579,-68.3975 379.1892,-66.9056 387.6457,-66.0981"/>
<polygon fill="#000000" stroke="#000000" points="342.9676,-76.1921 336.4507,-84.5457 346.7545,-82.0794 342.9676,-76.1921"/>
<text text-anchor="middle" x="366.3878" y="-75.8643" font-family="Times,serif" font-size="14.00" fill="#000000">b</text>
</g>
<!-- q2, q5, q9&#45;&gt;q3, q6 -->
<g id="edge4" class="edge">
<title>q2, q5, q9-&gt;q3, q6</title>
<path fill="none" stroke="#000000" d="M227.71,-74.0794C240.8427,-79.4582 254.882,-85.2084 267.5652,-90.4032"/>
<polygon fill="#000000" stroke="#000000" points="266.3819,-93.7006 276.9623,-94.252 269.035,-87.2229 266.3819,-93.7006"/>
<text text-anchor="middle" x="253.0301" y="-89.8643" font-family="Times,serif" font-size="14.00" fill="#000000">b</text>
</g>
<!-- q7, q2, q5, q9&#45;&gt;q2, q5, q9 -->
<g id="edge5" class="edge">
<title>q7, q2, q5, q9-&gt;q2, q5, q9</title>
<path fill="none" stroke="#000000" d="M389.6959,-54.072C375.0322,-51.0746 359.5081,-48.412 344.8878,-46.8643 313.7915,-43.5723 305.7809,-45.7664 274.5301,-46.8643 263.8459,-47.2396 252.5097,-47.8476 241.5035,-48.5496"/>
<polygon fill="#000000" stroke="#000000" points="241.2612,-45.0579 231.5168,-49.2168 241.7279,-52.0424 241.2612,-45.0579"/>
<text text-anchor="middle" x="309.7089" y="-51.8643" font-family="Times,serif" font-size="14.00" fill="#000000">a</text>
</g>
<!-- q -->
<g id="node5" class="node">
<title>q</title>
<ellipse fill="#000000" stroke="#000000" cx="1.8" cy="-53.6643" rx="1.8" ry="1.8"/>
</g>
<!-- q&#45;&gt;q0 -->
<g id="edge6" class="edge">
<title>q-&gt;q0</title>
<path fill="none" stroke="#000000" d="M3.7795,-53.6643C8.1326,-53.6643 19.0417,-53.6643 30.2036,-53.6643"/>
<polygon fill="#000000" stroke="#000000" points="30.3445,-57.1644 40.3444,-53.6643 30.3444,-50.1644 30.3445,-57.1644"/>
</g>
</g>
</svg>