<?xml version="1.0" encoding="UTF-8" standalone="no"?><!DOCTYPE svg PUBLIC "-//W3C//DTD SVG 1.1//EN" "http://www.w3.org/Graphics/SVG/1.1/DTD/svg11.dtd"><!-- Generated by graphviz version 2.40.1 (20161225.0304)
 --><!-- Title: state_machine Pages: 1 --><svg xmlns="http://www.w3.org/2000/svg" xmlns:xlink="http://www.w3.org/1999/xlink" width="251pt" height="183pt" viewBox="0.00 0.00 250.62 182.80">
<g id="graph0" class="graph" transform="scale(1 1) rotate(0) translate(4 178.8)">
<title>state_machine</title>
<polygon fill="#ffffff" stroke="transparent" points="-4,4 -4,-178.8 246.6157,-178.8 246.6157,4 -4,4"/>
<!-- A -->
<g id="node1" class="node">
<title>A</title>
<ellipse fill="none" stroke="#000000" cx="58.6079" cy="-22" rx="18.0157" ry="18.0157"/>
<text text-anchor="middle" x="58.6079" y="-17.8" font-family="Times,serif" font-size="14.00" fill="#000000">A</text>
</g>
<!-- A&#45;&gt;A -->
<g id="edge7" class="edge">
<title>A-&gt;A</title>
<path fill="none" stroke="#000000" d="M52.2286,-39.041C50.9268,-48.8638 53.0532,-58.0079 58.6079,-58.0079 62.0795,-58.0079 64.212,-54.4359 65.0054,-49.3589"/>
<polygon fill="#000000" stroke="#000000" points="68.5049,-49.0348 64.9871,-39.041 61.5049,-49.0473 68.5049,-49.0348"/>
<text text-anchor="middle" x="58.6079" y="-62.2079" font-family="Times,serif" font-size="14.00" fill="#000000">b</text>
</g>
<!-- B -->
<g id="node2" class="node">
<title>B</title>
<ellipse fill="none" stroke="#000000" cx="137.6157" cy="-22" rx="18" ry="18"/>
<text text-anchor="middle" x="137.6157" y="-17.8" font-family="Times,serif" font-size="14.00" fill="#000000">B</text>
</g>
<!-- A&#45;&gt;B -->
<g id="edge6" class="edge">
<title>A-&gt;B</title>
<path fill="none" stroke="#000000" d="M76.9324,-22C86.5054,-22 98.4341,-22 109.1758,-22"/>
<polygon fill="#000000" stroke="#000000" points="109.3905,-25.5001 119.3905,-22 109.3905,-18.5001 109.3905,-25.5001"/>
<text text-anchor="middle" x="98.1157" y="-26.2" font-family="Times,serif" font-size="14.00" fill="#000000">a</text>
</g>
<!-- B&#45;&gt;B -->
<g id="edge9" class="edge">
<title>B-&gt;B</title>
<path fill="none" stroke="#000000" d="M130.8821,-39.0373C129.5079,-48.8579 131.7524,-58 137.6157,-58 141.2803,-58 143.5312,-54.4289 144.3686,-49.3529"/>
<polygon fill="#000000" stroke="#000000" points="147.8681,-49.0307 144.3493,-39.0373 140.8682,-49.0439 147.8681,-49.0307"/>
<text text-anchor="middle" x="137.6157" y="-62.2" font-family="Times,serif" font-size="14.00" fill="#000000">b</text>
</g>
<!-- C -->
<g id="node5" class="node">
<title>C</title>
<ellipse fill="none" stroke="#000000" cx="220.6157" cy="-22" rx="18" ry="18"/>
<ellipse fill="none" stroke="#000000" cx="220.6157" cy="-22" rx="22" ry="22"/>
<text text-anchor="middle" x="220.6157" y="-17.8" font-family="Times,serif" font-size="14.00" fill="#000000">C</text>
</g>
<!-- B&#45;&gt;C -->
<g id="edge8" class="edge">
<title>B-&gt;C</title>
<path fill="none" stroke="#000000" d="M155.6255,-22C165.164,-22 177.1711,-22 188.2613,-22"/>
<polygon fill="#000000" stroke="#000000" points="188.5027,-25.5001 198.5027,-22 188.5027,-18.5001 188.5027,-25.5001"/>
<text text-anchor="middle" x="177.1157" y="-26.2" font-family="Times,serif" font-size="14.00" fill="#000000">a</text>
</g>
<!-- D -->
<g id="node3" class="node">
<title>D</title>
<ellipse fill="none" stroke="#000000" cx="58.6079" cy="-118" rx="18.0157" ry="18.0157"/>
<text text-anchor="middle" x="58.6079" y="-113.8" font-family="Times,serif" font-size="14.00" fill="#000000">D</text>
</g>
<!-- D&#45;&gt;D -->
<g id="edge2" class="edge">
<title>D-&gt;D</title>
<path fill="none" stroke="#000000" d="M52.2286,-135.041C50.9268,-144.8638 53.0532,-154.0079 58.6079,-154.0079 62.0795,-154.0079 64.212,-150.4359 65.0054,-145.3589"/>
<polygon fill="#000000" stroke="#000000" points="68.5049,-145.0348 64.9871,-135.041 61.5049,-145.0473 68.5049,-145.0348"/>
<text text-anchor="middle" x="58.6079" y="-158.2079" font-family="Times,serif" font-size="14.00" fill="#000000">a</text>
</g>
<!-- E -->
<g id="node4" class="node">
<title>E</title>
<ellipse fill="none" stroke="#000000" cx="137.6157" cy="-118" rx="18" ry="18"/>
<text text-anchor="middle" x="137.6157" y="-113.8" font-family="Times,serif" font-size="14.00" fill="#000000">E</text>
</g>
<!-- D&#45;&gt;E -->
<g id="edge1" class="edge">
<title>D-&gt;E</title>
<path fill="none" stroke="#000000" d="M76.9324,-118C86.5054,-118 98.4341,-118 109.1758,-118"/>
<polygon fill="#000000" stroke="#000000" points="109.3905,-121.5001 119.3905,-118 109.3905,-114.5001 109.3905,-121.5001"/>
<text text-anchor="middle" x="98.1157" y="-122.2" font-family="Times,serif" font-size="14.00" fill="#000000">b</text>
</g>
<!-- E&#45;&gt;E -->
<g id="edge4" class="edge">
<title>E-&gt;E</title>
<path fill="none" stroke="#000000" d="M130.8821,-135.0373C129.5079,-144.8579 131.7524,-154 137.6157,-154 141.2803,-154 143.5312,-150.4289 144.3686,-145.3529"/>
<polygon fill="#000000" stroke="#000000" points="147.8681,-145.0307 144.3493,-135.0373 140.8682,-145.0439 147.8681,-145.0307"/>
<text text-anchor="middle" x="137.6157" y="-158.2" font-family="Times,serif" font-size="14.00" fill="#000000">a</text>
</g>
<!-- F -->
<g id="node6" class="node">
<title>F</title>
<ellipse fill="none" stroke="#000000" cx="220.6157" cy="-118" rx="18" ry="18"/>
<ellipse fill="none" stroke="#000000" cx="220.6157" cy="-118" rx="22" ry="22"/>
<text text-anchor="middle" x="220.6157" y="-113.8" font-family="Times,serif" font-size="14.00" fill="#000000">F</text>
</g>
<!-- E&#45;&gt;F -->
<g id="edge3" class="edge">
<title>E-&gt;F</title>
<path fill="none" stroke="#000000" d="M155.6255,-118C165.164,-118 177.1711,-118 188.2613,-118"/>
<polygon fill="#000000" stroke="#000000" points="188.5027,-121.5001 198.5027,-118 188.5027,-114.5001 188.5027,-121.5001"/>
<text text-anchor="middle" x="177.1157" y="-122.2" font-family="Times,serif" font-size="14.00" fill="#000000">b</text>
</g>
<!-- C&#45;&gt;C -->
<g id="edge10" class="edge">
<title>C-&gt;C</title>
<path fill="none" stroke="#000000" d="M212.933,-42.9908C211.9845,-53.0872 214.5454,-62 220.6157,-62 224.5045,-62 226.953,-58.3422 227.9613,-53.0587"/>
<polygon fill="#000000" stroke="#000000" points="231.4617,-53.1023 228.2985,-42.9908 224.4656,-52.868 231.4617,-53.1023"/>
<text text-anchor="middle" x="220.6157" y="-66.2" font-family="Times,serif" font-size="14.00" fill="#000000">a, b</text>
</g>
<!-- F&#45;&gt;F -->
<g id="edge5" class="edge">
<title>F-&gt;F</title>
<path fill="none" stroke="#000000" d="M212.933,-138.9908C211.9845,-149.0872 214.5454,-158 220.6157,-158 224.5045,-158 226.953,-154.3422 227.9613,-149.0587"/>
<polygon fill="#000000" stroke="#000000" points="231.4617,-149.1023 228.2985,-138.9908 224.4656,-148.868 231.4617,-149.1023"/>
<text text-anchor="middle" x="220.6157" y="-162.2" font-family="Times,serif" font-size="14.00" fill="#000000">a, b</text>
</g>
<!-- q -->
<g id="node7" class="node">
<title>q</title>
<ellipse fill="#000000" stroke="#000000" cx="1.8" cy="-22" rx="1.8" ry="1.8"/>
</g>
<!-- q&#45;&gt;A -->
<g id="edge11" class="edge">
<title>q-&gt;A</title>
<path fill="none" stroke="#000000" d="M3.6901,-22C8.0531,-22 19.3131,-22 30.5098,-22"/>
<polygon fill="#000000" stroke="#000000" points="30.575,-25.5001 40.575,-22 30.5749,-18.5001 30.575,-25.5001"/>
</g>
<!-- R -->
<g id="node8" class="node">
<title>R</title>
<ellipse fill="#000000" stroke="#000000" cx="1.8" cy="-118" rx="1.8" ry="1.8"/>
</g>
<!-- R&#45;&gt;D -->
<g id="edge12" class="edge">
<title>R-&gt;D</title>
<path fill="none" stroke="#000000" d="M3.6901,-118C8.0531,-118 19.3131,-118 30.5098,-118"/>
<polygon fill="#000000" stroke="#000000" points="30.575,-121.5001 40.575,-118 30.5749,-114.5001 30.575,-121.5001"/>
</g>
</g>
</svg>