<?xml version="1.0" encoding="UTF-8" standalone="no"?><!DOCTYPE svg PUBLIC "-//W3C//DTD SVG 1.1//EN" "http://www.w3.org/Graphics/SVG/1.1/DTD/svg11.dtd"><!-- Generated by graphviz version 2.40.1 (20161225.0304)
 --><!-- Title: state_machine Pages: 1 --><svg xmlns="http://www.w3.org/2000/svg" xmlns:xlink="http://www.w3.org/1999/xlink" width="428pt" height="326pt" viewBox="0.00 0.00 428.47 325.80">
<g id="graph0" class="graph" transform="scale(1 1) rotate(0) translate(4 321.8)">
<title>state_machine</title>
<polygon fill="#ffffff" stroke="transparent" points="-4,4 -4,-321.8 424.4699,-321.8 424.4699,4 -4,4"/>
<!-- AD -->
<g id="node1" class="node">
<title>AD</title>
<ellipse fill="none" stroke="#000000" cx="24.9792" cy="-244" rx="24.9584" ry="24.9584"/>
<text text-anchor="middle" x="24.9792" y="-239.8" font-family="Times,serif" font-size="14.00" fill="#000000">AD</text>
</g>
<!-- AE -->
<g id="node2" class="node">
<title>AE</title>
<ellipse fill="none" stroke="#000000" cx="116.8657" cy="-157" rx="23.8149" ry="23.8149"/>
<text text-anchor="middle" x="116.8657" y="-152.8" font-family="Times,serif" font-size="14.00" fill="#000000">AE</text>
</g>
<!-- AD&#45;&gt;AE -->
<g id="edge4" class="edge">
<title>AD-&gt;AE</title>
<path fill="none" stroke="#000000" d="M43.133,-226.8116C57.029,-213.6546 76.3578,-195.3537 91.7391,-180.7904"/>
<polygon fill="#000000" stroke="#000000" points="94.5179,-182.9793 99.373,-173.5624 89.7051,-177.8962 94.5179,-182.9793"/>
<text text-anchor="middle" x="71.4584" y="-207.2" font-family="Times,serif" font-size="14.00" fill="#000000">b</text>
</g>
<!-- BD -->
<g id="node4" class="node">
<title>BD</title>
<ellipse fill="none" stroke="#000000" cx="392.0218" cy="-231" rx="24.3963" ry="24.3963"/>
<text text-anchor="middle" x="392.0218" y="-226.8" font-family="Times,serif" font-size="14.00" fill="#000000">BD</text>
</g>
<!-- AD&#45;&gt;BD -->
<g id="edge3" class="edge">
<title>AD-&gt;BD</title>
<path fill="none" stroke="#000000" d="M49.9259,-245.6732C68.4002,-246.7693 94.1917,-248 116.8657,-248 116.8657,-248 116.8657,-248 296.6568,-248 317.4191,-248 340.335,-244.0463 358.4986,-239.9523"/>
<polygon fill="#000000" stroke="#000000" points="359.4016,-243.3353 368.3235,-237.6213 357.7856,-236.5244 359.4016,-243.3353"/>
<text text-anchor="middle" x="206.3637" y="-252.2" font-family="Times,serif" font-size="14.00" fill="#000000">a</text>
</g>
<!-- BE -->
<g id="node5" class="node">
<title>BE</title>
<ellipse fill="none" stroke="#000000" cx="206.3637" cy="-170" rx="23.253" ry="23.253"/>
<text text-anchor="middle" x="206.3637" y="-165.8" font-family="Times,serif" font-size="14.00" fill="#000000">BE</text>
</g>
<!-- AE&#45;&gt;BE -->
<g id="edge5" class="edge">
<title>AE-&gt;BE</title>
<path fill="none" stroke="#000000" d="M140.1751,-164.0653C146.1819,-165.6238 152.6736,-167.0822 158.773,-168 163.0968,-168.6506 167.6648,-169.1178 172.1916,-169.4495"/>
<polygon fill="#000000" stroke="#000000" points="172.3731,-172.964 182.545,-170.0004 172.7452,-165.9739 172.3731,-172.964"/>
<text text-anchor="middle" x="161.8803" y="-173.2" font-family="Times,serif" font-size="14.00" fill="#000000">a</text>
</g>
<!-- AC -->
<g id="node6" class="node">
<title>AC</title>
<ellipse fill="none" stroke="#000000" cx="392.0218" cy="-70" rx="24.4035" ry="24.4035"/>
<ellipse fill="none" stroke="#000000" cx="392.0218" cy="-70" rx="28.3962" ry="28.3962"/>
<text text-anchor="middle" x="392.0218" y="-65.8" font-family="Times,serif" font-size="14.00" fill="#000000">AC</text>
</g>
<!-- AE&#45;&gt;AC -->
<g id="edge6" class="edge">
<title>AE-&gt;AC</title>
<path fill="none" stroke="#000000" d="M135.4644,-141.2625C163.2104,-118.9275 218.0575,-79.0732 272.7399,-64 299.207,-56.7043 330.2048,-58.5605 353.9665,-62.0533"/>
<polygon fill="#000000" stroke="#000000" points="353.5694,-65.5347 364.0018,-63.6871 354.6942,-58.6256 353.5694,-65.5347"/>
<text text-anchor="middle" x="251.2399" y="-76.2" font-family="Times,serif" font-size="14.00" fill="#000000">b</text>
</g>
<!-- BC -->
<g id="node3" class="node">
<title>BC</title>
<ellipse fill="none" stroke="#000000" cx="296.6568" cy="-143" rx="23.8342" ry="23.8342"/>
<text text-anchor="middle" x="296.6568" y="-138.8" font-family="Times,serif" font-size="14.00" fill="#000000">BC</text>
</g>
<!-- BC&#45;&gt;BD -->
<g id="edge8" class="edge">
<title>BC-&gt;BD</title>
<path fill="none" stroke="#000000" d="M315.5763,-158.269C324.7931,-165.8742 335.9389,-175.3213 345.5738,-184.2 352.8686,-190.9223 360.547,-198.456 367.5134,-205.4816"/>
<polygon fill="#000000" stroke="#000000" points="365.2379,-208.1598 374.7414,-212.8433 370.2328,-203.2556 365.2379,-208.1598"/>
<text text-anchor="middle" x="342.0738" y="-188.2" font-family="Times,serif" font-size="14.00" fill="#000000">b</text>
</g>
<!-- BC&#45;&gt;AC -->
<g id="edge7" class="edge">
<title>BC-&gt;AC</title>
<path fill="none" stroke="#000000" d="M319.6216,-134.9548C328.1902,-131.3815 337.7335,-126.6848 345.5738,-121 353.5483,-115.2179 361.1933,-107.8866 367.8972,-100.5986"/>
<polygon fill="#000000" stroke="#000000" points="370.796,-102.6025 374.7735,-92.7826 365.5403,-97.9788 370.796,-102.6025"/>
<text text-anchor="middle" x="342.0738" y="-130.2" font-family="Times,serif" font-size="14.00" fill="#000000">a</text>
</g>
<!-- BD&#45;&gt;AD -->
<g id="edge9" class="edge">
<title>BD-&gt;AD</title>
<path fill="none" stroke="#000000" d="M377.5904,-250.872C360.7266,-271.567 330.7497,-301 296.6568,-301 116.8657,-301 116.8657,-301 116.8657,-301 91.1443,-301 66.6344,-284.6719 49.4073,-269.4939"/>
<polygon fill="#000000" stroke="#000000" points="51.7432,-266.8869 42.0264,-262.6639 46.9889,-272.0247 51.7432,-266.8869"/>
<text text-anchor="middle" x="206.3637" y="-305.2" font-family="Times,serif" font-size="14.00" fill="#000000">a</text>
</g>
<!-- BD&#45;&gt;BE -->
<g id="edge10" class="edge">
<title>BD-&gt;BE</title>
<path fill="none" stroke="#000000" d="M368.6719,-223.3281C335.7829,-212.5221 275.6928,-192.7788 238.5763,-180.5838"/>
<polygon fill="#000000" stroke="#000000" points="239.3513,-177.1544 228.7584,-177.358 237.1663,-183.8047 239.3513,-177.1544"/>
<text text-anchor="middle" x="296.6568" y="-210.2" font-family="Times,serif" font-size="14.00" fill="#000000">b</text>
</g>
<!-- BE&#45;&gt;AE -->
<g id="edge11" class="edge">
<title>BE-&gt;AE</title>
<path fill="none" stroke="#000000" d="M187.0152,-156.7131C180.3378,-152.8586 172.6129,-149.1619 164.9876,-147.2 159.9559,-145.9054 154.593,-145.7825 149.3417,-146.3467"/>
<polygon fill="#000000" stroke="#000000" points="148.7023,-142.9055 139.4972,-148.1512 149.9644,-149.7908 148.7023,-142.9055"/>
<text text-anchor="middle" x="161.8803" y="-152.2" font-family="Times,serif" font-size="14.00" fill="#000000">a</text>
</g>
<!-- BE&#45;&gt;BC -->
<g id="edge12" class="edge">
<title>BE-&gt;BC</title>
<path fill="none" stroke="#000000" d="M229.1485,-163.1868C239.6543,-160.0452 252.3215,-156.2574 263.8316,-152.8156"/>
<polygon fill="#000000" stroke="#000000" points="264.9872,-156.1233 273.5653,-149.905 262.9817,-149.4167 264.9872,-156.1233"/>
<text text-anchor="middle" x="251.2399" y="-162.2" font-family="Times,serif" font-size="14.00" fill="#000000">b</text>
</g>
<!-- AC&#45;&gt;AD -->
<g id="edge2" class="edge">
<title>AC-&gt;AD</title>
<path fill="none" stroke="#000000" d="M375.0619,-47.0794C357.8277,-26.6644 329.1067,0 296.6568,0 116.8657,0 116.8657,0 116.8657,0 72.7174,0 42.4993,-141.6662 30.6151,-209.1076"/>
<polygon fill="#000000" stroke="#000000" points="27.1145,-208.8121 28.8658,-219.2612 34.0129,-210.0006 27.1145,-208.8121"/>
<text text-anchor="middle" x="206.3637" y="-4.2" font-family="Times,serif" font-size="14.00" fill="#000000">b</text>
</g>
<!-- AC&#45;&gt;BC -->
<g id="edge1" class="edge">
<title>AC-&gt;BC</title>
<path fill="none" stroke="#000000" d="M367.4568,-84.4429C358.1592,-90.2356 347.6385,-97.1936 338.5738,-104.2 332.6403,-108.7861 326.5545,-114.0486 320.9241,-119.1877"/>
<polygon fill="#000000" stroke="#000000" points="318.5034,-116.6594 313.5857,-126.0439 323.2823,-121.7744 318.5034,-116.6594"/>
<text text-anchor="middle" x="342.0738" y="-109.2" font-family="Times,serif" font-size="14.00" fill="#000000">a</text>
</g>
<!-- q -->
<g id="node7" class="node">
<title>q</title>
<ellipse fill="#000000" stroke="#000000" cx="296.6568" cy="-75" rx="1.8" ry="1.8"/>
</g>
<!-- q&#45;&gt;AC -->
<g id="edge13" class="edge">
<title>q-&gt;AC</title>
<path fill="none" stroke="#000000" d="M298.6487,-74.8956C305.7928,-74.521 330.8935,-73.205 353.2718,-72.0317"/>
<polygon fill="#000000" stroke="#000000" points="353.485,-75.5254 363.2879,-71.5065 353.1184,-68.535 353.485,-75.5254"/>
</g>
</g>
</svg>