<?xml version="1.0" encoding="UTF-8" standalone="no"?><!DOCTYPE svg PUBLIC "-//W3C//DTD SVG 1.1//EN" "http://www.w3.org/Graphics/SVG/1.1/DTD/svg11.dtd"><!-- Generated by graphviz version 2.40.1 (20161225.0304)
 --><!-- Title: state_machine Pages: 1 --><svg xmlns="http://www.w3.org/2000/svg" xmlns:xlink="http://www.w3.org/1999/xlink" width="293pt" height="92pt" viewBox="0.00 0.00 293.19 92.39">
<g id="graph0" class="graph" transform="scale(1 1) rotate(0) translate(4 88.3869)">
<title>state_machine</title>
<polygon fill="#ffffff" stroke="transparent" points="-4,4 -4,-88.3869 289.1899,-88.3869 289.1899,4 -4,4"/>
<!-- q1 -->
<g id="node1" class="node">
<title>q1</title>
<ellipse fill="none" stroke="#000000" cx="166.895" cy="-63.6935" rx="20.8887" ry="20.8887"/>
<text text-anchor="middle" x="166.895" y="-59.4935" font-family="Times,serif" font-size="14.00" fill="#000000">q1</text>
</g>
<!-- q2 -->
<g id="node2" class="node">
<title>q2</title>
<ellipse fill="none" stroke="#000000" cx="264.4965" cy="-24.6935" rx="20.8887" ry="20.8887"/>
<text text-anchor="middle" x="264.4965" y="-20.4935" font-family="Times,serif" font-size="14.00" fill="#000000">q2</text>
</g>
<!-- q1&#45;&gt;q2 -->
<g id="edge3" class="edge">
<title>q1-&gt;q2</title>
<path fill="none" stroke="#000000" d="M186.1779,-55.9883C200.3478,-50.3262 219.8362,-42.539 235.8275,-36.1491"/>
<polygon fill="#000000" stroke="#000000" points="237.2662,-39.3434 245.2536,-32.3826 234.6688,-32.8431 237.2662,-39.3434"/>
<text text-anchor="middle" x="215.6957" y="-50.8935" font-family="Times,serif" font-size="14.00" fill="#000000">a, b</text>
</g>
<!-- q0 -->
<g id="node3" class="node">
<title>q0</title>
<ellipse fill="none" stroke="#000000" cx="65.2935" cy="-24.6935" rx="20.8568" ry="20.8568"/>
<ellipse fill="none" stroke="#000000" cx="65.2935" cy="-24.6935" rx="24.8884" ry="24.8884"/>
<text text-anchor="middle" x="65.2935" y="-20.4935" font-family="Times,serif" font-size="14.00" fill="#000000">q0</text>
</g>
<!-- q0&#45;&gt;q1 -->
<g id="edge2" class="edge">
<title>q0-&gt;q1</title>
<path fill="none" stroke="#000000" d="M88.3484,-33.5432C102.9489,-39.1476 121.9602,-46.4451 137.622,-52.4569"/>
<polygon fill="#000000" stroke="#000000" points="136.7602,-55.8751 147.3503,-56.1912 139.2687,-49.34 136.7602,-55.8751"/>
<text text-anchor="middle" x="118.0942" y="-52.8935" font-family="Times,serif" font-size="14.00" fill="#000000">a, b</text>
</g>
<!-- q0&#45;&gt;q2 -->
<g id="edge4" class="edge">
<title>q0-&gt;q2</title>
<path fill="none" stroke="#000000" d="M100.3733,-20.5704C114.5785,-19.0944 131.1503,-17.6173 146.2015,-16.8935 164.5745,-16.0099 169.2177,-15.9643 187.5884,-16.8935 206.6213,-17.8561 228.2025,-20.1507 243.649,-22.0035"/>
<polygon fill="#000000" stroke="#000000" points="99.6027,-17.1331 90.0362,-21.6864 100.3542,-24.0927 99.6027,-17.1331"/>
<text text-anchor="middle" x="166.895" y="-21.8935" font-family="Times,serif" font-size="14.00" fill="#000000">b</text>
</g>
<!-- q0&#45;&gt;q0 -->
<g id="edge1" class="edge">
<title>q0-&gt;q0</title>
<path fill="none" stroke="#000000" d="M57.5127,-48.4015C56.8756,-58.6297 59.4692,-67.3869 65.2935,-67.3869 69.0246,-67.3869 71.4299,-63.7929 72.5093,-58.5207"/>
<polygon fill="#000000" stroke="#000000" points="76.0113,-58.5811 73.0742,-48.4015 69.0222,-58.1908 76.0113,-58.5811"/>
<text text-anchor="middle" x="65.2935" y="-71.5869" font-family="Times,serif" font-size="14.00" fill="#000000">a</text>
</g>
<!-- q -->
<g id="node4" class="node">
<title>q</title>
<ellipse fill="#000000" stroke="#000000" cx="1.8" cy="-24.6935" rx="1.8" ry="1.8"/>
</g>
<!-- q&#45;&gt;q0 -->
<g id="edge5" class="edge">
<title>q-&gt;q0</title>
<path fill="none" stroke="#000000" d="M3.6318,-24.6935C7.8464,-24.6935 18.7548,-24.6935 30.2464,-24.6935"/>
<polygon fill="#000000" stroke="#000000" points="30.3416,-28.1936 40.3415,-24.6935 30.3415,-21.1936 30.3416,-28.1936"/>
</g>
</g>
</svg>