<?xml version="1.0" encoding="UTF-8" standalone="no"?><!DOCTYPE svg PUBLIC "-//W3C//DTD SVG 1.1//EN" "http://www.w3.org/Graphics/SVG/1.1/DTD/svg11.dtd"><!-- Generated by graphviz version 2.40.1 (20161225.0304)
 --><!-- Title: state_machine Pages: 1 --><svg xmlns="http://www.w3.org/2000/svg" xmlns:xlink="http://www.w3.org/1999/xlink" width="720pt" height="360pt" viewBox="0.00 0.00 720.00 359.70">
<g id="graph0" class="graph" transform="scale(.6767 .6767) rotate(0) translate(4 527.5737)">
<title>state_machine</title>
<polygon fill="#ffffff" stroke="transparent" points="-4,4 -4,-527.5737 1060.0249,-527.5737 1060.0249,4 -4,4"/>
<!-- AG -->
<g id="node1" class="node">
<title>AG</title>
<ellipse fill="none" stroke="#000000" cx="65.5792" cy="-329.7737" rx="24.9584" ry="24.9584"/>
<text text-anchor="middle" x="65.5792" y="-325.5737" font-family="Times,serif" font-size="14.00" fill="#000000">AG</text>
</g>
<!-- BH -->
<g id="node6" class="node">
<title>BH</title>
<ellipse fill="none" stroke="#000000" cx="158.5376" cy="-293.7737" rx="24.3963" ry="24.3963"/>
<text text-anchor="middle" x="158.5376" y="-289.5737" font-family="Times,serif" font-size="14.00" fill="#000000">BH</text>
</g>
<!-- AG&#45;&gt;BH -->
<g id="edge2" class="edge">
<title>AG-&gt;BH</title>
<path fill="none" stroke="#000000" d="M89.0365,-320.6894C100.3256,-316.3175 114.0388,-311.0068 126.2914,-306.2617"/>
<polygon fill="#000000" stroke="#000000" points="127.6693,-309.4814 135.7305,-302.6062 125.1413,-302.9538 127.6693,-309.4814"/>
<text text-anchor="middle" x="112.0584" y="-317.9737" font-family="Times,serif" font-size="14.00" fill="#000000">b</text>
</g>
<!-- DH -->
<g id="node14" class="node">
<title>DH</title>
<ellipse fill="none" stroke="#000000" cx="158.5376" cy="-427.7737" rx="24.9584" ry="24.9584"/>
<text text-anchor="middle" x="158.5376" y="-423.5737" font-family="Times,serif" font-size="14.00" fill="#000000">DH</text>
</g>
<!-- AG&#45;&gt;DH -->
<g id="edge1" class="edge">
<title>AG-&gt;DH</title>
<path fill="none" stroke="#000000" d="M83.064,-348.2068C97.4762,-363.4006 118.0811,-385.123 134.1213,-402.0331"/>
<polygon fill="#000000" stroke="#000000" points="131.7099,-404.5768 141.1313,-409.4233 136.7886,-399.7593 131.7099,-404.5768"/>
<text text-anchor="middle" x="112.0584" y="-385.9737" font-family="Times,serif" font-size="14.00" fill="#000000">a</text>
</g>
<!-- AH -->
<g id="node2" class="node">
<title>AH</title>
<ellipse fill="none" stroke="#000000" cx="344.4544" cy="-83.7737" rx="24.9584" ry="24.9584"/>
<text text-anchor="middle" x="344.4544" y="-79.5737" font-family="Times,serif" font-size="14.00" fill="#000000">AH</text>
</g>
<!-- BI -->
<g id="node7" class="node">
<title>BI</title>
<ellipse fill="none" stroke="#000000" cx="623.8359" cy="-190.7737" rx="20.8848" ry="20.8848"/>
<text text-anchor="middle" x="623.8359" y="-186.5737" font-family="Times,serif" font-size="14.00" fill="#000000">BI</text>
</g>
<!-- AH&#45;&gt;BI -->
<g id="edge4" class="edge">
<title>AH-&gt;BI</title>
<path fill="none" stroke="#000000" d="M366.3548,-96.339C398.432,-114.5911 456.8198,-147.1983 479.3298,-155.7737 517.356,-170.2601 563.3456,-180.1772 593.0719,-185.6592"/>
<polygon fill="#000000" stroke="#000000" points="592.783,-189.163 603.2431,-187.4785 594.0156,-182.2724 592.783,-189.163"/>
<text text-anchor="middle" x="482.8298" y="-162.9737" font-family="Times,serif" font-size="14.00" fill="#000000">b</text>
</g>
<!-- DI -->
<g id="node15" class="node">
<title>DI</title>
<ellipse fill="none" stroke="#000000" cx="436.8817" cy="-38.7737" rx="21.4477" ry="21.4477"/>
<text text-anchor="middle" x="436.8817" y="-34.5737" font-family="Times,serif" font-size="14.00" fill="#000000">DI</text>
</g>
<!-- AH&#45;&gt;DI -->
<g id="edge3" class="edge">
<title>AH-&gt;DI</title>
<path fill="none" stroke="#000000" d="M367.3016,-72.6501C379.7765,-66.5765 395.334,-59.002 408.5727,-52.5565"/>
<polygon fill="#000000" stroke="#000000" points="410.2666,-55.6246 417.7255,-48.1003 407.2023,-49.3309 410.2666,-55.6246"/>
<text text-anchor="middle" x="390.9336" y="-66.9737" font-family="Times,serif" font-size="14.00" fill="#000000">a</text>
</g>
<!-- AI -->
<g id="node3" class="node">
<title>AI</title>
<ellipse fill="none" stroke="#000000" cx="688.0377" cy="-452.7737" rx="21.4477" ry="21.4477"/>
<text text-anchor="middle" x="688.0377" y="-448.5737" font-family="Times,serif" font-size="14.00" fill="#000000">AI</text>
</g>
<!-- BJ -->
<g id="node25" class="node">
<title>BJ</title>
<ellipse fill="none" stroke="#000000" cx="939.4469" cy="-463.7737" rx="21.4296" ry="21.4296"/>
<ellipse fill="none" stroke="#000000" cx="939.4469" cy="-463.7737" rx="25.4668" ry="25.4668"/>
<text text-anchor="middle" x="939.4469" y="-459.5737" font-family="Times,serif" font-size="14.00" fill="#000000">BJ</text>
</g>
<!-- AI&#45;&gt;BJ -->
<g id="edge6" class="edge">
<title>AI-&gt;BJ</title>
<path fill="none" stroke="#000000" d="M709.4727,-453.7116C752.6876,-455.6023 850.6587,-459.8889 903.7114,-462.2102"/>
<polygon fill="#000000" stroke="#000000" points="903.8608,-465.7199 914.0042,-462.6605 904.1668,-458.7266 903.8608,-465.7199"/>
<text text-anchor="middle" x="799.225" y="-460.9737" font-family="Times,serif" font-size="14.00" fill="#000000">b</text>
</g>
<!-- DJ -->
<g id="node27" class="node">
<title>DJ</title>
<ellipse fill="none" stroke="#000000" cx="939.4469" cy="-274.7737" rx="21.5654" ry="21.5654"/>
<ellipse fill="none" stroke="#000000" cx="939.4469" cy="-274.7737" rx="25.529" ry="25.529"/>
<text text-anchor="middle" x="939.4469" y="-270.5737" font-family="Times,serif" font-size="14.00" fill="#000000">DJ</text>
</g>
<!-- AI&#45;&gt;DJ -->
<g id="edge5" class="edge">
<title>AI-&gt;DJ</title>
<path fill="none" stroke="#000000" d="M705.7163,-440.2571C748.3842,-410.0479 857.3615,-332.8909 910.0474,-295.5888"/>
<polygon fill="#000000" stroke="#000000" points="912.1629,-298.3795 918.302,-289.7445 908.118,-292.6664 912.1629,-298.3795"/>
<text text-anchor="middle" x="799.225" y="-380.9737" font-family="Times,serif" font-size="14.00" fill="#000000">a</text>
</g>
<!-- AK -->
<g id="node4" class="node">
<title>AK</title>
<ellipse fill="none" stroke="#000000" cx="845.7042" cy="-237.7737" rx="24.9584" ry="24.9584"/>
<text text-anchor="middle" x="845.7042" y="-233.5737" font-family="Times,serif" font-size="14.00" fill="#000000">AK</text>
</g>
<!-- AK&#45;&gt;BJ -->
<g id="edge10" class="edge">
<title>AK-&gt;BJ</title>
<path fill="none" stroke="#000000" d="M856.3954,-260.8295C866.7642,-283.4062 882.7775,-318.851 895.6834,-349.9737 906.7723,-376.7147 918.5032,-407.3625 927.0255,-430.1109"/>
<polygon fill="#000000" stroke="#000000" points="923.8107,-431.5072 930.5856,-439.6528 930.369,-429.0602 923.8107,-431.5072"/>
<text text-anchor="middle" x="892.1834" y="-354.9737" font-family="Times,serif" font-size="14.00" fill="#000000">b</text>
</g>
<!-- AK&#45;&gt;DJ -->
<g id="edge9" class="edge">
<title>AK-&gt;DJ</title>
<path fill="none" stroke="#000000" d="M869.3594,-247.1104C880.487,-251.5024 893.95,-256.8162 906.0903,-261.608"/>
<polygon fill="#000000" stroke="#000000" points="904.8865,-264.8955 915.4731,-265.3113 907.4564,-258.3843 904.8865,-264.8955"/>
<text text-anchor="middle" x="892.1834" y="-261.9737" font-family="Times,serif" font-size="14.00" fill="#000000">a</text>
</g>
<!-- BG -->
<g id="node5" class="node">
<title>BG</title>
<ellipse fill="none" stroke="#000000" cx="436.8817" cy="-328.7737" rx="24.3963" ry="24.3963"/>
<text text-anchor="middle" x="436.8817" y="-324.5737" font-family="Times,serif" font-size="14.00" fill="#000000">BG</text>
</g>
<!-- CH -->
<g id="node10" class="node">
<title>CH</title>
<ellipse fill="none" stroke="#000000" cx="530.0932" cy="-340.7737" rx="24.3963" ry="24.3963"/>
<text text-anchor="middle" x="530.0932" y="-336.5737" font-family="Times,serif" font-size="14.00" fill="#000000">CH</text>
</g>
<!-- BG&#45;&gt;CH -->
<g id="edge12" class="edge">
<title>BG-&gt;CH</title>
<path fill="none" stroke="#000000" d="M461.3719,-331.9266C471.8615,-333.277 484.2967,-334.8779 495.6864,-336.3442"/>
<polygon fill="#000000" stroke="#000000" points="495.4015,-339.8363 505.7666,-337.6419 496.2953,-332.8936 495.4015,-339.8363"/>
<text text-anchor="middle" x="482.8298" y="-339.9737" font-family="Times,serif" font-size="14.00" fill="#000000">b</text>
</g>
<!-- EH -->
<g id="node18" class="node">
<title>EH</title>
<ellipse fill="none" stroke="#000000" cx="530.0932" cy="-230.7737" rx="23.8149" ry="23.8149"/>
<text text-anchor="middle" x="530.0932" y="-226.5737" font-family="Times,serif" font-size="14.00" fill="#000000">EH</text>
</g>
<!-- BG&#45;&gt;EH -->
<g id="edge11" class="edge">
<title>BG-&gt;EH</title>
<path fill="none" stroke="#000000" d="M453.9781,-310.799C468.654,-295.3692 489.9616,-272.967 506.3022,-255.787"/>
<polygon fill="#000000" stroke="#000000" points="509.063,-257.9628 513.4188,-248.3047 503.9909,-253.1385 509.063,-257.9628"/>
<text text-anchor="middle" x="482.8298" y="-286.9737" font-family="Times,serif" font-size="14.00" fill="#000000">a</text>
</g>
<!-- CI -->
<g id="node11" class="node">
<title>CI</title>
<ellipse fill="none" stroke="#000000" cx="251.496" cy="-234.7737" rx="20.8848" ry="20.8848"/>
<text text-anchor="middle" x="251.496" y="-230.5737" font-family="Times,serif" font-size="14.00" fill="#000000">CI</text>
</g>
<!-- BH&#45;&gt;CI -->
<g id="edge14" class="edge">
<title>BH-&gt;CI</title>
<path fill="none" stroke="#000000" d="M179.6313,-280.3857C193.2057,-271.7701 210.9472,-260.5097 225.4057,-251.333"/>
<polygon fill="#000000" stroke="#000000" points="227.3499,-254.2446 233.9174,-245.9307 223.5988,-248.3344 227.3499,-254.2446"/>
<text text-anchor="middle" x="205.0168" y="-270.9737" font-family="Times,serif" font-size="14.00" fill="#000000">b</text>
</g>
<!-- EI -->
<g id="node19" class="node">
<title>EI</title>
<ellipse fill="none" stroke="#000000" cx="251.496" cy="-397.7737" rx="20.3026" ry="20.3026"/>
<text text-anchor="middle" x="251.496" y="-393.5737" font-family="Times,serif" font-size="14.00" fill="#000000">EI</text>
</g>
<!-- BH&#45;&gt;EI -->
<g id="edge13" class="edge">
<title>BH-&gt;EI</title>
<path fill="none" stroke="#000000" d="M175.1567,-312.3668C190.8758,-329.953 214.4967,-356.3796 231.2959,-375.1742"/>
<polygon fill="#000000" stroke="#000000" points="228.7612,-377.5904 238.035,-382.7137 233.9802,-372.9254 228.7612,-377.5904"/>
<text text-anchor="middle" x="205.0168" y="-353.9737" font-family="Times,serif" font-size="14.00" fill="#000000">a</text>
</g>
<!-- CJ -->
<g id="node26" class="node">
<title>CJ</title>
<ellipse fill="none" stroke="#000000" cx="752.4927" cy="-208.7737" rx="21.4296" ry="21.4296"/>
<ellipse fill="none" stroke="#000000" cx="752.4927" cy="-208.7737" rx="25.4668" ry="25.4668"/>
<text text-anchor="middle" x="752.4927" y="-204.5737" font-family="Times,serif" font-size="14.00" fill="#000000">CJ</text>
</g>
<!-- BI&#45;&gt;CJ -->
<g id="edge16" class="edge">
<title>BI-&gt;CJ</title>
<path fill="none" stroke="#000000" d="M644.5068,-193.6657C664.095,-196.4062 693.9087,-200.5774 717.2506,-203.8431"/>
<polygon fill="#000000" stroke="#000000" points="717.0713,-207.352 727.4598,-205.2714 718.0412,-200.4195 717.0713,-207.352"/>
<text text-anchor="middle" x="688.0377" y="-206.9737" font-family="Times,serif" font-size="14.00" fill="#000000">b</text>
</g>
<!-- EJ -->
<g id="node28" class="node">
<title>EJ</title>
<ellipse fill="none" stroke="#000000" cx="752.4927" cy="-78.7737" rx="20.8533" ry="20.8533"/>
<ellipse fill="none" stroke="#000000" cx="752.4927" cy="-78.7737" rx="24.8845" ry="24.8845"/>
<text text-anchor="middle" x="752.4927" y="-74.5737" font-family="Times,serif" font-size="14.00" fill="#000000">EJ</text>
</g>
<!-- BI&#45;&gt;EJ -->
<g id="edge15" class="edge">
<title>BI-&gt;EJ</title>
<path fill="none" stroke="#000000" d="M643.6105,-184.6234C665.5514,-177.5066 699.1954,-165.6324 709.2604,-156.7737 723.0235,-144.6601 733.3045,-127.0628 740.3798,-111.6473"/>
<polygon fill="#000000" stroke="#000000" points="743.622,-112.9676 744.3733,-102.3994 737.1956,-110.1924 743.622,-112.9676"/>
<text text-anchor="middle" x="688.0377" y="-180.9737" font-family="Times,serif" font-size="14.00" fill="#000000">a</text>
</g>
<!-- BK -->
<g id="node8" class="node">
<title>BK</title>
<ellipse fill="none" stroke="#000000" cx="623.8359" cy="-105.7737" rx="24.3963" ry="24.3963"/>
<text text-anchor="middle" x="623.8359" y="-101.5737" font-family="Times,serif" font-size="14.00" fill="#000000">BK</text>
</g>
<!-- BK&#45;&gt;CJ -->
<g id="edge20" class="edge">
<title>BK-&gt;CJ</title>
<path fill="none" stroke="#000000" d="M648.0572,-111.1178C666.4304,-116.1336 691.4737,-125.1347 709.2604,-139.9737 721.0277,-149.7908 730.593,-163.6651 737.7062,-176.3854"/>
<polygon fill="#000000" stroke="#000000" points="734.6851,-178.1598 742.4488,-185.3693 740.8755,-174.8919 734.6851,-178.1598"/>
<text text-anchor="middle" x="688.0377" y="-144.9737" font-family="Times,serif" font-size="14.00" fill="#000000">b</text>
</g>
<!-- BK&#45;&gt;EJ -->
<g id="edge19" class="edge">
<title>BK-&gt;EJ</title>
<path fill="none" stroke="#000000" d="M648.0352,-100.6952C667.7666,-96.5544 695.8845,-90.6535 717.978,-86.017"/>
<polygon fill="#000000" stroke="#000000" points="718.8965,-89.4005 727.9644,-83.9212 717.4587,-82.5498 718.8965,-89.4005"/>
<text text-anchor="middle" x="688.0377" y="-100.9737" font-family="Times,serif" font-size="14.00" fill="#000000">a</text>
</g>
<!-- CG -->
<g id="node9" class="node">
<title>CG</title>
<ellipse fill="none" stroke="#000000" cx="65.5792" cy="-96.7737" rx="24.3963" ry="24.3963"/>
<text text-anchor="middle" x="65.5792" y="-92.5737" font-family="Times,serif" font-size="14.00" fill="#000000">CG</text>
</g>
<!-- CG&#45;&gt;AH -->
<g id="edge22" class="edge">
<title>CG-&gt;AH</title>
<path fill="none" stroke="#000000" d="M90.3275,-95.62C140.0225,-93.3035 252.077,-88.08 309.3345,-85.4108"/>
<polygon fill="#000000" stroke="#000000" points="309.5346,-88.9054 319.3607,-84.9435 309.2085,-81.913 309.5346,-88.9054"/>
<text text-anchor="middle" x="205.0168" y="-94.9737" font-family="Times,serif" font-size="14.00" fill="#000000">b</text>
</g>
<!-- FH -->
<g id="node22" class="node">
<title>FH</title>
<ellipse fill="none" stroke="#000000" cx="158.5376" cy="-168.7737" rx="23.253" ry="23.253"/>
<text text-anchor="middle" x="158.5376" y="-164.5737" font-family="Times,serif" font-size="14.00" fill="#000000">FH</text>
</g>
<!-- CG&#45;&gt;FH -->
<g id="edge21" class="edge">
<title>CG-&gt;FH</title>
<path fill="none" stroke="#000000" d="M85.2933,-112.043C98.7478,-122.4641 116.7414,-136.4009 131.5268,-147.8528"/>
<polygon fill="#000000" stroke="#000000" points="129.7538,-150.9066 139.803,-154.263 134.0403,-145.3724 129.7538,-150.9066"/>
<text text-anchor="middle" x="112.0584" y="-139.9737" font-family="Times,serif" font-size="14.00" fill="#000000">a</text>
</g>
<!-- CH&#45;&gt;AI -->
<g id="edge24" class="edge">
<title>CH-&gt;AI</title>
<path fill="none" stroke="#000000" d="M550.097,-354.9586C578.6262,-375.1889 631.0097,-412.3346 662.3672,-434.5705"/>
<polygon fill="#000000" stroke="#000000" points="660.435,-437.491 670.6168,-440.4204 664.4841,-431.7809 660.435,-437.491"/>
<text text-anchor="middle" x="577.3567" y="-379.9737" font-family="Times,serif" font-size="14.00" fill="#000000">b</text>
</g>
<!-- FI -->
<g id="node23" class="node">
<title>FI</title>
<ellipse fill="none" stroke="#000000" cx="623.8359" cy="-260.7737" rx="19.7399" ry="19.7399"/>
<text text-anchor="middle" x="623.8359" y="-256.5737" font-family="Times,serif" font-size="14.00" fill="#000000">FI</text>
</g>
<!-- CH&#45;&gt;FI -->
<g id="edge23" class="edge">
<title>CH-&gt;FI</title>
<path fill="none" stroke="#000000" d="M549.0634,-324.5845C564.0977,-311.7543 585.1535,-293.7853 601.0918,-280.1835"/>
<polygon fill="#000000" stroke="#000000" points="603.5665,-282.6729 608.9011,-273.519 599.0224,-277.3482 603.5665,-282.6729"/>
<text text-anchor="middle" x="577.3567" y="-307.9737" font-family="Times,serif" font-size="14.00" fill="#000000">a</text>
</g>
<!-- FJ -->
<g id="node29" class="node">
<title>FJ</title>
<ellipse fill="none" stroke="#000000" cx="344.4544" cy="-270.7737" rx="20.2951" ry="20.2951"/>
<ellipse fill="none" stroke="#000000" cx="344.4544" cy="-270.7737" rx="24.3219" ry="24.3219"/>
<text text-anchor="middle" x="344.4544" y="-266.5737" font-family="Times,serif" font-size="14.00" fill="#000000">FJ</text>
</g>
<!-- CI&#45;&gt;FJ -->
<g id="edge25" class="edge">
<title>CI-&gt;FJ</title>
<path fill="none" stroke="#000000" d="M271.2101,-242.4084C283.1324,-247.0255 298.6188,-253.0229 312.2789,-258.3131"/>
<polygon fill="#000000" stroke="#000000" points="311.2366,-261.6627 321.8257,-262.0103 313.7645,-255.1351 311.2366,-261.6627"/>
<text text-anchor="middle" x="297.9752" y="-258.9737" font-family="Times,serif" font-size="14.00" fill="#000000">a</text>
</g>
<!-- AJ -->
<g id="node30" class="node">
<title>AJ</title>
<ellipse fill="none" stroke="#000000" cx="530.0932" cy="-74.7737" rx="21.5654" ry="21.5654"/>
<ellipse fill="none" stroke="#000000" cx="530.0932" cy="-74.7737" rx="25.529" ry="25.529"/>
<text text-anchor="middle" x="530.0932" y="-70.5737" font-family="Times,serif" font-size="14.00" fill="#000000">AJ</text>
</g>
<!-- CI&#45;&gt;AJ -->
<g id="edge26" class="edge">
<title>CI-&gt;AJ</title>
<path fill="none" stroke="#000000" d="M269.7756,-224.2757C316.4283,-197.4827 440.3351,-126.3223 498.7661,-92.7651"/>
<polygon fill="#000000" stroke="#000000" points="500.6313,-95.7301 507.5599,-87.7147 497.1451,-89.6599 500.6313,-95.7301"/>
<text text-anchor="middle" x="390.9336" y="-160.9737" font-family="Times,serif" font-size="14.00" fill="#000000">b</text>
</g>
<!-- CK -->
<g id="node12" class="node">
<title>CK</title>
<ellipse fill="none" stroke="#000000" cx="436.8817" cy="-261.7737" rx="24.3963" ry="24.3963"/>
<text text-anchor="middle" x="436.8817" y="-257.5737" font-family="Times,serif" font-size="14.00" fill="#000000">CK</text>
</g>
<!-- CK&#45;&gt;FJ -->
<g id="edge29" class="edge">
<title>CK-&gt;FJ</title>
<path fill="none" stroke="#000000" d="M413.7175,-253.2957C405.4191,-251.2855 396,-250.1821 387.4336,-251.9737 383.51,-252.7943 379.5064,-253.9943 375.5986,-255.3975"/>
<polygon fill="#000000" stroke="#000000" points="374.142,-252.2111 366.1823,-259.2035 376.7652,-258.701 374.142,-252.2111"/>
<text text-anchor="middle" x="390.9336" y="-256.9737" font-family="Times,serif" font-size="14.00" fill="#000000">a</text>
</g>
<!-- CK&#45;&gt;AJ -->
<g id="edge30" class="edge">
<title>CK-&gt;AJ</title>
<path fill="none" stroke="#000000" d="M453.7562,-243.6128C464.231,-231.599 477.3586,-215.1033 486.3298,-198.7737 501.9536,-170.3351 513.7188,-135.2516 521.0939,-109.668"/>
<polygon fill="#000000" stroke="#000000" points="524.4694,-110.5934 523.7976,-100.0199 517.729,-108.7045 524.4694,-110.5934"/>
<text text-anchor="middle" x="482.8298" y="-214.9737" font-family="Times,serif" font-size="14.00" fill="#000000">b</text>
</g>
<!-- DG -->
<g id="node13" class="node">
<title>DG</title>
<ellipse fill="none" stroke="#000000" cx="251.496" cy="-157.7737" rx="24.9584" ry="24.9584"/>
<text text-anchor="middle" x="251.496" y="-153.5737" font-family="Times,serif" font-size="14.00" fill="#000000">DG</text>
</g>
<!-- DG&#45;&gt;AH -->
<g id="edge31" class="edge">
<title>DG-&gt;AH</title>
<path fill="none" stroke="#000000" d="M271.2101,-142.0802C284.3973,-131.5825 301.9451,-117.6135 316.5587,-105.9803"/>
<polygon fill="#000000" stroke="#000000" points="319.1249,-108.411 324.7688,-99.4446 314.7652,-102.9344 319.1249,-108.411"/>
<text text-anchor="middle" x="297.9752" y="-127.9737" font-family="Times,serif" font-size="14.00" fill="#000000">a</text>
</g>
<!-- DG&#45;&gt;EH -->
<g id="edge32" class="edge">
<title>DG-&gt;EH</title>
<path fill="none" stroke="#000000" d="M275.7323,-164.1243C325.7081,-177.2193 440.2664,-207.2367 497.004,-222.1034"/>
<polygon fill="#000000" stroke="#000000" points="496.3361,-225.5465 506.8967,-224.6956 498.1104,-218.7751 496.3361,-225.5465"/>
<text text-anchor="middle" x="390.9336" y="-199.9737" font-family="Times,serif" font-size="14.00" fill="#000000">b</text>
</g>
<!-- DH&#45;&gt;AI -->
<g id="edge33" class="edge">
<title>DH-&gt;AI</title>
<path fill="none" stroke="#000000" d="M183.4678,-432.373C189.367,-433.3116 195.649,-434.1896 201.5168,-434.7737 372.6182,-451.8056 579.0129,-453.1351 656.5625,-452.963"/>
<polygon fill="#000000" stroke="#000000" points="656.6443,-456.4628 666.6329,-452.9302 656.6215,-449.4628 656.6443,-456.4628"/>
<text text-anchor="middle" x="390.9336" y="-450.9737" font-family="Times,serif" font-size="14.00" fill="#000000">a</text>
</g>
<!-- DH&#45;&gt;EI -->
<g id="edge34" class="edge">
<title>DH-&gt;EI</title>
<path fill="none" stroke="#000000" d="M182.4767,-420.048C194.6167,-416.1301 209.4636,-411.3386 222.2726,-407.2048"/>
<polygon fill="#000000" stroke="#000000" points="223.576,-410.462 232.0177,-404.0598 221.4261,-403.8003 223.576,-410.462"/>
<text text-anchor="middle" x="205.0168" y="-417.9737" font-family="Times,serif" font-size="14.00" fill="#000000">b</text>
</g>
<!-- DI&#45;&gt;EJ -->
<g id="edge36" class="edge">
<title>DI-&gt;EJ</title>
<path fill="none" stroke="#000000" d="M456.6013,-30.6862C494.2278,-16.34 578.7618,10.6637 648.8151,-4.7737 677.7283,-11.1452 685.252,-15.4483 709.2604,-32.7737 716.67,-38.1208 723.8389,-44.8642 730.1379,-51.5272"/>
<polygon fill="#000000" stroke="#000000" points="727.7929,-54.1523 737.0952,-59.2236 732.9857,-49.4582 727.7929,-54.1523"/>
<text text-anchor="middle" x="577.3567" y="-5.9737" font-family="Times,serif" font-size="14.00" fill="#000000">b</text>
</g>
<!-- DI&#45;&gt;AJ -->
<g id="edge35" class="edge">
<title>DI-&gt;AJ</title>
<path fill="none" stroke="#000000" d="M457.1072,-46.5852C468.5421,-51.0015 483.1361,-56.638 496.2643,-61.7083"/>
<polygon fill="#000000" stroke="#000000" points="495.3517,-65.1078 505.9412,-65.4457 497.8737,-58.5779 495.3517,-65.1078"/>
<text text-anchor="middle" x="482.8298" y="-62.9737" font-family="Times,serif" font-size="14.00" fill="#000000">a</text>
</g>
<!-- DK -->
<g id="node16" class="node">
<title>DK</title>
<ellipse fill="none" stroke="#000000" cx="623.8359" cy="-38.7737" rx="24.9584" ry="24.9584"/>
<text text-anchor="middle" x="623.8359" y="-34.5737" font-family="Times,serif" font-size="14.00" fill="#000000">DK</text>
</g>
<!-- DK&#45;&gt;EJ -->
<g id="edge40" class="edge">
<title>DK-&gt;EJ</title>
<path fill="none" stroke="#000000" d="M648.9865,-36.3682C666.4706,-35.6269 689.9999,-36.5193 709.2604,-43.9737 715.511,-46.3929 721.5568,-50.0668 727.0476,-54.1351"/>
<polygon fill="#000000" stroke="#000000" points="725.1992,-57.1427 735.1687,-60.7288 729.6115,-51.7083 725.1992,-57.1427"/>
<text text-anchor="middle" x="688.0377" y="-48.9737" font-family="Times,serif" font-size="14.00" fill="#000000">b</text>
</g>
<!-- DK&#45;&gt;AJ -->
<g id="edge39" class="edge">
<title>DK-&gt;AJ</title>
<path fill="none" stroke="#000000" d="M600.4243,-47.7644C589.3108,-52.0324 575.8264,-57.2108 563.6494,-61.8871"/>
<polygon fill="#000000" stroke="#000000" points="562.3148,-58.6504 554.2343,-65.5028 564.8244,-65.1851 562.3148,-58.6504"/>
<text text-anchor="middle" x="577.3567" y="-62.9737" font-family="Times,serif" font-size="14.00" fill="#000000">a</text>
</g>
<!-- EG -->
<g id="node17" class="node">
<title>EG</title>
<ellipse fill="none" stroke="#000000" cx="65.5792" cy="-256.7737" rx="23.8149" ry="23.8149"/>
<text text-anchor="middle" x="65.5792" y="-252.5737" font-family="Times,serif" font-size="14.00" fill="#000000">EG</text>
</g>
<!-- EG&#45;&gt;BH -->
<g id="edge41" class="edge">
<title>EG-&gt;BH</title>
<path fill="none" stroke="#000000" d="M88.0818,-265.7304C99.4447,-270.2531 113.4403,-275.8237 125.9555,-280.8051"/>
<polygon fill="#000000" stroke="#000000" points="125.011,-284.1962 135.5964,-284.6425 127.5997,-277.6924 125.011,-284.1962"/>
<text text-anchor="middle" x="112.0584" y="-280.9737" font-family="Times,serif" font-size="14.00" fill="#000000">a</text>
</g>
<!-- EG&#45;&gt;FH -->
<g id="edge42" class="edge">
<title>EG-&gt;FH</title>
<path fill="none" stroke="#000000" d="M83.064,-240.2216C97.4367,-226.6154 117.9683,-207.179 133.9895,-192.0124"/>
<polygon fill="#000000" stroke="#000000" points="136.5894,-194.3708 141.4453,-184.9543 131.777,-189.2873 136.5894,-194.3708"/>
<text text-anchor="middle" x="112.0584" y="-219.9737" font-family="Times,serif" font-size="14.00" fill="#000000">b</text>
</g>
<!-- EH&#45;&gt;BI -->
<g id="edge43" class="edge">
<title>EH-&gt;BI</title>
<path fill="none" stroke="#000000" d="M552.3089,-221.2943C565.1179,-215.8287 581.361,-208.8977 595.13,-203.0225"/>
<polygon fill="#000000" stroke="#000000" points="596.8101,-206.111 604.6341,-198.9671 594.0628,-199.6726 596.8101,-206.111"/>
<text text-anchor="middle" x="577.3567" y="-216.9737" font-family="Times,serif" font-size="14.00" fill="#000000">a</text>
</g>
<!-- EH&#45;&gt;FI -->
<g id="edge44" class="edge">
<title>EH-&gt;FI</title>
<path fill="none" stroke="#000000" d="M553.2656,-238.1894C565.968,-242.2545 581.8216,-247.3281 595.283,-251.6361"/>
<polygon fill="#000000" stroke="#000000" points="594.4279,-255.0372 605.0189,-254.7518 596.5615,-248.3703 594.4279,-255.0372"/>
<text text-anchor="middle" x="577.3567" y="-250.9737" font-family="Times,serif" font-size="14.00" fill="#000000">b</text>
</g>
<!-- EI&#45;&gt;BJ -->
<g id="edge45" class="edge">
<title>EI-&gt;BJ</title>
<path fill="none" stroke="#000000" d="M271.2077,-403.0619C299.049,-410.737 351.3073,-425.9023 394.4336,-442.7737 456.5179,-467.0615 463.4273,-506.7737 530.0932,-506.7737 530.0932,-506.7737 530.0932,-506.7737 845.7042,-506.7737 868.8803,-506.7737 892.5851,-495.7809 910.3589,-484.9115"/>
<polygon fill="#000000" stroke="#000000" points="912.5652,-487.6538 919.0787,-479.2977 908.7759,-481.7681 912.5652,-487.6538"/>
<text text-anchor="middle" x="577.3567" y="-510.9737" font-family="Times,serif" font-size="14.00" fill="#000000">a</text>
</g>
<!-- EI&#45;&gt;FJ -->
<g id="edge46" class="edge">
<title>EI-&gt;FJ</title>
<path fill="none" stroke="#000000" d="M263.4584,-381.4307C278.7899,-360.4847 305.6004,-323.8562 324.1533,-298.5092"/>
<polygon fill="#000000" stroke="#000000" points="327.0179,-300.5213 330.1001,-290.3847 321.3693,-296.3868 327.0179,-300.5213"/>
<text text-anchor="middle" x="297.9752" y="-342.9737" font-family="Times,serif" font-size="14.00" fill="#000000">b</text>
</g>
<!-- EK -->
<g id="node20" class="node">
<title>EK</title>
<ellipse fill="none" stroke="#000000" cx="1032.1176" cy="-421.7737" rx="23.8149" ry="23.8149"/>
<text text-anchor="middle" x="1032.1176" y="-417.5737" font-family="Times,serif" font-size="14.00" fill="#000000">EK</text>
</g>
<!-- EK&#45;&gt;BJ -->
<g id="edge49" class="edge">
<title>EK-&gt;BJ</title>
<path fill="none" stroke="#000000" d="M1008.7444,-427.1118C1000.4933,-429.3713 991.268,-432.3342 983.2103,-435.9737 978.4114,-438.1413 973.5205,-440.7699 968.8302,-443.5356"/>
<polygon fill="#000000" stroke="#000000" points="966.7817,-440.6878 960.1347,-448.9382 970.4759,-446.6337 966.7817,-440.6878"/>
<text text-anchor="middle" x="986.7103" y="-439.9737" font-family="Times,serif" font-size="14.00" fill="#000000">a</text>
</g>
<!-- EK&#45;&gt;FJ -->
<g id="edge50" class="edge">
<title>EK-&gt;FJ</title>
<path fill="none" stroke="#000000" d="M1007.9392,-420.6288C899.939,-415.3548 464.6728,-392.3482 412.4336,-361.7737 388.8193,-347.9527 370.8332,-322.3817 359.3114,-301.8575"/>
<polygon fill="#000000" stroke="#000000" points="362.287,-300.0004 354.4754,-292.8429 356.1186,-303.3096 362.287,-300.0004"/>
<text text-anchor="middle" x="688.0377" y="-406.9737" font-family="Times,serif" font-size="14.00" fill="#000000">b</text>
</g>
<!-- FG -->
<g id="node21" class="node">
<title>FG</title>
<ellipse fill="none" stroke="#000000" cx="65.5792" cy="-477.7737" rx="23.253" ry="23.253"/>
<text text-anchor="middle" x="65.5792" y="-473.5737" font-family="Times,serif" font-size="14.00" fill="#000000">FG</text>
</g>
<!-- FG&#45;&gt;CH -->
<g id="edge51" class="edge">
<title>FG-&gt;CH</title>
<path fill="none" stroke="#000000" d="M88.2889,-484.2977C106.9809,-489.0918 134.2563,-494.7737 158.5376,-494.7737 158.5376,-494.7737 158.5376,-494.7737 297.9752,-494.7737 388.5743,-494.7737 470.8784,-412.3027 508.5099,-368.0647"/>
<polygon fill="#000000" stroke="#000000" points="511.2882,-370.1981 515.0086,-360.2779 505.9139,-365.7128 511.2882,-370.1981"/>
<text text-anchor="middle" x="297.9752" y="-498.9737" font-family="Times,serif" font-size="14.00" fill="#000000">a</text>
</g>
<!-- FG&#45;&gt;DH -->
<g id="edge52" class="edge">
<title>FG-&gt;DH</title>
<path fill="none" stroke="#000000" d="M86.2097,-466.6771C98.2915,-460.1786 113.79,-451.8423 127.3391,-444.5546"/>
<polygon fill="#000000" stroke="#000000" points="129.193,-447.5317 136.3419,-439.7122 125.8771,-441.3669 129.193,-447.5317"/>
<text text-anchor="middle" x="112.0584" y="-457.9737" font-family="Times,serif" font-size="14.00" fill="#000000">b</text>
</g>
<!-- FH&#45;&gt;CI -->
<g id="edge53" class="edge">
<title>FH-&gt;CI</title>
<path fill="none" stroke="#000000" d="M177.7987,-182.4489C191.7575,-192.3597 210.7735,-205.8609 225.9926,-216.6664"/>
<polygon fill="#000000" stroke="#000000" points="224.2676,-219.7341 234.4477,-222.6695 228.3201,-214.0264 224.2676,-219.7341"/>
<text text-anchor="middle" x="205.0168" y="-207.9737" font-family="Times,serif" font-size="14.00" fill="#000000">a</text>
</g>
<!-- FH&#45;&gt;DI -->
<g id="edge54" class="edge">
<title>FH-&gt;DI</title>
<path fill="none" stroke="#000000" d="M174.9518,-151.6867C202.1197,-124.6495 259.4256,-72.7238 319.4752,-49.7737 347.1278,-39.2053 381.0004,-37.0664 405.2436,-37.2061"/>
<polygon fill="#000000" stroke="#000000" points="405.2575,-40.7069 415.3223,-37.3979 405.3908,-33.7082 405.2575,-40.7069"/>
<text text-anchor="middle" x="297.9752" y="-65.9737" font-family="Times,serif" font-size="14.00" fill="#000000">b</text>
</g>
<!-- FI&#45;&gt;CJ -->
<g id="edge55" class="edge">
<title>FI-&gt;CJ</title>
<path fill="none" stroke="#000000" d="M642.2693,-253.3234C662.3886,-245.1916 695.0057,-232.0085 719.5492,-222.0887"/>
<polygon fill="#000000" stroke="#000000" points="720.8884,-225.3225 728.8482,-218.3302 718.2653,-218.8326 720.8884,-225.3225"/>
<text text-anchor="middle" x="688.0377" y="-246.9737" font-family="Times,serif" font-size="14.00" fill="#000000">a</text>
</g>
<!-- FI&#45;&gt;DJ -->
<g id="edge56" class="edge">
<title>FI-&gt;DJ</title>
<path fill="none" stroke="#000000" d="M643.4202,-262.3748C687.2934,-265.87 796.8245,-274.0848 888.6834,-276.7737 893.4992,-276.9147 898.5712,-276.9044 903.5706,-276.8011"/>
<polygon fill="#000000" stroke="#000000" points="903.7437,-280.2974 913.6257,-276.4768 903.518,-273.301 903.7437,-280.2974"/>
<text text-anchor="middle" x="799.225" y="-277.9737" font-family="Times,serif" font-size="14.00" fill="#000000">b</text>
</g>
<!-- FK -->
<g id="node24" class="node">
<title>FK</title>
<ellipse fill="none" stroke="#000000" cx="845.7042" cy="-167.7737" rx="23.253" ry="23.253"/>
<text text-anchor="middle" x="845.7042" y="-163.5737" font-family="Times,serif" font-size="14.00" fill="#000000">FK</text>
</g>
<!-- FK&#45;&gt;CJ -->
<g id="edge59" class="edge">
<title>FK-&gt;CJ</title>
<path fill="none" stroke="#000000" d="M824.1073,-177.2733C812.6352,-182.3194 798.2907,-188.629 785.459,-194.2732"/>
<polygon fill="#000000" stroke="#000000" points="783.7583,-191.1975 776.0139,-198.4277 786.5768,-197.6051 783.7583,-191.1975"/>
<text text-anchor="middle" x="799.225" y="-193.9737" font-family="Times,serif" font-size="14.00" fill="#000000">a</text>
</g>
<!-- FK&#45;&gt;DJ -->
<g id="edge60" class="edge">
<title>FK-&gt;DJ</title>
<path fill="none" stroke="#000000" d="M864.1843,-182.7787C874.027,-191.1799 886.054,-202.1237 895.6834,-212.9737 904.2738,-222.6529 912.7286,-234.026 919.8818,-244.3591"/>
<polygon fill="#000000" stroke="#000000" points="917.0508,-246.4205 925.5588,-252.7343 922.8451,-242.4929 917.0508,-246.4205"/>
<text text-anchor="middle" x="892.1834" y="-217.9737" font-family="Times,serif" font-size="14.00" fill="#000000">b</text>
</g>
<!-- BJ&#45;&gt;CK -->
<g id="edge18" class="edge">
<title>BJ-&gt;CK</title>
<path fill="none" stroke="#000000" d="M919.7313,-447.5156C894.1167,-427.0497 847.3762,-391.9009 802.725,-369.7737 687.8228,-312.8332 537.4279,-280.2406 470.9761,-267.7408"/>
<polygon fill="#000000" stroke="#000000" points="471.5195,-264.282 461.05,-265.9065 470.2474,-271.1655 471.5195,-264.282"/>
<text text-anchor="middle" x="688.0377" y="-334.9737" font-family="Times,serif" font-size="14.00" fill="#000000">b</text>
</g>
<!-- BJ&#45;&gt;EK -->
<g id="edge17" class="edge">
<title>BJ-&gt;EK</title>
<path fill="none" stroke="#000000" d="M964.7357,-463.0667C973.1187,-462.1147 982.3182,-460.2643 990.2103,-456.7737 996.3546,-454.0561 1002.3088,-450.1606 1007.7074,-445.9476"/>
<polygon fill="#000000" stroke="#000000" points="1010.3152,-448.3254 1015.6807,-439.1897 1005.7892,-442.9854 1010.3152,-448.3254"/>
<text text-anchor="middle" x="986.7103" y="-462.9737" font-family="Times,serif" font-size="14.00" fill="#000000">a</text>
</g>
<!-- CJ&#45;&gt;AK -->
<g id="edge28" class="edge">
<title>CJ-&gt;AK</title>
<path fill="none" stroke="#000000" d="M776.9829,-216.3931C787.6629,-219.7159 800.36,-223.6662 811.9168,-227.2618"/>
<polygon fill="#000000" stroke="#000000" points="811.1116,-230.6767 821.6999,-230.3055 813.1912,-223.9927 811.1116,-230.6767"/>
<text text-anchor="middle" x="799.225" y="-228.9737" font-family="Times,serif" font-size="14.00" fill="#000000">b</text>
</g>
<!-- CJ&#45;&gt;FK -->
<g id="edge27" class="edge">
<title>CJ-&gt;FK</title>
<path fill="none" stroke="#000000" d="M766.7854,-187.6302C774.226,-178.5327 784.1845,-168.8748 795.725,-163.9737 801.0314,-161.7202 806.9385,-160.8875 812.78,-160.8912"/>
<polygon fill="#000000" stroke="#000000" points="812.8433,-164.4061 823.0801,-161.675 813.3745,-157.4263 812.8433,-164.4061"/>
<text text-anchor="middle" x="799.225" y="-168.9737" font-family="Times,serif" font-size="14.00" fill="#000000">a</text>
</g>
<!-- DJ&#45;&gt;AK -->
<g id="edge37" class="edge">
<title>DJ-&gt;AK</title>
<path fill="none" stroke="#000000" d="M923.2611,-254.6796C915.7817,-246.9696 906.2199,-239.0483 895.6834,-234.9737 890.8429,-233.1018 885.5409,-232.2556 880.2563,-232.0584"/>
<polygon fill="#000000" stroke="#000000" points="880.1233,-228.5608 870.2409,-232.3801 880.3481,-235.5572 880.1233,-228.5608"/>
<text text-anchor="middle" x="892.1834" y="-239.9737" font-family="Times,serif" font-size="14.00" fill="#000000">a</text>
</g>
<!-- DJ&#45;&gt;EK -->
<g id="edge38" class="edge">
<title>DJ-&gt;EK</title>
<path fill="none" stroke="#000000" d="M953.3206,-296.7811C969.4493,-322.3655 996.1235,-364.6777 1013.907,-392.887"/>
<polygon fill="#000000" stroke="#000000" points="1011.0501,-394.9184 1019.3438,-401.5112 1016.9717,-391.1853 1011.0501,-394.9184"/>
<text text-anchor="middle" x="986.7103" y="-356.9737" font-family="Times,serif" font-size="14.00" fill="#000000">b</text>
</g>
<!-- EJ&#45;&gt;BK -->
<g id="edge47" class="edge">
<title>EJ-&gt;BK</title>
<path fill="none" stroke="#000000" d="M729.2434,-70.0059C711.5988,-64.7242 687.0149,-60.3546 666.8151,-67.9737 659.7838,-70.6258 653.1561,-75.0097 647.3071,-79.8707"/>
<polygon fill="#000000" stroke="#000000" points="644.8759,-77.351 639.8491,-86.6774 649.5948,-82.5214 644.8759,-77.351"/>
<text text-anchor="middle" x="688.0377" y="-72.9737" font-family="Times,serif" font-size="14.00" fill="#000000">a</text>
</g>
<!-- EJ&#45;&gt;FK -->
<g id="edge48" class="edge">
<title>EJ-&gt;FK</title>
<path fill="none" stroke="#000000" d="M770.4648,-95.9338C784.9221,-109.7379 805.3813,-129.2726 821.3165,-144.4879"/>
<polygon fill="#000000" stroke="#000000" points="819.0801,-147.1917 828.7297,-151.5661 823.9141,-142.1289 819.0801,-147.1917"/>
<text text-anchor="middle" x="799.225" y="-130.9737" font-family="Times,serif" font-size="14.00" fill="#000000">b</text>
</g>
<!-- FJ&#45;&gt;CK -->
<g id="edge57" class="edge">
<title>FJ-&gt;CK</title>
<path fill="none" stroke="#000000" d="M368.647,-270.4074C376.8488,-270.1233 386.0538,-269.629 394.4336,-268.7737 397.1272,-268.4988 399.909,-268.1614 402.7001,-267.7847"/>
<polygon fill="#000000" stroke="#000000" points="403.3344,-271.2288 412.7076,-266.2898 402.3003,-264.3056 403.3344,-271.2288"/>
<text text-anchor="middle" x="390.9336" y="-273.9737" font-family="Times,serif" font-size="14.00" fill="#000000">a</text>
</g>
<!-- FJ&#45;&gt;DK -->
<g id="edge58" class="edge">
<title>FJ-&gt;DK</title>
<path fill="none" stroke="#000000" d="M358.4595,-250.5877C380.511,-220.4361 426.3162,-164.076 479.3298,-134.9737 519.8193,-112.7466 544.988,-141.8748 580.8567,-112.7737 595.9956,-100.4911 589.031,-89.6113 598.8567,-72.7737 599.9965,-70.8205 601.2247,-68.8439 602.5034,-66.8779"/>
<polygon fill="#000000" stroke="#000000" points="605.5296,-68.6543 608.3154,-58.4323 599.7631,-64.686 605.5296,-68.6543"/>
<text text-anchor="middle" x="482.8298" y="-139.9737" font-family="Times,serif" font-size="14.00" fill="#000000">b</text>
</g>
<!-- AJ&#45;&gt;BK -->
<g id="edge8" class="edge">
<title>AJ-&gt;BK</title>
<path fill="none" stroke="#000000" d="M554.723,-82.9186C565.7419,-86.5624 578.8957,-90.9123 590.7561,-94.8345"/>
<polygon fill="#000000" stroke="#000000" points="589.7462,-98.1868 600.3394,-98.0036 591.944,-91.5408 589.7462,-98.1868"/>
<text text-anchor="middle" x="577.3567" y="-95.9737" font-family="Times,serif" font-size="14.00" fill="#000000">b</text>
</g>
<!-- AJ&#45;&gt;DK -->
<g id="edge7" class="edge">
<title>AJ-&gt;DK</title>
<path fill="none" stroke="#000000" d="M543.9411,-52.7423C551.4581,-42.8971 561.7055,-32.3234 573.8567,-26.9737 579.3976,-24.5342 585.5156,-24.2192 591.5147,-25.0732"/>
<polygon fill="#000000" stroke="#000000" points="590.8343,-28.5093 601.3756,-27.4455 592.4716,-21.7035 590.8343,-28.5093"/>
<text text-anchor="middle" x="577.3567" y="-31.9737" font-family="Times,serif" font-size="14.00" fill="#000000">a</text>
</g>
<!-- q -->
<g id="node31" class="node">
<title>q</title>
<ellipse fill="#000000" stroke="#000000" cx="1.8" cy="-329.7737" rx="1.8" ry="1.8"/>
</g>
<!-- q&#45;&gt;AG -->
<g id="edge61" class="edge">
<title>q-&gt;AG</title>
<path fill="none" stroke="#000000" d="M3.64,-329.7737C7.8736,-329.7737 18.8311,-329.7737 30.3744,-329.7737"/>
<polygon fill="#000000" stroke="#000000" points="30.515,-333.2738 40.515,-329.7737 30.515,-326.2738 30.515,-333.2738"/>
</g>
</g>
</svg>