<?xml version="1.0" encoding="UTF-8" standalone="no"?><!DOCTYPE svg PUBLIC "-//W3C//DTD SVG 1.1//EN" "http://www.w3.org/Graphics/SVG/1.1/DTD/svg11.dtd"><!-- Generated by graphviz version 2.40.1 (20161225.0304)
 --><!-- Title: state_machine Pages: 1 --><svg xmlns="http://www.w3.org/2000/svg" xmlns:xlink="http://www.w3.org/1999/xlink" width="251pt" height="227pt" viewBox="0.00 0.00 250.63 226.82">
<g id="graph0" class="graph" transform="scale(1 1) rotate(0) translate(4 222.8157)">
<title>state_machine</title>
<polygon fill="#ffffff" stroke="transparent" points="-4,4 -4,-222.8157 246.6314,-222.8157 246.6314,4 -4,4"/>
<!-- B -->
<g id="node1" class="node">
<title>B</title>
<ellipse fill="none" stroke="#000000" cx="145.6236" cy="-20.0079" rx="18" ry="18"/>
<text text-anchor="middle" x="145.6236" y="-15.8079" font-family="Times,serif" font-size="14.00" fill="#000000">B</text>
</g>
<!-- B&#45;&gt;B -->
<g id="edge3" class="edge">
<title>B-&gt;B</title>
<path fill="none" stroke="#000000" d="M138.89,-37.0452C137.5158,-46.8658 139.7603,-56.0079 145.6236,-56.0079 149.2881,-56.0079 151.5391,-52.4367 152.3765,-47.3608"/>
<polygon fill="#000000" stroke="#000000" points="155.876,-47.0386 152.3572,-37.0452 148.876,-47.0517 155.876,-47.0386"/>
<text text-anchor="middle" x="145.6236" y="-60.2079" font-family="Times,serif" font-size="14.00" fill="#000000">b</text>
</g>
<!-- D -->
<g id="node2" class="node">
<title>D</title>
<ellipse fill="none" stroke="#000000" cx="145.6236" cy="-166.0079" rx="18.0157" ry="18.0157"/>
<text text-anchor="middle" x="145.6236" y="-161.8079" font-family="Times,serif" font-size="14.00" fill="#000000">D</text>
</g>
<!-- D&#45;&gt;D -->
<g id="edge7" class="edge">
<title>D-&gt;D</title>
<path fill="none" stroke="#000000" d="M138.89,-183.0489C137.5158,-192.8716 139.7603,-202.0157 145.6236,-202.0157 149.2881,-202.0157 151.5391,-198.4438 152.3765,-193.3667"/>
<polygon fill="#000000" stroke="#000000" points="155.876,-193.0423 152.3572,-183.0489 148.876,-193.0555 155.876,-193.0423"/>
<text text-anchor="middle" x="145.6236" y="-206.2157" font-family="Times,serif" font-size="14.00" fill="#000000">a</text>
</g>
<!-- E -->
<g id="node3" class="node">
<title>E</title>
<ellipse fill="none" stroke="#000000" cx="224.6314" cy="-129.0079" rx="18" ry="18"/>
<text text-anchor="middle" x="224.6314" y="-124.8079" font-family="Times,serif" font-size="14.00" fill="#000000">E</text>
</g>
<!-- D&#45;&gt;E -->
<g id="edge8" class="edge">
<title>D-&gt;E</title>
<path fill="none" stroke="#000000" d="M161.994,-158.3414C172.6935,-153.3308 186.8887,-146.6831 199.0601,-140.9831"/>
<polygon fill="#000000" stroke="#000000" points="200.7102,-144.0752 208.2819,-136.6645 197.7414,-137.7359 200.7102,-144.0752"/>
<text text-anchor="middle" x="185.1314" y="-152.2079" font-family="Times,serif" font-size="14.00" fill="#000000">b</text>
</g>
<!-- E&#45;&gt;E -->
<g id="edge9" class="edge">
<title>E-&gt;E</title>
<path fill="none" stroke="#000000" d="M217.8978,-146.0452C216.5236,-155.8658 218.7681,-165.0079 224.6314,-165.0079 228.296,-165.0079 230.547,-161.4367 231.3844,-156.3608"/>
<polygon fill="#000000" stroke="#000000" points="234.8839,-156.0386 231.365,-146.0452 227.8839,-156.0517 234.8839,-156.0386"/>
<text text-anchor="middle" x="224.6314" y="-169.2079" font-family="Times,serif" font-size="14.00" fill="#000000">a</text>
</g>
<!-- C -->
<g id="node4" class="node">
<title>C</title>
<ellipse fill="none" stroke="#000000" cx="62.6079" cy="-137.0079" rx="18" ry="18"/>
<ellipse fill="none" stroke="#000000" cx="62.6079" cy="-137.0079" rx="22" ry="22"/>
<text text-anchor="middle" x="62.6079" y="-132.8079" font-family="Times,serif" font-size="14.00" fill="#000000">C</text>
</g>
<!-- C&#45;&gt;D -->
<g id="edge6" class="edge">
<title>C-&gt;D</title>
<path fill="none" stroke="#000000" d="M83.5562,-144.3258C94.3298,-148.0893 107.5756,-152.7165 119.0599,-156.7283"/>
<polygon fill="#000000" stroke="#000000" points="117.9976,-160.0646 128.5924,-160.0583 120.3061,-153.4562 117.9976,-160.0646"/>
<text text-anchor="middle" x="106.1157" y="-157.2079" font-family="Times,serif" font-size="14.00" fill="#000000">b</text>
</g>
<!-- C&#45;&gt;E -->
<g id="edge10" class="edge">
<title>C-&gt;E</title>
<path fill="none" stroke="#000000" d="M93.5276,-128.4828C104.2349,-125.9284 116.3712,-123.4717 127.6157,-122.2079 143.5225,-120.42 147.6491,-121.3198 163.6314,-122.2079 178.2075,-123.0178 194.6525,-124.9083 206.7917,-126.4909"/>
<polygon fill="#000000" stroke="#000000" points="92.6251,-125.1006 83.7755,-130.9259 94.3263,-131.8908 92.6251,-125.1006"/>
<text text-anchor="middle" x="145.6236" y="-127.2079" font-family="Times,serif" font-size="14.00" fill="#000000">b</text>
</g>
<!-- C&#45;&gt;C -->
<g id="edge5" class="edge">
<title>C-&gt;C</title>
<path fill="none" stroke="#000000" d="M55.291,-157.9986C54.3876,-168.0951 56.8266,-177.0079 62.6079,-177.0079 66.3115,-177.0079 68.6434,-173.3501 69.6037,-168.0665"/>
<polygon fill="#000000" stroke="#000000" points="73.1041,-168.1051 69.9248,-157.9986 66.1077,-167.8819 73.1041,-168.1051"/>
<text text-anchor="middle" x="62.6079" y="-181.2079" font-family="Times,serif" font-size="14.00" fill="#000000">a</text>
</g>
<!-- A -->
<g id="node5" class="node">
<title>A</title>
<ellipse fill="none" stroke="#000000" cx="62.6079" cy="-22.0079" rx="18.0143" ry="18.0143"/>
<ellipse fill="none" stroke="#000000" cx="62.6079" cy="-22.0079" rx="22.0157" ry="22.0157"/>
<text text-anchor="middle" x="62.6079" y="-17.8079" font-family="Times,serif" font-size="14.00" fill="#000000">A</text>
</g>
<!-- A&#45;&gt;B -->
<g id="edge1" class="edge">
<title>A-&gt;B</title>
<path fill="none" stroke="#000000" d="M84.1186,-26.9032C92.1169,-28.1568 101.274,-28.9234 109.6157,-28.0079 112.3847,-27.704 115.2524,-27.2724 118.1052,-26.7652"/>
<polygon fill="#000000" stroke="#000000" points="119.0826,-30.1374 128.1701,-24.6907 117.6694,-23.2815 119.0826,-30.1374"/>
<text text-anchor="middle" x="106.1157" y="-33.2079" font-family="Times,serif" font-size="14.00" fill="#000000">a</text>
</g>
<!-- A&#45;&gt;B -->
<g id="edge4" class="edge">
<title>A-&gt;B</title>
<path fill="none" stroke="#000000" d="M92.6561,-9.616C95.9719,-8.6333 99.3353,-7.7952 102.6157,-7.2079 111.6644,-5.5878 121.5089,-8.1808 129.4931,-11.4471"/>
<polygon fill="#000000" stroke="#000000" points="91.3316,-6.3691 82.982,-12.8911 93.5763,-12.9995 91.3316,-6.3691"/>
<text text-anchor="middle" x="106.1157" y="-12.2079" font-family="Times,serif" font-size="14.00" fill="#000000">a</text>
</g>
<!-- A&#45;&gt;A -->
<g id="edge2" class="edge">
<title>A-&gt;A</title>
<path fill="none" stroke="#000000" d="M55.291,-43.0027C54.3876,-53.1012 56.8266,-62.0157 62.6079,-62.0157 66.3115,-62.0157 68.6434,-58.3572 69.6037,-53.0726"/>
<polygon fill="#000000" stroke="#000000" points="73.1042,-53.1092 69.9248,-43.0027 66.1077,-52.8861 73.1042,-53.1092"/>
<text text-anchor="middle" x="62.6079" y="-66.2157" font-family="Times,serif" font-size="14.00" fill="#000000">b</text>
</g>
<!-- q -->
<g id="node6" class="node">
<title>q</title>
<ellipse fill="#000000" stroke="#000000" cx="1.8" cy="-22.0079" rx="1.8" ry="1.8"/>
</g>
<!-- q&#45;&gt;A -->
<g id="edge11" class="edge">
<title>q-&gt;A</title>
<path fill="none" stroke="#000000" d="M3.8232,-22.0079C8.2094,-22.0079 19.1077,-22.0079 30.3458,-22.0079"/>
<polygon fill="#000000" stroke="#000000" points="30.585,-25.508 40.585,-22.0079 30.5849,-18.508 30.585,-25.508"/>
</g>
<!-- r -->
<g id="node7" class="node">
<title>r</title>
<ellipse fill="#000000" stroke="#000000" cx="1.8" cy="-137.0079" rx="1.8" ry="1.8"/>
</g>
<!-- r&#45;&gt;C -->
<g id="edge12" class="edge">
<title>r-&gt;C</title>
<path fill="none" stroke="#000000" d="M3.8232,-137.0079C8.2094,-137.0079 19.1077,-137.0079 30.3458,-137.0079"/>
<polygon fill="#000000" stroke="#000000" points="30.585,-140.508 40.585,-137.0079 30.5849,-133.508 30.585,-140.508"/>
</g>
</g>
</svg>