<?xml version="1.0" encoding="UTF-8" standalone="no"?><!DOCTYPE svg PUBLIC "-//W3C//DTD SVG 1.1//EN" "http://www.w3.org/Graphics/SVG/1.1/DTD/svg11.dtd"><!-- Generated by graphviz version 2.40.1 (20161225.0304)
 --><!-- Title: state_machine Pages: 1 --><svg xmlns="http://www.w3.org/2000/svg" xmlns:xlink="http://www.w3.org/1999/xlink" width="694pt" height="171pt" viewBox="0.00 0.00 693.55 171.49">
<g id="graph0" class="graph" transform="scale(1 1) rotate(0) translate(4 167.4935)">
<title>state_machine</title>
<polygon fill="#ffffff" stroke="transparent" points="-4,4 -4,-167.4935 689.5536,-167.4935 689.5536,4 -4,4"/>
<!-- q0 -->
<g id="node1" class="node">
<title>q0</title>
<ellipse fill="none" stroke="#000000" cx="61.2935" cy="-20.6935" rx="20.8887" ry="20.8887"/>
<text text-anchor="middle" x="61.2935" y="-16.4935" font-family="Times,serif" font-size="14.00" fill="#000000">q0</text>
</g>
<!-- q1 -->
<g id="node2" class="node">
<title>q1</title>
<ellipse fill="none" stroke="#000000" cx="144.895" cy="-60.6935" rx="20.8887" ry="20.8887"/>
<text text-anchor="middle" x="144.895" y="-56.4935" font-family="Times,serif" font-size="14.00" fill="#000000">q1</text>
</g>
<!-- q0&#45;&gt;q1 -->
<g id="edge1" class="edge">
<title>q0-&gt;q1</title>
<path fill="none" stroke="#000000" d="M80.2639,-29.7701C91.0598,-34.9355 104.7865,-41.5031 116.8103,-47.2561"/>
<polygon fill="#000000" stroke="#000000" points="115.4683,-50.4939 125.9996,-51.6528 118.4895,-44.1795 115.4683,-50.4939"/>
<text text-anchor="middle" x="103.0942" y="-46.8935" font-family="Times,serif" font-size="14.00" fill="#000000">a</text>
</g>
<!-- q7 -->
<g id="node8" class="node">
<title>q7</title>
<ellipse fill="none" stroke="#000000" cx="660.8602" cy="-40.6935" rx="20.8568" ry="20.8568"/>
<ellipse fill="none" stroke="#000000" cx="660.8602" cy="-40.6935" rx="24.8884" ry="24.8884"/>
<text text-anchor="middle" x="660.8602" y="-36.4935" font-family="Times,serif" font-size="14.00" fill="#000000">q7</text>
</g>
<!-- q0&#45;&gt;q7 -->
<g id="edge2" class="edge">
<title>q0-&gt;q7</title>
<path fill="none" stroke="#000000" d="M81.3598,-14.6445C98.1679,-10.1136 122.8764,-4.6935 144.895,-4.6935 144.895,-4.6935 144.895,-4.6935 572.4733,-4.6935 592.9722,-4.6935 614.3011,-13.1015 630.8702,-21.7907"/>
<polygon fill="#000000" stroke="#000000" points="629.5916,-25.0841 640.0335,-26.8779 632.9893,-18.9639 629.5916,-25.0841"/>
<text text-anchor="middle" x="354.2914" y="-8.8935" font-family="Times,serif" font-size="14.00" fill="#000000">a</text>
</g>
<!-- q2 -->
<g id="node3" class="node">
<title>q2</title>
<ellipse fill="none" stroke="#000000" cx="228.4965" cy="-68.6935" rx="20.8887" ry="20.8887"/>
<text text-anchor="middle" x="228.4965" y="-64.4935" font-family="Times,serif" font-size="14.00" fill="#000000">q2</text>
</g>
<!-- q1&#45;&gt;q2 -->
<g id="edge3" class="edge">
<title>q1-&gt;q2</title>
<path fill="none" stroke="#000000" d="M165.5605,-62.671C175.207,-63.5941 186.8913,-64.7122 197.5608,-65.7332"/>
<polygon fill="#000000" stroke="#000000" points="197.491,-69.2424 207.7789,-66.7109 198.1578,-62.2742 197.491,-69.2424"/>
<text text-anchor="middle" x="186.6957" y="-69.8935" font-family="Times,serif" font-size="14.00" fill="#000000">a</text>
</g>
<!-- q3 -->
<g id="node4" class="node">
<title>q3</title>
<ellipse fill="none" stroke="#000000" cx="312.098" cy="-133.6935" rx="20.8887" ry="20.8887"/>
<text text-anchor="middle" x="312.098" y="-129.4935" font-family="Times,serif" font-size="14.00" fill="#000000">q3</text>
</g>
<!-- q2&#45;&gt;q3 -->
<g id="edge4" class="edge">
<title>q2-&gt;q3</title>
<path fill="none" stroke="#000000" d="M245.0134,-81.5354C257.1508,-90.9722 273.8438,-103.9509 287.5413,-114.6007"/>
<polygon fill="#000000" stroke="#000000" points="285.5724,-117.5033 295.6153,-120.8782 289.869,-111.977 285.5724,-117.5033"/>
<text text-anchor="middle" x="270.2972" y="-107.8935" font-family="Times,serif" font-size="14.00" fill="#000000">a</text>
</g>
<!-- q5 -->
<g id="node7" class="node">
<title>q5</title>
<ellipse fill="none" stroke="#000000" cx="484.8718" cy="-83.6935" rx="20.8568" ry="20.8568"/>
<ellipse fill="none" stroke="#000000" cx="484.8718" cy="-83.6935" rx="24.8884" ry="24.8884"/>
<text text-anchor="middle" x="484.8718" y="-79.4935" font-family="Times,serif" font-size="14.00" fill="#000000">q5</text>
</g>
<!-- q2&#45;&gt;q5 -->
<g id="edge5" class="edge">
<title>q2-&gt;q5</title>
<path fill="none" stroke="#000000" d="M249.4767,-69.921C293.4259,-72.4923 395.5592,-78.468 449.708,-81.6361"/>
<polygon fill="#000000" stroke="#000000" points="449.6792,-85.1403 459.8666,-82.2304 450.0881,-78.1522 449.6792,-85.1403"/>
<text text-anchor="middle" x="354.2914" y="-80.8935" font-family="Times,serif" font-size="14.00" fill="#000000">b</text>
</g>
<!-- q4 -->
<g id="node5" class="node">
<title>q4</title>
<ellipse fill="none" stroke="#000000" cx="396.4849" cy="-133.6935" rx="20.8887" ry="20.8887"/>
<text text-anchor="middle" x="396.4849" y="-129.4935" font-family="Times,serif" font-size="14.00" fill="#000000">q4</text>
</g>
<!-- q3&#45;&gt;q4 -->
<g id="edge6" class="edge">
<title>q3-&gt;q4</title>
<path fill="none" stroke="#000000" d="M331.4695,-141.5681C337.5503,-143.6666 344.3572,-145.6415 350.7914,-146.6935 356.3874,-147.6084 362.2732,-147.0943 367.8896,-145.8528"/>
<polygon fill="#000000" stroke="#000000" points="368.991,-149.177 377.5873,-142.9839 367.0052,-142.4645 368.991,-149.177"/>
<text text-anchor="middle" x="354.2914" y="-150.8935" font-family="Times,serif" font-size="14.00" fill="#000000">b</text>
</g>
<!-- q4&#45;&gt;q3 -->
<g id="edge8" class="edge">
<title>q4-&gt;q3</title>
<path fill="none" stroke="#000000" d="M376.5487,-127.9255C368.5727,-126.2381 359.2798,-125.0464 350.7914,-125.8935 348.0724,-126.1648 345.2616,-126.5408 342.4537,-126.9824"/>
<polygon fill="#000000" stroke="#000000" points="341.6781,-123.5659 332.4655,-128.7985 342.9304,-130.453 341.6781,-123.5659"/>
<text text-anchor="middle" x="354.2914" y="-130.8935" font-family="Times,serif" font-size="14.00" fill="#000000">a</text>
</g>
<!-- q4&#45;&gt;q5 -->
<g id="edge7" class="edge">
<title>q4-&gt;q5</title>
<path fill="none" stroke="#000000" d="M414.7987,-123.3334C426.22,-116.8725 441.2019,-108.3973 454.3799,-100.9425"/>
<polygon fill="#000000" stroke="#000000" points="456.1686,-103.952 463.1491,-95.9819 452.7219,-97.8593 456.1686,-103.952"/>
<text text-anchor="middle" x="438.6783" y="-115.8935" font-family="Times,serif" font-size="14.00" fill="#000000">b</text>
</g>
<!-- q6 -->
<g id="node6" class="node">
<title>q6</title>
<ellipse fill="none" stroke="#000000" cx="572.4733" cy="-80.6935" rx="20.8887" ry="20.8887"/>
<text text-anchor="middle" x="572.4733" y="-76.4935" font-family="Times,serif" font-size="14.00" fill="#000000">q6</text>
</g>
<!-- q6&#45;&gt;q7 -->
<g id="edge11" class="edge">
<title>q6-&gt;q7</title>
<path fill="none" stroke="#000000" d="M591.6519,-72.014C602.5759,-67.0704 616.5403,-60.7507 629.0607,-55.0845"/>
<polygon fill="#000000" stroke="#000000" points="630.612,-58.2242 638.2794,-50.9125 627.7259,-51.8469 630.612,-58.2242"/>
<text text-anchor="middle" x="614.6667" y="-67.8935" font-family="Times,serif" font-size="14.00" fill="#000000">b</text>
</g>
<!-- q5&#45;&gt;q2 -->
<g id="edge10" class="edge">
<title>q5-&gt;q2</title>
<path fill="none" stroke="#000000" d="M460.7658,-76.792C435.3936,-69.9137 394.1661,-59.8256 357.7914,-55.8935 324.0865,-52.2499 285.3932,-57.2962 259.1856,-62.0848"/>
<polygon fill="#000000" stroke="#000000" points="258.2672,-58.6973 249.1099,-64.0261 259.5915,-65.5709 258.2672,-58.6973"/>
<text text-anchor="middle" x="354.2914" y="-60.8935" font-family="Times,serif" font-size="14.00" fill="#000000">a</text>
</g>
<!-- q5&#45;&gt;q6 -->
<g id="edge9" class="edge">
<title>q5-&gt;q6</title>
<path fill="none" stroke="#000000" d="M509.7405,-82.8418C519.6802,-82.5014 531.2306,-82.1058 541.6912,-81.7476"/>
<polygon fill="#000000" stroke="#000000" points="541.8143,-85.2455 551.6887,-81.4052 541.5747,-78.2496 541.8143,-85.2455"/>
<text text-anchor="middle" x="530.6725" y="-86.8935" font-family="Times,serif" font-size="14.00" fill="#000000">a</text>
</g>
<!-- q7&#45;&gt;q6 -->
<g id="edge12" class="edge">
<title>q7-&gt;q6</title>
<path fill="none" stroke="#000000" d="M636.316,-36.3396C628.0385,-35.889 618.9354,-36.5543 611.1667,-39.8935 603.3471,-43.2545 596.3657,-49.0586 590.5585,-55.2519"/>
<polygon fill="#000000" stroke="#000000" points="587.6577,-53.2609 583.8562,-63.1502 592.9951,-57.79 587.6577,-53.2609"/>
<text text-anchor="middle" x="614.6667" y="-44.8935" font-family="Times,serif" font-size="14.00" fill="#000000">a</text>
</g>
<!-- q -->
<g id="node9" class="node">
<title>q</title>
<ellipse fill="#000000" stroke="#000000" cx="1.8" cy="-20.6935" rx="1.8" ry="1.8"/>
</g>
<!-- q&#45;&gt;q0 -->
<g id="edge13" class="edge">
<title>q-&gt;q0</title>
<path fill="none" stroke="#000000" d="M3.7795,-20.6935C8.1326,-20.6935 19.0417,-20.6935 30.2036,-20.6935"/>
<polygon fill="#000000" stroke="#000000" points="30.3445,-24.1936 40.3444,-20.6935 30.3444,-17.1936 30.3445,-24.1936"/>
</g>
</g>
</svg>