<?xml version="1.0" encoding="UTF-8" standalone="no"?><!DOCTYPE svg PUBLIC "-//W3C//DTD SVG 1.1//EN" "http://www.w3.org/Graphics/SVG/1.1/DTD/svg11.dtd"><!-- Generated by graphviz version 2.40.1 (20161225.0304)
 --><!-- Title: state_machine Pages: 1 --><svg xmlns="http://www.w3.org/2000/svg" xmlns:xlink="http://www.w3.org/1999/xlink" width="584pt" height="182pt" viewBox="0.00 0.00 584.29 182.36">
<g id="graph0" class="graph" transform="scale(1 1) rotate(0) translate(4 178.3577)">
<title>state_machine</title>
<polygon fill="#ffffff" stroke="transparent" points="-4,4 -4,-178.3577 580.2923,-178.3577 580.2923,4 -4,4"/>
<!-- q0 -->
<g id="node1" class="node">
<title>q0</title>
<ellipse fill="none" stroke="#000000" cx="61.2935" cy="-39.1789" rx="20.8887" ry="20.8887"/>
<text text-anchor="middle" x="61.2935" y="-34.9789" font-family="Times,serif" font-size="14.00" fill="#000000">q0</text>
</g>
<!-- q1, q7 -->
<g id="node5" class="node">
<title>q1, q7</title>
<ellipse fill="none" stroke="#000000" cx="163.3804" cy="-39.1789" rx="35.3402" ry="35.3402"/>
<ellipse fill="none" stroke="#000000" cx="163.3804" cy="-39.1789" rx="39.3586" ry="39.3586"/>
<text text-anchor="middle" x="163.3804" y="-34.9789" font-family="Times,serif" font-size="14.00" fill="#000000">q1, q7</text>
</g>
<!-- q0&#45;&gt;q1, q7 -->
<g id="edge1" class="edge">
<title>q0-&gt;q1, q7</title>
<path fill="none" stroke="#000000" d="M82.4459,-39.1789C91.657,-39.1789 102.8733,-39.1789 113.9852,-39.1789"/>
<polygon fill="#000000" stroke="#000000" points="114.1003,-42.679 124.1003,-39.1789 114.1002,-35.679 114.1003,-42.679"/>
<text text-anchor="middle" x="103.0942" y="-43.3789" font-family="Times,serif" font-size="14.00" fill="#000000">a</text>
</g>
<!-- q2, q6 -->
<g id="node2" class="node">
<title>q2, q6</title>
<ellipse fill="none" stroke="#000000" cx="280.7381" cy="-95.1789" rx="35.3587" ry="35.3587"/>
<text text-anchor="middle" x="280.7381" y="-90.9789" font-family="Times,serif" font-size="14.00" fill="#000000">q2, q6</text>
</g>
<!-- q3 -->
<g id="node3" class="node">
<title>q3</title>
<ellipse fill="none" stroke="#000000" cx="378.825" cy="-128.1789" rx="20.8887" ry="20.8887"/>
<text text-anchor="middle" x="378.825" y="-123.9789" font-family="Times,serif" font-size="14.00" fill="#000000">q3</text>
</g>
<!-- q2, q6&#45;&gt;q3 -->
<g id="edge3" class="edge">
<title>q2, q6-&gt;q3</title>
<path fill="none" stroke="#000000" d="M314.2197,-106.4433C325.6072,-110.2745 338.2435,-114.5258 349.2987,-118.2452"/>
<polygon fill="#000000" stroke="#000000" points="348.3318,-121.6125 358.9258,-121.4841 350.5639,-114.978 348.3318,-121.6125"/>
<text text-anchor="middle" x="337.0243" y="-118.3789" font-family="Times,serif" font-size="14.00" fill="#000000">a</text>
</g>
<!-- q4 -->
<g id="node4" class="node">
<title>q4</title>
<ellipse fill="none" stroke="#000000" cx="463.2119" cy="-128.1789" rx="20.8887" ry="20.8887"/>
<text text-anchor="middle" x="463.2119" y="-123.9789" font-family="Times,serif" font-size="14.00" fill="#000000">q4</text>
</g>
<!-- q3&#45;&gt;q4 -->
<g id="edge4" class="edge">
<title>q3-&gt;q4</title>
<path fill="none" stroke="#000000" d="M397.7226,-137.4693C405.8694,-140.4484 415.5649,-142.6428 424.5185,-141.1789 427.6351,-140.6693 430.8391,-139.9432 434.0057,-139.0915"/>
<polygon fill="#000000" stroke="#000000" points="435.3188,-142.3491 443.8404,-136.0536 433.2528,-135.6609 435.3188,-142.3491"/>
<text text-anchor="middle" x="421.0185" y="-145.3789" font-family="Times,serif" font-size="14.00" fill="#000000">b</text>
</g>
<!-- q4&#45;&gt;q3 -->
<g id="edge5" class="edge">
<title>q4-&gt;q3</title>
<path fill="none" stroke="#000000" d="M443.2758,-122.4109C435.2998,-120.7235 426.0068,-119.5318 417.5185,-120.3789 414.7995,-120.6502 411.9887,-121.0262 409.1808,-121.4678"/>
<polygon fill="#000000" stroke="#000000" points="408.4051,-118.0514 399.1926,-123.2839 409.6574,-124.9384 408.4051,-118.0514"/>
<text text-anchor="middle" x="421.0185" y="-124.3789" font-family="Times,serif" font-size="14.00" fill="#000000">a</text>
</g>
<!-- q5 -->
<g id="node7" class="node">
<title>q5</title>
<ellipse fill="none" stroke="#000000" cx="551.5988" cy="-95.1789" rx="20.8568" ry="20.8568"/>
<ellipse fill="none" stroke="#000000" cx="551.5988" cy="-95.1789" rx="24.8884" ry="24.8884"/>
<text text-anchor="middle" x="551.5988" y="-90.9789" font-family="Times,serif" font-size="14.00" fill="#000000">q5</text>
</g>
<!-- q4&#45;&gt;q5 -->
<g id="edge6" class="edge">
<title>q4-&gt;q5</title>
<path fill="none" stroke="#000000" d="M482.8279,-120.8551C493.4223,-116.8996 506.7799,-111.9124 518.8984,-107.3879"/>
<polygon fill="#000000" stroke="#000000" points="520.131,-110.6637 528.2751,-103.887 517.6825,-104.1059 520.131,-110.6637"/>
<text text-anchor="middle" x="505.4054" y="-117.3789" font-family="Times,serif" font-size="14.00" fill="#000000">b</text>
</g>
<!-- q1, q7&#45;&gt;q2, q6 -->
<g id="edge2" class="edge">
<title>q1, q7-&gt;q2, q6</title>
<path fill="none" stroke="#000000" d="M199.0603,-55.8765C208.3488,-60.2485 218.3373,-64.9723 227.5592,-69.3789 231.5738,-71.2972 235.7541,-73.3058 239.9286,-75.3191"/>
<polygon fill="#000000" stroke="#000000" points="238.4655,-78.4993 248.992,-79.7009 241.5123,-72.1971 238.4655,-78.4993"/>
<text text-anchor="middle" x="224.0592" y="-74.3789" font-family="Times,serif" font-size="14.00" fill="#000000">a</text>
</g>
<!-- q5, q7 -->
<g id="node6" class="node">
<title>q5, q7</title>
<ellipse fill="none" stroke="#000000" cx="163.3804" cy="-135.1789" rx="35.3402" ry="35.3402"/>
<ellipse fill="none" stroke="#000000" cx="163.3804" cy="-135.1789" rx="39.3586" ry="39.3586"/>
<text text-anchor="middle" x="163.3804" y="-130.9789" font-family="Times,serif" font-size="14.00" fill="#000000">q5, q7</text>
</g>
<!-- q5, q7&#45;&gt;q2, q6 -->
<g id="edge8" class="edge">
<title>q5, q7-&gt;q2, q6</title>
<path fill="none" stroke="#000000" d="M200.5131,-122.5226C212.3823,-118.4771 225.6174,-113.9661 237.8607,-109.7931"/>
<polygon fill="#000000" stroke="#000000" points="239.0859,-113.0733 247.422,-106.5343 236.8275,-106.4476 239.0859,-113.0733"/>
<text text-anchor="middle" x="224.0592" y="-119.3789" font-family="Times,serif" font-size="14.00" fill="#000000">a</text>
</g>
<!-- q5, q7&#45;&gt;q2, q6 -->
<g id="edge9" class="edge">
<title>q5, q7-&gt;q2, q6</title>
<path fill="none" stroke="#000000" d="M200.4757,-102.281C206.8099,-98.2227 213.603,-94.694 220.5592,-92.3789 228.4983,-89.7367 237.3523,-89.0193 245.7741,-89.2817"/>
<polygon fill="#000000" stroke="#000000" points="198.3562,-99.4919 192.1504,-108.079 202.3567,-105.2361 198.3562,-99.4919"/>
<text text-anchor="middle" x="224.0592" y="-96.3789" font-family="Times,serif" font-size="14.00" fill="#000000">b</text>
</g>
<!-- q5&#45;&gt;q2, q6 -->
<g id="edge7" class="edge">
<title>q5-&gt;q2, q6</title>
<path fill="none" stroke="#000000" d="M526.6477,-95.1789C481.1449,-95.1789 384.0707,-95.1789 326.4308,-95.1789"/>
<polygon fill="#000000" stroke="#000000" points="326.1485,-91.679 316.1484,-95.1789 326.1484,-98.679 326.1485,-91.679"/>
<text text-anchor="middle" x="421.0185" y="-99.3789" font-family="Times,serif" font-size="14.00" fill="#000000">a</text>
</g>
<!-- q -->
<g id="node8" class="node">
<title>q</title>
<ellipse fill="#000000" stroke="#000000" cx="1.8" cy="-39.1789" rx="1.8" ry="1.8"/>
</g>
<!-- q&#45;&gt;q0 -->
<g id="edge10" class="edge">
<title>q-&gt;q0</title>
<path fill="none" stroke="#000000" d="M3.7795,-39.1789C8.1326,-39.1789 19.0417,-39.1789 30.2036,-39.1789"/>
<polygon fill="#000000" stroke="#000000" points="30.3445,-42.679 40.3444,-39.1789 30.3444,-35.679 30.3445,-42.679"/>
</g>
</g>
</svg>