<?xml version="1.0" encoding="UTF-8" standalone="no"?><!DOCTYPE svg PUBLIC "-//W3C//DTD SVG 1.1//EN" "http://www.w3.org/Graphics/SVG/1.1/DTD/svg11.dtd"><!-- Generated by graphviz version 2.40.1 (20161225.0304)
 --><!-- Title: state_machine Pages: 1 --><svg xmlns="http://www.w3.org/2000/svg" xmlns:xlink="http://www.w3.org/1999/xlink" width="196pt" height="88pt" viewBox="0.00 0.00 195.59 88.19">
<g id="graph0" class="graph" transform="scale(1 1) rotate(0) translate(4 84.1869)">
<title>state_machine</title>
<polygon fill="#ffffff" stroke="transparent" points="-4,4 -4,-84.1869 191.5884,-84.1869 191.5884,4 -4,4"/>
<!-- q1 -->
<g id="node1" class="node">
<title>q1</title>
<ellipse fill="none" stroke="#000000" cx="166.895" cy="-24.6935" rx="20.8887" ry="20.8887"/>
<text text-anchor="middle" x="166.895" y="-20.4935" font-family="Times,serif" font-size="14.00" fill="#000000">q1</text>
</g>
<!-- q1&#45;&gt;q1 -->
<g id="edge2" class="edge">
<title>q1-&gt;q1</title>
<path fill="none" stroke="#000000" d="M158.2663,-43.8056C156.8,-54.052 159.6762,-63.3869 166.895,-63.3869 171.5195,-63.3869 174.3618,-59.5559 175.422,-54.1084"/>
<polygon fill="#000000" stroke="#000000" points="178.9247,-53.8397 175.5236,-43.8056 171.925,-53.7705 178.9247,-53.8397"/>
<text text-anchor="middle" x="166.895" y="-67.5869" font-family="Times,serif" font-size="14.00" fill="#000000">a, b</text>
</g>
<!-- q0 -->
<g id="node2" class="node">
<title>q0</title>
<ellipse fill="none" stroke="#000000" cx="65.2935" cy="-24.6935" rx="20.8568" ry="20.8568"/>
<ellipse fill="none" stroke="#000000" cx="65.2935" cy="-24.6935" rx="24.8884" ry="24.8884"/>
<text text-anchor="middle" x="65.2935" y="-20.4935" font-family="Times,serif" font-size="14.00" fill="#000000">q0</text>
</g>
<!-- q0&#45;&gt;q1 -->
<g id="edge1" class="edge">
<title>q0-&gt;q1</title>
<path fill="none" stroke="#000000" d="M90.148,-24.6935C103.9519,-24.6935 121.2497,-24.6935 135.9272,-24.6935"/>
<polygon fill="#000000" stroke="#000000" points="136.0643,-28.1936 146.0643,-24.6935 136.0642,-21.1936 136.0643,-28.1936"/>
<text text-anchor="middle" x="118.0942" y="-28.8935" font-family="Times,serif" font-size="14.00" fill="#000000">a, b</text>
</g>
<!-- q -->
<g id="node3" class="node">
<title>q</title>
<ellipse fill="#000000" stroke="#000000" cx="1.8" cy="-24.6935" rx="1.8" ry="1.8"/>
</g>
<!-- q&#45;&gt;q0 -->
<g id="edge3" class="edge">
<title>q-&gt;q0</title>
<path fill="none" stroke="#000000" d="M3.6318,-24.6935C7.8464,-24.6935 18.7548,-24.6935 30.2464,-24.6935"/>
<polygon fill="#000000" stroke="#000000" points="30.3416,-28.1936 40.3415,-24.6935 30.3415,-21.1936 30.3416,-28.1936"/>
</g>
</g>
</svg>