<?xml version="1.0" encoding="UTF-8" standalone="no"?><!DOCTYPE svg PUBLIC "-//W3C//DTD SVG 1.1//EN" "http://www.w3.org/Graphics/SVG/1.1/DTD/svg11.dtd"><!-- Generated by graphviz version 2.40.1 (20161225.0304)
 --><!-- Title: state_machine Pages: 1 --><svg xmlns="http://www.w3.org/2000/svg" xmlns:xlink="http://www.w3.org/1999/xlink" width="696pt" height="102pt" viewBox="0.00 0.00 695.66 102.39">
<g id="graph0" class="graph" transform="scale(1 1) rotate(0) translate(4 98.3869)">
<title>state_machine</title>
<polygon fill="#ffffff" stroke="transparent" points="-4,4 -4,-98.3869 691.6602,-98.3869 691.6602,4 -4,4"/>
<!-- q0 -->
<g id="node1" class="node">
<title>q0</title>
<ellipse fill="none" stroke="#000000" cx="61.2935" cy="-24.6935" rx="20.8887" ry="20.8887"/>
<text text-anchor="middle" x="61.2935" y="-20.4935" font-family="Times,serif" font-size="14.00" fill="#000000">q0</text>
</g>
<!-- q1 -->
<g id="node2" class="node">
<title>q1</title>
<ellipse fill="none" stroke="#000000" cx="144.895" cy="-73.6935" rx="20.8887" ry="20.8887"/>
<text text-anchor="middle" x="144.895" y="-69.4935" font-family="Times,serif" font-size="14.00" fill="#000000">q1</text>
</g>
<!-- q0&#45;&gt;q1 -->
<g id="edge1" class="edge">
<title>q0-&gt;q1</title>
<path fill="none" stroke="#000000" d="M79.4337,-35.3257C90.7177,-41.9394 105.4315,-50.5634 118.0506,-57.9596"/>
<polygon fill="#000000" stroke="#000000" points="116.3929,-61.0449 126.7901,-63.0819 119.9326,-55.0057 116.3929,-61.0449"/>
<text text-anchor="middle" x="103.0942" y="-53.8935" font-family="Times,serif" font-size="14.00" fill="#000000">a</text>
</g>
<!-- q3 -->
<g id="node4" class="node">
<title>q3</title>
<ellipse fill="none" stroke="#000000" cx="318.3294" cy="-24.6935" rx="20.8887" ry="20.8887"/>
<text text-anchor="middle" x="318.3294" y="-20.4935" font-family="Times,serif" font-size="14.00" fill="#000000">q3</text>
</g>
<!-- q0&#45;&gt;q3 -->
<g id="edge2" class="edge">
<title>q0-&gt;q3</title>
<path fill="none" stroke="#000000" d="M82.3278,-24.6935C127.5323,-24.6935 234.134,-24.6935 287.1976,-24.6935"/>
<polygon fill="#000000" stroke="#000000" points="287.3649,-28.1936 297.3649,-24.6935 287.3649,-21.1936 287.3649,-28.1936"/>
<text text-anchor="middle" x="189.4187" y="-28.8935" font-family="Times,serif" font-size="14.00" fill="#000000">位</text>
</g>
<!-- q2 -->
<g id="node3" class="node">
<title>q2</title>
<ellipse fill="none" stroke="#000000" cx="233.9425" cy="-73.6935" rx="20.8887" ry="20.8887"/>
<text text-anchor="middle" x="233.9425" y="-69.4935" font-family="Times,serif" font-size="14.00" fill="#000000">q2</text>
</g>
<!-- q1&#45;&gt;q2 -->
<g id="edge3" class="edge">
<title>q1-&gt;q2</title>
<path fill="none" stroke="#000000" d="M165.998,-73.6935C176.9768,-73.6935 190.6117,-73.6935 202.7794,-73.6935"/>
<polygon fill="#000000" stroke="#000000" points="202.991,-77.1936 212.9909,-73.6935 202.9909,-70.1936 202.991,-77.1936"/>
<text text-anchor="middle" x="189.4187" y="-77.8935" font-family="Times,serif" font-size="14.00" fill="#000000">a</text>
</g>
<!-- q2&#45;&gt;q3 -->
<g id="edge4" class="edge">
<title>q2-&gt;q3</title>
<path fill="none" stroke="#000000" d="M251.8388,-63.3018C263.2846,-56.6557 278.3491,-47.9084 291.2443,-40.4206"/>
<polygon fill="#000000" stroke="#000000" points="293.2776,-43.2873 300.168,-35.239 289.7626,-37.2338 293.2776,-43.2873"/>
<text text-anchor="middle" x="276.1359" y="-53.8935" font-family="Times,serif" font-size="14.00" fill="#000000">b</text>
</g>
<!-- q3&#45;&gt;q0 -->
<g id="edge5" class="edge">
<title>q3-&gt;q0</title>
<path fill="none" stroke="#000000" d="M298.3442,-18.5918C272.126,-11.2827 224.6275,-.4284 183.5884,-3.8935 151.854,-6.5729 115.9761,-13.0971 91.3301,-18.1302"/>
<polygon fill="#000000" stroke="#000000" points="90.5748,-14.7124 81.5001,-20.1804 92.0041,-21.5649 90.5748,-14.7124"/>
<text text-anchor="middle" x="189.4187" y="-8.8935" font-family="Times,serif" font-size="14.00" fill="#000000">位</text>
</g>
<!-- q4 -->
<g id="node5" class="node">
<title>q4</title>
<ellipse fill="none" stroke="#000000" cx="402.7163" cy="-24.6935" rx="20.8887" ry="20.8887"/>
<text text-anchor="middle" x="402.7163" y="-20.4935" font-family="Times,serif" font-size="14.00" fill="#000000">q4</text>
</g>
<!-- q3&#45;&gt;q4 -->
<g id="edge6" class="edge">
<title>q3-&gt;q4</title>
<path fill="none" stroke="#000000" d="M339.1891,-24.6935C348.9261,-24.6935 360.7202,-24.6935 371.4899,-24.6935"/>
<polygon fill="#000000" stroke="#000000" points="371.8041,-28.1935 381.8041,-24.6935 371.8041,-21.1935 371.8041,-28.1935"/>
<text text-anchor="middle" x="360.5228" y="-28.8935" font-family="Times,serif" font-size="14.00" fill="#000000">b</text>
</g>
<!-- q5 -->
<g id="node6" class="node">
<title>q5</title>
<ellipse fill="none" stroke="#000000" cx="486.3178" cy="-73.6935" rx="20.8887" ry="20.8887"/>
<text text-anchor="middle" x="486.3178" y="-69.4935" font-family="Times,serif" font-size="14.00" fill="#000000">q5</text>
</g>
<!-- q4&#45;&gt;q5 -->
<g id="edge7" class="edge">
<title>q4-&gt;q5</title>
<path fill="none" stroke="#000000" d="M420.8566,-35.3257C432.1405,-41.9394 446.8543,-50.5634 459.4735,-57.9596"/>
<polygon fill="#000000" stroke="#000000" points="457.8157,-61.0449 468.2129,-63.0819 461.3554,-55.0057 457.8157,-61.0449"/>
<text text-anchor="middle" x="444.517" y="-53.8935" font-family="Times,serif" font-size="14.00" fill="#000000">a</text>
</g>
<!-- q7 -->
<g id="node8" class="node">
<title>q7</title>
<ellipse fill="none" stroke="#000000" cx="662.9668" cy="-24.6935" rx="20.8568" ry="20.8568"/>
<ellipse fill="none" stroke="#000000" cx="662.9668" cy="-24.6935" rx="24.8884" ry="24.8884"/>
<text text-anchor="middle" x="662.9668" y="-20.4935" font-family="Times,serif" font-size="14.00" fill="#000000">q7</text>
</g>
<!-- q4&#45;&gt;q7 -->
<g id="edge8" class="edge">
<title>q4-&gt;q7</title>
<path fill="none" stroke="#000000" d="M423.5737,-24.6935C468.127,-24.6935 572.9924,-24.6935 627.9587,-24.6935"/>
<polygon fill="#000000" stroke="#000000" points="628.254,-28.1935 638.2539,-24.6935 628.2539,-21.1935 628.254,-28.1935"/>
<text text-anchor="middle" x="530.8415" y="-28.8935" font-family="Times,serif" font-size="14.00" fill="#000000">位</text>
</g>
<!-- q6 -->
<g id="node7" class="node">
<title>q6</title>
<ellipse fill="none" stroke="#000000" cx="575.3653" cy="-73.6935" rx="20.8887" ry="20.8887"/>
<text text-anchor="middle" x="575.3653" y="-69.4935" font-family="Times,serif" font-size="14.00" fill="#000000">q6</text>
</g>
<!-- q5&#45;&gt;q6 -->
<g id="edge9" class="edge">
<title>q5-&gt;q6</title>
<path fill="none" stroke="#000000" d="M507.4208,-73.6935C518.3997,-73.6935 532.0346,-73.6935 544.2023,-73.6935"/>
<polygon fill="#000000" stroke="#000000" points="544.4138,-77.1936 554.4137,-73.6935 544.4137,-70.1936 544.4138,-77.1936"/>
<text text-anchor="middle" x="530.8415" y="-77.8935" font-family="Times,serif" font-size="14.00" fill="#000000">b</text>
</g>
<!-- q6&#45;&gt;q7 -->
<g id="edge10" class="edge">
<title>q6-&gt;q7</title>
<path fill="none" stroke="#000000" d="M593.5164,-63.5406C604.6467,-57.3149 619.1888,-49.1807 632.0885,-41.9653"/>
<polygon fill="#000000" stroke="#000000" points="634.1001,-44.8505 641.1189,-36.9141 630.6828,-38.7412 634.1001,-44.8505"/>
<text text-anchor="middle" x="617.166" y="-53.8935" font-family="Times,serif" font-size="14.00" fill="#000000">a</text>
</g>
<!-- q7&#45;&gt;q4 -->
<g id="edge11" class="edge">
<title>q7-&gt;q4</title>
<path fill="none" stroke="#000000" d="M639.1533,-17.6655C611.7439,-10.3786 565.3174,-.4902 525.0112,-3.8935 493.2768,-6.5729 457.3989,-13.0971 432.753,-18.1302"/>
<polygon fill="#000000" stroke="#000000" points="431.9976,-14.7124 422.9229,-20.1804 433.4269,-21.5649 431.9976,-14.7124"/>
<text text-anchor="middle" x="530.8415" y="-8.8935" font-family="Times,serif" font-size="14.00" fill="#000000">位</text>
</g>
<!-- q -->
<g id="node9" class="node">
<title>q</title>
<ellipse fill="#000000" stroke="#000000" cx="1.8" cy="-24.6935" rx="1.8" ry="1.8"/>
</g>
<!-- q&#45;&gt;q0 -->
<g id="edge12" class="edge">
<title>q-&gt;q0</title>
<path fill="none" stroke="#000000" d="M3.7795,-24.6935C8.1326,-24.6935 19.0417,-24.6935 30.2036,-24.6935"/>
<polygon fill="#000000" stroke="#000000" points="30.3445,-28.1936 40.3444,-24.6935 30.3444,-21.1936 30.3445,-28.1936"/>
</g>
</g>
</svg>