<?xml version="1.0" encoding="UTF-8" standalone="no"?><!DOCTYPE svg PUBLIC "-//W3C//DTD SVG 1.1//EN" "http://www.w3.org/Graphics/SVG/1.1/DTD/svg11.dtd"><!-- Generated by graphviz version 2.40.1 (20161225.0304)
 --><!-- Title: state_machine Pages: 1 --><svg xmlns="http://www.w3.org/2000/svg" xmlns:xlink="http://www.w3.org/1999/xlink" width="517pt" height="133pt" viewBox="0.00 0.00 517.34 132.75">
<g id="graph0" class="graph" transform="scale(1 1) rotate(0) translate(4 128.7523)">
<title>state_machine</title>
<polygon fill="#ffffff" stroke="transparent" points="-4,4 -4,-128.7523 513.3444,-128.7523 513.3444,4 -4,4"/>
<!-- AE -->
<g id="node1" class="node">
<title>AE</title>
<ellipse fill="none" stroke="#000000" cx="64.5073" cy="-27.3762" rx="23.8149" ry="23.8149"/>
<text text-anchor="middle" x="64.5073" y="-23.1762" font-family="Times,serif" font-size="14.00" fill="#000000">AE</text>
</g>
<!-- BF -->
<g id="node4" class="node">
<title>BF</title>
<ellipse fill="none" stroke="#000000" cx="168.0053" cy="-27.3762" rx="22.6911" ry="22.6911"/>
<text text-anchor="middle" x="168.0053" y="-23.1762" font-family="Times,serif" font-size="14.00" fill="#000000">BF</text>
</g>
<!-- AE&#45;&gt;BF -->
<g id="edge1" class="edge">
<title>AE-&gt;BF</title>
<path fill="none" stroke="#000000" d="M88.512,-27.3762C102.1588,-27.3762 119.4605,-27.3762 134.4354,-27.3762"/>
<polygon fill="#000000" stroke="#000000" points="134.8428,-30.8762 144.8428,-27.3762 134.8427,-23.8762 134.8428,-30.8762"/>
<text text-anchor="middle" x="116.5219" y="-31.5762" font-family="Times,serif" font-size="14.00" fill="#000000">a, b</text>
</g>
<!-- AF -->
<g id="node2" class="node">
<title>AF</title>
<ellipse fill="none" stroke="#000000" cx="168.0053" cy="-101.3762" rx="23.253" ry="23.253"/>
<text text-anchor="middle" x="168.0053" y="-97.1762" font-family="Times,serif" font-size="14.00" fill="#000000">AF</text>
</g>
<!-- BE -->
<g id="node3" class="node">
<title>BE</title>
<ellipse fill="none" stroke="#000000" cx="270.9722" cy="-101.3762" rx="23.253" ry="23.253"/>
<text text-anchor="middle" x="270.9722" y="-97.1762" font-family="Times,serif" font-size="14.00" fill="#000000">BE</text>
</g>
<!-- AF&#45;&gt;BE -->
<g id="edge2" class="edge">
<title>AF-&gt;BE</title>
<path fill="none" stroke="#000000" d="M191.628,-101.3762C205.1012,-101.3762 222.2173,-101.3762 237.1007,-101.3762"/>
<polygon fill="#000000" stroke="#000000" points="237.4595,-104.8762 247.4595,-101.3762 237.4594,-97.8762 237.4595,-104.8762"/>
<text text-anchor="middle" x="219.4888" y="-105.5762" font-family="Times,serif" font-size="14.00" fill="#000000">a, b</text>
</g>
<!-- CF -->
<g id="node6" class="node">
<title>CF</title>
<ellipse fill="none" stroke="#000000" cx="377.9391" cy="-101.3762" rx="22.6911" ry="22.6911"/>
<text text-anchor="middle" x="377.9391" y="-97.1762" font-family="Times,serif" font-size="14.00" fill="#000000">CF</text>
</g>
<!-- BE&#45;&gt;CF -->
<g id="edge3" class="edge">
<title>BE-&gt;CF</title>
<path fill="none" stroke="#000000" d="M294.4466,-101.3762C309.1775,-101.3762 328.3991,-101.3762 344.6854,-101.3762"/>
<polygon fill="#000000" stroke="#000000" points="344.8873,-104.8762 354.8873,-101.3762 344.8873,-97.8762 344.8873,-104.8762"/>
<text text-anchor="middle" x="322.4557" y="-105.5762" font-family="Times,serif" font-size="14.00" fill="#000000">a, b</text>
</g>
<!-- CE -->
<g id="node5" class="node">
<title>CE</title>
<ellipse fill="none" stroke="#000000" cx="270.9722" cy="-27.3762" rx="23.253" ry="23.253"/>
<text text-anchor="middle" x="270.9722" y="-23.1762" font-family="Times,serif" font-size="14.00" fill="#000000">CE</text>
</g>
<!-- BF&#45;&gt;CE -->
<g id="edge4" class="edge">
<title>BF-&gt;CE</title>
<path fill="none" stroke="#000000" d="M190.857,-27.3762C204.5284,-27.3762 222.1496,-27.3762 237.3834,-27.3762"/>
<polygon fill="#000000" stroke="#000000" points="237.4706,-30.8763 247.4705,-27.3762 237.4705,-23.8763 237.4706,-30.8763"/>
<text text-anchor="middle" x="219.4888" y="-31.5762" font-family="Times,serif" font-size="14.00" fill="#000000">a, b</text>
</g>
<!-- DF -->
<g id="node8" class="node">
<title>DF</title>
<ellipse fill="none" stroke="#000000" cx="377.9391" cy="-27.3762" rx="23.2709" ry="23.2709"/>
<ellipse fill="none" stroke="#000000" cx="377.9391" cy="-27.3762" rx="27.2529" ry="27.2529"/>
<text text-anchor="middle" x="377.9391" y="-23.1762" font-family="Times,serif" font-size="14.00" fill="#000000">DF</text>
</g>
<!-- CE&#45;&gt;DF -->
<g id="edge5" class="edge">
<title>CE-&gt;DF</title>
<path fill="none" stroke="#000000" d="M294.4466,-27.3762C307.838,-27.3762 324.9405,-27.3762 340.1753,-27.3762"/>
<polygon fill="#000000" stroke="#000000" points="340.3556,-30.8763 350.3556,-27.3762 340.3555,-23.8763 340.3556,-30.8763"/>
<text text-anchor="middle" x="322.4557" y="-31.5762" font-family="Times,serif" font-size="14.00" fill="#000000">a, b</text>
</g>
<!-- DE -->
<g id="node7" class="node">
<title>DE</title>
<ellipse fill="none" stroke="#000000" cx="485.4372" cy="-61.3762" rx="23.8149" ry="23.8149"/>
<text text-anchor="middle" x="485.4372" y="-57.1762" font-family="Times,serif" font-size="14.00" fill="#000000">DE</text>
</g>
<!-- CF&#45;&gt;DE -->
<g id="edge6" class="edge">
<title>CF-&gt;DE</title>
<path fill="none" stroke="#000000" d="M399.4346,-93.3777C414.8002,-87.6602 435.7464,-79.8661 453.12,-73.4014"/>
<polygon fill="#000000" stroke="#000000" points="454.7157,-76.5421 462.8673,-69.7744 452.2744,-69.9816 454.7157,-76.5421"/>
<text text-anchor="middle" x="433.4226" y="-87.5762" font-family="Times,serif" font-size="14.00" fill="#000000">a, b</text>
</g>
<!-- DE&#45;&gt;DF -->
<g id="edge7" class="edge">
<title>DE-&gt;DF</title>
<path fill="none" stroke="#000000" d="M470.3896,-42.2033C463.1831,-34.5606 453.8693,-26.6276 443.5299,-22.5762 434.5519,-19.0582 424.3592,-18.3837 414.7304,-19.0595"/>
<polygon fill="#000000" stroke="#000000" points="414.1103,-15.6082 404.5875,-20.2521 414.9278,-22.5603 414.1103,-15.6082"/>
<text text-anchor="middle" x="433.4226" y="-27.5762" font-family="Times,serif" font-size="14.00" fill="#000000">a, b</text>
</g>
<!-- DF&#45;&gt;DE -->
<g id="edge8" class="edge">
<title>DF-&gt;DE</title>
<path fill="none" stroke="#000000" d="M404.2361,-35.6935C418.8188,-40.3058 437.0869,-46.0837 452.6009,-50.9905"/>
<polygon fill="#000000" stroke="#000000" points="451.7418,-54.3897 462.3318,-54.0683 453.8528,-47.7155 451.7418,-54.3897"/>
<text text-anchor="middle" x="433.4226" y="-52.5762" font-family="Times,serif" font-size="14.00" fill="#000000">a, b</text>
</g>
<!-- q -->
<g id="node9" class="node">
<title>q</title>
<ellipse fill="#000000" stroke="#000000" cx="1.8" cy="-27.3762" rx="1.8" ry="1.8"/>
</g>
<!-- q&#45;&gt;AE -->
<g id="edge9" class="edge">
<title>q-&gt;AE</title>
<path fill="none" stroke="#000000" d="M3.6091,-27.3762C7.8336,-27.3762 18.868,-27.3762 30.4027,-27.3762"/>
<polygon fill="#000000" stroke="#000000" points="30.5096,-30.8763 40.5095,-27.3762 30.5095,-23.8763 30.5096,-30.8763"/>
</g>
</g>
</svg>