<?xml version="1.0" encoding="UTF-8" standalone="no"?><!DOCTYPE svg PUBLIC "-//W3C//DTD SVG 1.1//EN" "http://www.w3.org/Graphics/SVG/1.1/DTD/svg11.dtd"><!-- Generated by graphviz version 2.40.1 (20161225.0304)
 --><!-- Title: state_machine Pages: 1 --><svg xmlns="http://www.w3.org/2000/svg" xmlns:xlink="http://www.w3.org/1999/xlink" width="687pt" height="222pt" viewBox="0.00 0.00 687.26 221.62">
<g id="graph0" class="graph" transform="scale(1 1) rotate(0) translate(4 217.6242)">
<title>state_machine</title>
<polygon fill="#ffffff" stroke="transparent" points="-4,4 -4,-217.6242 683.2646,-217.6242 683.2646,4 -4,4"/>
<!-- AD -->
<g id="node1" class="node">
<title>AD</title>
<ellipse fill="none" stroke="#000000" cx="65.5792" cy="-54.4481" rx="24.9584" ry="24.9584"/>
<text text-anchor="middle" x="65.5792" y="-50.2481" font-family="Times,serif" font-size="14.00" fill="#000000">AD</text>
</g>
<!-- AE -->
<g id="node2" class="node">
<title>AE</title>
<ellipse fill="none" stroke="#000000" cx="157.4657" cy="-97.4481" rx="23.8149" ry="23.8149"/>
<text text-anchor="middle" x="157.4657" y="-93.2481" font-family="Times,serif" font-size="14.00" fill="#000000">AE</text>
</g>
<!-- AD&#45;&gt;AE -->
<g id="edge2" class="edge">
<title>AD-&gt;AE</title>
<path fill="none" stroke="#000000" d="M88.2927,-65.0773C99.8119,-70.4679 113.975,-77.0958 126.479,-82.9473"/>
<polygon fill="#000000" stroke="#000000" points="125.1054,-86.1687 135.6462,-87.2372 128.0724,-79.8286 125.1054,-86.1687"/>
<text text-anchor="middle" x="112.0584" y="-81.6481" font-family="Times,serif" font-size="14.00" fill="#000000">b</text>
</g>
<!-- BD -->
<g id="node4" class="node">
<title>BD</title>
<ellipse fill="none" stroke="#000000" cx="248.821" cy="-37.4481" rx="24.3963" ry="24.3963"/>
<text text-anchor="middle" x="248.821" y="-33.2481" font-family="Times,serif" font-size="14.00" fill="#000000">BD</text>
</g>
<!-- AD&#45;&gt;BD -->
<g id="edge1" class="edge">
<title>AD-&gt;BD</title>
<path fill="none" stroke="#000000" d="M90.4339,-51.893C103.3019,-50.5877 119.2701,-48.9949 133.5584,-47.6481 160.4934,-45.1092 190.9873,-42.4188 213.8418,-40.4389"/>
<polygon fill="#000000" stroke="#000000" points="214.419,-43.9022 224.0809,-39.5551 213.8169,-36.9281 214.419,-43.9022"/>
<text text-anchor="middle" x="157.4657" y="-52.6481" font-family="Times,serif" font-size="14.00" fill="#000000">a</text>
</g>
<!-- AF -->
<g id="node3" class="node">
<title>AF</title>
<ellipse fill="none" stroke="#000000" cx="248.821" cy="-155.4481" rx="23.253" ry="23.253"/>
<text text-anchor="middle" x="248.821" y="-151.2481" font-family="Times,serif" font-size="14.00" fill="#000000">AF</text>
</g>
<!-- AE&#45;&gt;AF -->
<g id="edge4" class="edge">
<title>AE-&gt;AF</title>
<path fill="none" stroke="#000000" d="M177.7404,-110.3202C190.2455,-118.2594 206.4751,-128.5633 220.2685,-137.3205"/>
<polygon fill="#000000" stroke="#000000" points="218.5991,-140.4064 228.9173,-142.8115 222.351,-134.4968 218.5991,-140.4064"/>
<text text-anchor="middle" x="202.873" y="-131.6481" font-family="Times,serif" font-size="14.00" fill="#000000">b</text>
</g>
<!-- BE -->
<g id="node5" class="node">
<title>BE</title>
<ellipse fill="none" stroke="#000000" cx="339.6453" cy="-97.4481" rx="23.253" ry="23.253"/>
<text text-anchor="middle" x="339.6453" y="-93.2481" font-family="Times,serif" font-size="14.00" fill="#000000">BE</text>
</g>
<!-- AE&#45;&gt;BE -->
<g id="edge3" class="edge">
<title>AE-&gt;BE</title>
<path fill="none" stroke="#000000" d="M181.6577,-97.4481C213.6358,-97.4481 270.129,-97.4481 306.1833,-97.4481"/>
<polygon fill="#000000" stroke="#000000" points="306.2196,-100.9482 316.2196,-97.4481 306.2196,-93.9482 306.2196,-100.9482"/>
<text text-anchor="middle" x="248.821" y="-101.6481" font-family="Times,serif" font-size="14.00" fill="#000000">a</text>
</g>
<!-- AF&#45;&gt;AF -->
<g id="edge6" class="edge">
<title>AF-&gt;AF</title>
<path fill="none" stroke="#000000" d="M240.7342,-177.5837C239.852,-187.8523 242.5476,-196.8242 248.821,-196.8242 252.84,-196.8242 255.3906,-193.1422 256.4728,-187.7959"/>
<polygon fill="#000000" stroke="#000000" points="259.979,-187.7237 256.9079,-177.5837 252.9853,-187.4256 259.979,-187.7237"/>
<text text-anchor="middle" x="248.821" y="-201.0242" font-family="Times,serif" font-size="14.00" fill="#000000">b</text>
</g>
<!-- AF&#45;&gt;BE -->
<g id="edge5" class="edge">
<title>AF-&gt;BE</title>
<path fill="none" stroke="#000000" d="M268.5286,-142.8629C280.9398,-134.9372 297.1705,-124.5723 310.9921,-115.7459"/>
<polygon fill="#000000" stroke="#000000" points="313.1183,-118.541 319.6626,-110.2089 309.3507,-112.6413 313.1183,-118.541"/>
<text text-anchor="middle" x="294.7691" y="-131.6481" font-family="Times,serif" font-size="14.00" fill="#000000">a</text>
</g>
<!-- BD&#45;&gt;BE -->
<g id="edge8" class="edge">
<title>BD-&gt;BE</title>
<path fill="none" stroke="#000000" d="M270.3015,-49.4655C279.1003,-54.5591 289.3021,-60.6874 298.2691,-66.6481 303.0234,-69.8084 307.9757,-73.3047 312.7326,-76.7737"/>
<polygon fill="#000000" stroke="#000000" points="310.8831,-79.7598 320.9988,-82.9099 315.0555,-74.1391 310.8831,-79.7598"/>
<text text-anchor="middle" x="294.7691" y="-71.6481" font-family="Times,serif" font-size="14.00" fill="#000000">b</text>
</g>
<!-- CD -->
<g id="node7" class="node">
<title>CD</title>
<ellipse fill="none" stroke="#000000" cx="405.4695" cy="-24.4481" rx="24.3963" ry="24.3963"/>
<text text-anchor="middle" x="405.4695" y="-20.2481" font-family="Times,serif" font-size="14.00" fill="#000000">CD</text>
</g>
<!-- BD&#45;&gt;CD -->
<g id="edge7" class="edge">
<title>BD-&gt;CD</title>
<path fill="none" stroke="#000000" d="M273.2974,-35.4168C299.4309,-33.248 341.066,-29.7928 370.6175,-27.3404"/>
<polygon fill="#000000" stroke="#000000" points="371.2308,-30.8016 380.9071,-26.4865 370.6518,-23.8256 371.2308,-30.8016"/>
<text text-anchor="middle" x="294.7691" y="-38.6481" font-family="Times,serif" font-size="14.00" fill="#000000">a</text>
</g>
<!-- BF -->
<g id="node6" class="node">
<title>BF</title>
<ellipse fill="none" stroke="#000000" cx="470.7626" cy="-155.4481" rx="22.6911" ry="22.6911"/>
<text text-anchor="middle" x="470.7626" y="-151.2481" font-family="Times,serif" font-size="14.00" fill="#000000">BF</text>
</g>
<!-- BE&#45;&gt;BF -->
<g id="edge10" class="edge">
<title>BE-&gt;BF</title>
<path fill="none" stroke="#000000" d="M361.2966,-107.0256C382.7766,-116.5273 415.8949,-131.1772 440.0801,-141.8756"/>
<polygon fill="#000000" stroke="#000000" points="438.953,-145.2041 449.5141,-146.0488 441.7848,-138.8025 438.953,-145.2041"/>
<text text-anchor="middle" x="405.4695" y="-140.6481" font-family="Times,serif" font-size="14.00" fill="#000000">b</text>
</g>
<!-- CE -->
<g id="node8" class="node">
<title>CE</title>
<ellipse fill="none" stroke="#000000" cx="559.1984" cy="-97.4481" rx="23.253" ry="23.253"/>
<text text-anchor="middle" x="559.1984" y="-93.2481" font-family="Times,serif" font-size="14.00" fill="#000000">CE</text>
</g>
<!-- BE&#45;&gt;CE -->
<g id="edge9" class="edge">
<title>BE-&gt;CE</title>
<path fill="none" stroke="#000000" d="M363.1413,-97.4481C402.1604,-97.4481 480.4665,-97.4481 525.4108,-97.4481"/>
<polygon fill="#000000" stroke="#000000" points="525.5395,-100.9482 535.5394,-97.4481 525.5394,-93.9482 525.5395,-100.9482"/>
<text text-anchor="middle" x="470.7626" y="-101.6481" font-family="Times,serif" font-size="14.00" fill="#000000">a</text>
</g>
<!-- BF&#45;&gt;BF -->
<g id="edge12" class="edge">
<title>BF-&gt;BF</title>
<path fill="none" stroke="#000000" d="M463.0433,-177.2995C462.2012,-187.4364 464.7743,-196.2931 470.7626,-196.2931 474.5988,-196.2931 477.0335,-192.6583 478.0665,-187.3807"/>
<polygon fill="#000000" stroke="#000000" points="481.5672,-187.4352 478.4819,-177.2995 474.5731,-187.147 481.5672,-187.4352"/>
<text text-anchor="middle" x="470.7626" y="-200.4931" font-family="Times,serif" font-size="14.00" fill="#000000">b</text>
</g>
<!-- BF&#45;&gt;CE -->
<g id="edge11" class="edge">
<title>BF-&gt;CE</title>
<path fill="none" stroke="#000000" d="M489.9518,-142.8629C501.9534,-134.9918 517.6228,-124.7151 531.0199,-115.9287"/>
<polygon fill="#000000" stroke="#000000" points="532.9916,-118.8212 539.4342,-110.4102 529.1527,-112.9678 532.9916,-118.8212"/>
<text text-anchor="middle" x="514.7149" y="-131.6481" font-family="Times,serif" font-size="14.00" fill="#000000">a</text>
</g>
<!-- CD&#45;&gt;CD -->
<g id="edge13" class="edge">
<title>CD-&gt;CD</title>
<path fill="none" stroke="#000000" d="M393.824,-46.2885C392.2127,-57.1806 396.0945,-66.8961 405.4695,-66.8961 411.7683,-66.8961 415.5875,-62.5104 416.9269,-56.3287"/>
<polygon fill="#000000" stroke="#000000" points="420.427,-56.3523 417.115,-46.2885 413.4282,-56.2211 420.427,-56.3523"/>
<text text-anchor="middle" x="405.4695" y="-71.0961" font-family="Times,serif" font-size="14.00" fill="#000000">a</text>
</g>
<!-- CD&#45;&gt;CE -->
<g id="edge14" class="edge">
<title>CD-&gt;CE</title>
<path fill="none" stroke="#000000" d="M428.7367,-32.2968C446.7671,-38.659 472.2,-48.2499 493.6076,-58.6481 506.1909,-64.7601 519.5689,-72.4422 530.9385,-79.3547"/>
<polygon fill="#000000" stroke="#000000" points="529.2256,-82.4105 539.5726,-84.6887 532.9047,-76.4553 529.2256,-82.4105"/>
<text text-anchor="middle" x="470.7626" y="-63.6481" font-family="Times,serif" font-size="14.00" fill="#000000">b</text>
</g>
<!-- CE&#45;&gt;CE -->
<g id="edge15" class="edge">
<title>CE-&gt;CE</title>
<path fill="none" stroke="#000000" d="M551.1115,-119.5837C550.2293,-129.8523 552.9249,-138.8242 559.1984,-138.8242 563.2173,-138.8242 565.7679,-135.1422 566.8501,-129.7959"/>
<polygon fill="#000000" stroke="#000000" points="570.3563,-129.7237 567.2852,-119.5837 563.3626,-129.4256 570.3563,-129.7237"/>
<text text-anchor="middle" x="559.1984" y="-143.0242" font-family="Times,serif" font-size="14.00" fill="#000000">a</text>
</g>
<!-- CF -->
<g id="node9" class="node">
<title>CF</title>
<ellipse fill="none" stroke="#000000" cx="652.4195" cy="-97.4481" rx="22.7139" ry="22.7139"/>
<ellipse fill="none" stroke="#000000" cx="652.4195" cy="-97.4481" rx="26.6909" ry="26.6909"/>
<text text-anchor="middle" x="652.4195" y="-93.2481" font-family="Times,serif" font-size="14.00" fill="#000000">CF</text>
</g>
<!-- CE&#45;&gt;CF -->
<g id="edge16" class="edge">
<title>CE-&gt;CF</title>
<path fill="none" stroke="#000000" d="M582.722,-97.4481C592.5319,-97.4481 604.1671,-97.4481 615.093,-97.4481"/>
<polygon fill="#000000" stroke="#000000" points="615.2683,-100.9482 625.2682,-97.4481 615.2682,-93.9482 615.2683,-100.9482"/>
<text text-anchor="middle" x="604.0745" y="-101.6481" font-family="Times,serif" font-size="14.00" fill="#000000">b</text>
</g>
<!-- CF&#45;&gt;CF -->
<g id="edge17" class="edge">
<title>CF-&gt;CF</title>
<path fill="none" stroke="#000000" d="M643.4986,-122.8039C642.8834,-133.3518 645.857,-142.2931 652.4195,-142.2931 656.7262,-142.2931 659.4872,-138.4424 660.7027,-132.814"/>
<polygon fill="#000000" stroke="#000000" points="664.1974,-133.0063 661.3404,-122.8039 657.2116,-132.5611 664.1974,-133.0063"/>
<text text-anchor="middle" x="652.4195" y="-146.4931" font-family="Times,serif" font-size="14.00" fill="#000000">a, b</text>
</g>
<!-- q -->
<g id="node10" class="node">
<title>q</title>
<ellipse fill="#000000" stroke="#000000" cx="1.8" cy="-54.4481" rx="1.8" ry="1.8"/>
</g>
<!-- q&#45;&gt;AD -->
<g id="edge18" class="edge">
<title>q-&gt;AD</title>
<path fill="none" stroke="#000000" d="M3.64,-54.4481C7.8736,-54.4481 18.8311,-54.4481 30.3744,-54.4481"/>
<polygon fill="#000000" stroke="#000000" points="30.515,-57.9482 40.515,-54.4481 30.515,-50.9482 30.515,-57.9482"/>
</g>
</g>
</svg>